<?xml version="1.0" encoding="UTF-8" standalone="no"?>
<!-- Created with Inkscape (http://www.inkscape.org/) -->

<svg
   xmlns:osb="http://www.openswatchbook.org/uri/2009/osb"
   xmlns:dc="http://purl.org/dc/elements/1.1/"
   xmlns:cc="http://creativecommons.org/ns#"
   xmlns:rdf="http://www.w3.org/1999/02/22-rdf-syntax-ns#"
   xmlns:svg="http://www.w3.org/2000/svg"
   xmlns="http://www.w3.org/2000/svg"
   xmlns:xlink="http://www.w3.org/1999/xlink"
   xmlns:sodipodi="http://sodipodi.sourceforge.net/DTD/sodipodi-0.dtd"
   xmlns:inkscape="http://www.inkscape.org/namespaces/inkscape"
   width="28.241734"
   height="27.218365"
   viewBox="0 0 7.4722922 7.2015259"
   version="1.1"
   id="svg8"
   inkscape:version="0.91 r13725"
   sodipodi:docname="AuntyLangButton_0.svg"
   style="enable-background:new">
  <defs
     id="defs2">
    <linearGradient
       inkscape:collect="always"
       id="linearGradient4504">
      <stop
         id="stop4508"
         offset="0"
         style="stop-color:#5f5f5f;stop-opacity:0;" />
      <stop
         id="stop4506"
         offset="1"
         style="stop-color:#5f5f5f;stop-opacity:1;" />
    </linearGradient>
    <linearGradient
       id="linearGradient4385"
       osb:paint="solid">
      <stop
         style="stop-color:#ffffff;stop-opacity:0.69040245;"
         offset="0"
         id="stop4387" />
    </linearGradient>
    <clipPath
       clipPathUnits="userSpaceOnUse"
       id="clipPath3571">
      <rect
         style="fill:#82ff9b;fill-opacity:1"
         id="rect3573"
         width="79.375"
         height="100.54167"
         x="0"
         y="196.45831" />
    </clipPath>
    <linearGradient
       inkscape:collect="always"
       xlink:href="#linearGradient4504"
       id="linearGradient4494"
       x1="22.385408"
       y1="94.463936"
       x2="28.490929"
       y2="94.420876"
       gradientUnits="userSpaceOnUse"
       gradientTransform="matrix(0.53350138,0.00456927,-0.00494479,0.57734694,17.989231,-23.419398)" />
  </defs>
  <sodipodi:namedview
     id="base"
     pagecolor="#ffffff"
     bordercolor="#666666"
     borderopacity="1.0"
     inkscape:pageopacity="0.0"
     inkscape:pageshadow="2"
     inkscape:zoom="13.30064"
     inkscape:cx="15.654429"
     inkscape:cy="5.5378716"
     inkscape:document-units="mm"
     inkscape:current-layer="layer2"
     showgrid="true"
     units="px"
     inkscape:snap-bbox="true"
     inkscape:snap-page="true"
     inkscape:bbox-nodes="true"
     inkscape:snap-bbox-edge-midpoints="true"
     inkscape:window-width="1223"
     inkscape:window-height="835"
     inkscape:window-x="203"
     inkscape:window-y="0"
     inkscape:window-maximized="0"
     inkscape:snap-global="false"
     showguides="true"
     fit-margin-top="0"
     fit-margin-left="0"
     fit-margin-right="0"
     fit-margin-bottom="0">
    <inkscape:grid
       type="xygrid"
       id="grid3371"
       originx="-26.698605"
       originy="-67.545027" />
  </sodipodi:namedview>
  <metadata
     id="metadata5">
    <rdf:RDF>
      <cc:Work
         rdf:about="">
        <dc:format>image/svg+xml</dc:format>
        <dc:type
           rdf:resource="http://purl.org/dc/dcmitype/StillImage" />
        <dc:title />
      </cc:Work>
    </rdf:RDF>
  </metadata>
  <g
     inkscape:groupmode="layer"
     id="layer2"
     inkscape:label="Foreground"
     style="display:inline;opacity:1"
     transform="translate(-26.698605,-25.795118)">
    <path
       sodipodi:type="star"
       style="opacity:1;fill:#ffffff;fill-opacity:1;stroke:#000000;stroke-width:0.21656249;stroke-linecap:round;stroke-linejoin:bevel;stroke-miterlimit:4;stroke-dasharray:none;stroke-opacity:1"
       id="path4162"
       sodipodi:sides="3"
       sodipodi:cx="30.433044"
       sodipodi:cy="30.152452"
       sodipodi:r1="4.7941403"
       sodipodi:r2="2.3970702"
       sodipodi:arg1="-1.566647"
       sodipodi:arg2="-0.51944942"
       inkscape:flatsided="true"
       inkscape:rounded="0"
       inkscape:randomized="0"
       d="m 30.452937,25.358353 4.121973,7.208376 -8.303623,-0.03445 z"
       inkscape:transform-center-x="-0.0015361812"
       inkscape:transform-center-y="-1.0533796"
       transform="matrix(0.87998953,-0.00429244,0.00429244,0.87998953,3.5230608,3.6584536)" />
    <path
       sodipodi:type="star"
       style="opacity:1;fill:#ffffff;fill-opacity:1;stroke:#000000;stroke-width:0.72787356;stroke-linecap:round;stroke-linejoin:bevel;stroke-miterlimit:4;stroke-dasharray:none;stroke-opacity:1"
       id="path4310"
       sodipodi:sides="6"
       sodipodi:cx="26.258137"
       sodipodi:cy="103.72447"
       sodipodi:r1="12.652648"
       sodipodi:r2="10.957514"
       sodipodi:arg1="1.0508702"
       sodipodi:arg2="1.574469"
       inkscape:flatsided="true"
       inkscape:rounded="0"
       inkscape:randomized="0"
       d="m 32.544175,114.70515 -12.652563,-0.0465 -6.286038,-10.98068 6.366524,-10.934203 12.652563,0.04647 6.286038,10.980674 z"
       transform="matrix(0.26211577,-8.4183893e-4,8.3995925e-4,0.26153051,23.465671,2.9299638)" />
    <path
       style="opacity:0.73699999;fill:url(#linearGradient4494);fill-opacity:1;stroke:#000000;stroke-width:0;stroke-miterlimit:4;stroke-dasharray:none;stroke-opacity:1"
       d="m 30.401749,30.303359 2.241324,0.0077 -1.050731,1.806307 -2.283688,-0.0029 z"
       id="rect4485"
       inkscape:connector-curvature="0"
       sodipodi:nodetypes="ccccc" />
    <path
       style="fill:#000000;fill-opacity:1;stroke:#000000;stroke-width:0.1082565;stroke-miterlimit:4;stroke-dasharray:none;stroke-opacity:1"
       inkscape:transform-center-x="-0.0068521817"
       inkscape:transform-center-y="-0.30909142"
       d="m 28.219951,30.300161 2.114468,7.78e-4 -1.012982,1.791945 z"
       id="path4480"
       inkscape:connector-curvature="0"
       sodipodi:nodetypes="cccc" />
    <path
       style="fill:none;fill-rule:evenodd;stroke:#000000;stroke-width:0.1903125;stroke-linecap:butt;stroke-linejoin:miter;stroke-miterlimit:4;stroke-dasharray:none;stroke-opacity:1"
       d="m 31.591506,32.118215 1.066116,-1.838857"
       id="path4483"
       inkscape:connector-curvature="0"
       sodipodi:nodetypes="cc" />
    <path
       style="fill-opacity:1"
       d="M 29.926203,29.973437 C 29.80573,29.943 29.697224,29.856603 29.640254,29.745815 c -0.02251,-0.0438 -0.04357,-0.134907 -0.04363,-0.188787 -1.26e-4,-0.13365 0.07475,-0.276657 0.183603,-0.350674 l 0.03426,-0.02332 -0.05978,-3.85e-4 c -0.114307,-7.76e-4 -0.207733,-0.04131 -0.293252,-0.126623 -0.169057,-0.168591 -0.169241,-0.429164 -4.3e-4,-0.599689 0.05384,-0.0544 0.139766,-0.101926 0.21125,-0.11687 0.122061,-0.02551 0.256251,0.0064 0.353023,0.08373 l 0.03038,0.02432 -0.01882,-0.04936 c -0.02617,-0.06866 -0.02811,-0.187185 -0.0043,-0.263706 0.03368,-0.108317 0.115277,-0.203512 0.217475,-0.253749 0.07016,-0.03447 0.117715,-0.04587 0.19168,-0.046 0.184179,-1.87e-4 0.350739,0.121162 0.406352,0.296117 0.0246,0.0774 0.02356,0.195468 -0.0023,0.264715 l -0.0185,0.04948 0.03024,-0.02429 c 0.07527,-0.06057 0.14104,-0.0856 0.240302,-0.09151 0.127602,-0.0076 0.235478,0.0329 0.325118,0.121948 0.08235,0.08182 0.125616,0.185509 0.126221,0.302477 5.93e-4,0.115286 -0.03932,0.210815 -0.123738,0.29608 -0.08498,0.08583 -0.178134,0.126769 -0.292433,0.128504 l -0.05979,7.69e-4 0.03442,0.0231 c 0.119324,0.08001 0.194846,0.236864 0.183844,0.38182 -0.0085,0.111835 -0.06758,0.228855 -0.149484,0.296014 -0.0514,0.04214 -0.132304,0.08133 -0.192237,0.0931 -0.06181,0.01215 -0.162837,0.0057 -0.22095,-0.01448 -0.12189,-0.042 -0.22925,-0.148779 -0.265678,-0.264316 -0.0077,-0.02451 -0.01571,-0.04458 -0.01773,-0.04457 -0.002,6e-6 -0.0099,0.02013 -0.01745,0.04468 -0.03566,0.115665 -0.141906,0.222808 -0.263976,0.266197 -0.05681,0.02016 -0.182007,0.02696 -0.237712,0.01289 z m 0.606591,-0.766312 c 0.0813,-0.03122 0.138699,-0.10274 0.154449,-0.192541 0.0073,-0.04096 0.0066,-0.0559 -0.0037,-0.09576 -0.01497,-0.05768 -0.03153,-0.08518 -0.07549,-0.125451 -0.05159,-0.04723 -0.09111,-0.06209 -0.165617,-0.06216 -0.05404,-3e-5 -0.06852,0.0024 -0.104632,0.02071 -0.05427,0.02685 -0.110716,0.08853 -0.128345,0.140193 -0.02005,0.05876 -0.01675,0.13252 0.0084,0.186956 0.025,0.05419 0.08057,0.107591 0.132547,0.12738 0.05147,0.01958 0.132374,0.0199 0.182467,5.59e-4 z"
       id="path3530"
       inkscape:connector-curvature="0" />
    <path
       transform="matrix(0.87998953,-0.00429244,0.00429244,0.87998953,3.5230608,3.6584536)"
       inkscape:transform-center-y="-1.0533796"
       inkscape:transform-center-x="-0.0015361812"
       d="m 30.452937,25.358353 4.121973,7.208376 -8.303623,-0.03445 z"
       inkscape:randomized="0"
       inkscape:rounded="0"
       inkscape:flatsided="true"
       sodipodi:arg2="-0.51944942"
       sodipodi:arg1="-1.566647"
       sodipodi:r2="2.3970702"
       sodipodi:r1="4.7941403"
       sodipodi:cy="30.152452"
       sodipodi:cx="30.433044"
       sodipodi:sides="3"
       id="path4196"
       style="opacity:1;fill:#ffffff;fill-opacity:0;stroke:#000000;stroke-width:0.21656251;stroke-linecap:round;stroke-linejoin:bevel;stroke-miterlimit:4;stroke-dasharray:none;stroke-opacity:1"
       sodipodi:type="star" />
  </g>
</svg>
