<?xml version="1.0" encoding="UTF-8" standalone="no"?>
<!-- Created with Inkscape (http://www.inkscape.org/) -->

<svg
   xmlns:osb="http://www.openswatchbook.org/uri/2009/osb"
   xmlns:dc="http://purl.org/dc/elements/1.1/"
   xmlns:cc="http://creativecommons.org/ns#"
   xmlns:rdf="http://www.w3.org/1999/02/22-rdf-syntax-ns#"
   xmlns:svg="http://www.w3.org/2000/svg"
   xmlns="http://www.w3.org/2000/svg"
   xmlns:xlink="http://www.w3.org/1999/xlink"
   xmlns:sodipodi="http://sodipodi.sourceforge.net/DTD/sodipodi-0.dtd"
   xmlns:inkscape="http://www.inkscape.org/namespaces/inkscape"
   width="25.732115"
   height="22.408655"
   viewBox="0 0 6.8082889 5.9289569"
   version="1.1"
   id="svg8"
   inkscape:version="0.91 r13725"
   sodipodi:docname="AuntyLangButton_1.svg"
   style="enable-background:new">
  <defs
     id="defs2">
    <linearGradient
       inkscape:collect="always"
       id="linearGradient4504">
      <stop
         id="stop4508"
         offset="0"
         style="stop-color:#5f5f5f;stop-opacity:0;" />
      <stop
         id="stop4506"
         offset="1"
         style="stop-color:#5f5f5f;stop-opacity:1;" />
    </linearGradient>
    <linearGradient
       id="linearGradient4385"
       osb:paint="solid">
      <stop
         style="stop-color:#ffffff;stop-opacity:0.69040245;"
         offset="0"
         id="stop4387" />
    </linearGradient>
    <clipPath
       clipPathUnits="userSpaceOnUse"
       id="clipPath3571">
      <rect
         style="fill:#82ff9b;fill-opacity:1"
         id="rect3573"
         width="79.375"
         height="100.54167"
         x="0"
         y="196.45831" />
    </clipPath>
    <linearGradient
       inkscape:collect="always"
       xlink:href="#linearGradient4504"
       id="linearGradient4494"
       x1="22.408211"
       y1="94.420876"
       x2="28.490929"
       y2="94.420876"
       gradientUnits="userSpaceOnUse"
       gradientTransform="matrix(0.6062738,0,0,0.65610013,15.756823,-30.49085)" />
  </defs>
  <sodipodi:namedview
     id="base"
     pagecolor="#ffffff"
     bordercolor="#666666"
     borderopacity="1.0"
     inkscape:pageopacity="0.0"
     inkscape:pageshadow="2"
     inkscape:zoom="3.32516"
     inkscape:cx="26.134158"
     inkscape:cy="-1.4832761"
     inkscape:document-units="mm"
     inkscape:current-layer="layer2"
     showgrid="true"
     units="px"
     inkscape:snap-bbox="true"
     inkscape:snap-page="true"
     inkscape:bbox-nodes="true"
     inkscape:snap-bbox-edge-midpoints="true"
     inkscape:window-width="1223"
     inkscape:window-height="835"
     inkscape:window-x="181"
     inkscape:window-y="3"
     inkscape:window-maximized="0"
     inkscape:snap-global="false"
     showguides="true"
     fit-margin-top="0"
     fit-margin-left="0"
     fit-margin-right="0"
     fit-margin-bottom="0">
    <inkscape:grid
       type="xygrid"
       id="grid3371"
       originx="-27.03142"
       originy="-67.45507" />
  </sodipodi:namedview>
  <metadata
     id="metadata5">
    <rdf:RDF>
      <cc:Work
         rdf:about="">
        <dc:format>image/svg+xml</dc:format>
        <dc:type
           rdf:resource="http://purl.org/dc/dcmitype/StillImage" />
        <dc:title></dc:title>
      </cc:Work>
    </rdf:RDF>
  </metadata>
  <g
     inkscape:groupmode="layer"
     id="layer2"
     inkscape:label="Foreground"
     style="display:inline;opacity:1"
     transform="translate(-27.031421,-27.157643)">
    <path
       sodipodi:type="star"
       style="opacity:1;fill:#d8d8d8;fill-opacity:1;stroke:#000000;stroke-width:0.98080522;stroke-linecap:round;stroke-linejoin:round;stroke-miterlimit:4;stroke-dasharray:none;stroke-opacity:1"
       id="path4310"
       sodipodi:sides="6"
       sodipodi:cx="26.258137"
       sodipodi:cy="103.72447"
       sodipodi:r1="12.652648"
       sodipodi:r2="10.957514"
       sodipodi:arg1="1.0508702"
       sodipodi:arg2="1.574469"
       inkscape:flatsided="true"
       inkscape:rounded="0"
       inkscape:randomized="0"
       d="m 32.544175,114.70515 -12.652563,-0.0465 -6.286038,-10.98068 6.366524,-10.934203 12.652563,0.04647 6.286038,10.980674 z"
       transform="matrix(0.25900901,0,0,0.25843069,23.634471,3.3165347)" />
    <path
       style="opacity:0.73699999;fill:url(#linearGradient4494);fill-opacity:1;stroke:#000000;stroke-width:0;stroke-miterlimit:4;stroke-dasharray:none;stroke-opacity:1"
       d="m 30.384281,30.434696 2.54694,-0.01305 -1.176389,2.062771 -2.595274,-0.0092 z"
       id="rect4485"
       inkscape:connector-curvature="0"
       sodipodi:nodetypes="ccccc" />
    <path
       style="fill:#000000;fill-opacity:1;stroke:#000000;stroke-width:0.12301875;stroke-miterlimit:4;stroke-dasharray:none;stroke-opacity:1"
       inkscape:transform-center-x="-0.0077859914"
       inkscape:transform-center-y="-0.35123937"
       d="m 27.916977,30.415386 2.40279,0.0086 -1.15765,2.032594 z"
       id="path4480"
       inkscape:connector-curvature="0"
       sodipodi:nodetypes="cccc" />
    <path
       style="fill:none;fill-rule:evenodd;stroke:#000000;stroke-width:0.21656251;stroke-linecap:butt;stroke-linejoin:miter;stroke-miterlimit:4;stroke-dasharray:none;stroke-opacity:1"
       d="m 31.741635,32.493649 1.218201,-2.085708"
       id="path4483"
       inkscape:connector-curvature="0"
       sodipodi:nodetypes="cc" />
    <path
       style="fill-opacity:1"
       d="m 29.857084,30.050337 c -0.136789,-0.03503 -0.259777,-0.133601 -0.32411,-0.259704 -0.02542,-0.04986 -0.04902,-0.153462 -0.04888,-0.214689 3.44e-4,-0.151874 0.08595,-0.314108 0.209918,-0.39782 l 0.03903,-0.02637 -0.06794,-6.56e-4 c -0.129891,-0.0013 -0.235908,-0.0477 -0.332777,-0.144959 -0.191494,-0.192198 -0.190752,-0.488302 0.0017,-0.681464 0.06139,-0.06161 0.159195,-0.115317 0.240483,-0.132034 0.138797,-0.02854 0.291169,0.0081 0.400855,0.09644 l 0.03444,0.02775 -0.02121,-0.05616 c -0.02949,-0.07812 -0.03126,-0.212813 -0.0039,-0.29968 0.03868,-0.12296 0.131738,-0.230842 0.248054,-0.287556 0.07985,-0.03891 0.133934,-0.0517 0.217985,-0.05157 0.209294,4.59e-4 0.398123,0.138962 0.460681,0.337977 0.02767,0.08804 0.02607,0.222208 -0.0036,0.300802 l -0.02121,0.05616 0.03445,-0.02749 c 0.08576,-0.06854 0.160584,-0.09676 0.273403,-0.103106 0.145028,-0.0081 0.267467,0.03825 0.369005,0.139763 0.09327,0.09327 0.142068,0.211264 0.142328,0.344183 2.53e-4,0.13101 -0.04546,0.239418 -0.141691,0.336002 -0.09687,0.09723 -0.202887,0.143404 -0.332777,0.144959 l -0.06794,6.56e-4 0.03903,0.02638 c 0.135302,0.09136 0.22055,0.269874 0.207518,0.434555 -0.01005,0.127054 -0.07763,0.259815 -0.170947,0.335831 -0.05856,0.0477 -0.150641,0.09194 -0.218791,0.105101 -0.07028,0.01358 -0.185061,0.0059 -0.251024,-0.01726 -0.138357,-0.04816 -0.259967,-0.169903 -0.300942,-0.301327 -0.0087,-0.02788 -0.01769,-0.05072 -0.01999,-0.05072 -0.0023,0 -0.0113,0.02283 -0.01999,0.05072 -0.04094,0.131306 -0.162068,0.252671 -0.300942,0.301531 -0.06463,0.0227 -0.206923,0.02998 -0.270173,0.01378 z m 0.692101,-0.868591 c 0.0925,-0.03517 0.157986,-0.116248 0.176211,-0.218232 0.0083,-0.04652 0.0077,-0.06351 -0.0039,-0.108827 -0.0168,-0.06561 -0.03552,-0.09692 -0.08533,-0.142833 -0.05846,-0.05387 -0.103313,-0.07089 -0.187974,-0.07124 -0.06141,-2.3e-4 -0.07787,0.0026 -0.118978,0.02316 -0.06177,0.03031 -0.126136,0.100193 -0.146358,0.158842 -0.023,0.06671 -0.01952,0.150529 0.0088,0.212478 0.02821,0.06167 0.09117,0.122559 0.150155,0.145234 0.05842,0.02244 0.150352,0.02309 0.207346,0.0013 z"
       id="path3530"
       inkscape:connector-curvature="0" />
  </g>
</svg>
