<?xml version="1.0" encoding="UTF-8" standalone="no"?>
<!-- Created with Inkscape (http://www.inkscape.org/) -->

<svg
   xmlns:dc="http://purl.org/dc/elements/1.1/"
   xmlns:cc="http://creativecommons.org/ns#"
   xmlns:rdf="http://www.w3.org/1999/02/22-rdf-syntax-ns#"
   xmlns:svg="http://www.w3.org/2000/svg"
   xmlns="http://www.w3.org/2000/svg"
   xmlns:sodipodi="http://sodipodi.sourceforge.net/DTD/sodipodi-0.dtd"
   xmlns:inkscape="http://www.inkscape.org/namespaces/inkscape"
   width="20.641106"
   height="14"
   viewBox="0 0 5.4612924 3.7041668"
   version="1.1"
   id="svg56722"
   inkscape:version="0.91 r13725"
   sodipodi:docname="CKSS_Horizontal_1.svg">
  <defs
     id="defs56716" />
  <sodipodi:namedview
     id="base"
     pagecolor="#ffffff"
     bordercolor="#666666"
     borderopacity="1.0"
     inkscape:pageopacity="0.0"
     inkscape:pageshadow="2"
     inkscape:zoom="11.2"
     inkscape:cx="-3.1712708"
     inkscape:cy="-1.6467628"
     inkscape:document-units="mm"
     inkscape:current-layer="layer1"
     showgrid="false"
     fit-margin-top="0"
     fit-margin-left="0"
     fit-margin-right="0"
     fit-margin-bottom="0"
     inkscape:window-width="1440"
     inkscape:window-height="856"
     inkscape:window-x="0"
     inkscape:window-y="18"
     inkscape:window-maximized="0"
     units="px" />
  <metadata
     id="metadata56719">
    <rdf:RDF>
      <cc:Work
         rdf:about="">
        <dc:format>image/svg+xml</dc:format>
        <dc:type
           rdf:resource="http://purl.org/dc/dcmitype/StillImage" />
        <dc:title></dc:title>
      </cc:Work>
    </rdf:RDF>
  </metadata>
  <g
     inkscape:label="Layer 1"
     inkscape:groupmode="layer"
     id="layer1"
     transform="translate(-29.28931,-66.25302)">
    <g
       transform="matrix(0,0.27523902,0.27523902,0,-286.94414,-143.61888)"
       id="g56702"
       style="stroke-width:1.2817142">
      <g
         transform="translate(762.5078,1167.3652)"
         id="g5827"
         style="stroke-width:1.2817142">
        <path
           inkscape:connector-curvature="0"
           id="path5829"
           style="fill:#000000;fill-opacity:1;fill-rule:nonzero;stroke:none;stroke-width:1.2817142"
           d="m 0,0 c 0,0.779 0.639,1.418 1.418,1.418 l 10.622,0 c 0.779,0 1.418,-0.639 1.418,-1.418 l 0,-17.007 c 0,-0.779 -0.639,-1.417 -1.418,-1.417 l -10.622,0 C 0.639,-18.424 0,-17.786 0,-17.007 Z" />
      </g>
      <g
         style="fill:#282828;fill-opacity:1;stroke-width:1.2817142"
         id="g5839">
        <g
           style="fill:#282828;fill-opacity:1;stroke-width:1.2817142"
           id="g5841">
          <path
             inkscape:connector-curvature="0"
             id="path5849"
             style="fill:#282828;fill-opacity:1;stroke:none;stroke-width:1.2817142"
             d="m 764.617,1167.502 c -0.468,0 -0.852,-0.382 -0.852,-0.85 l 0,0 0,-15.724 c 0,-0.468 0.384,-0.851 0.852,-0.851 l 0,0 9.239,0 c 0.467,0 0.85,0.383 0.85,0.851 l 0,0 0,15.724 c 0,0.468 -0.383,0.85 -0.85,0.85 l 0,0 z" />
        </g>
      </g>
      <path
         inkscape:connector-curvature="0"
         id="path5859"
         style="fill:#444444;fill-opacity:1;fill-rule:nonzero;stroke:none;stroke-width:1.2817142"
         d="m 763.767,1167.503 10.94,0 0,-8.504 -10.94,0 z" />
      <path
         inkscape:connector-curvature="0"
         id="path5861"
         style="fill:#999999;fill-opacity:1;fill-rule:nonzero;stroke:none;stroke-width:1.2817142"
         d="m 763.767,1163.719 10.94,0 0,-0.936 -10.94,0 z" />
      <path
         inkscape:connector-curvature="0"
         id="path5863"
         style="fill:#999999;fill-opacity:1;fill-rule:nonzero;stroke:none;stroke-width:1.2817142"
         d="m 763.767,1159.935 10.94,0 0,-0.936 -10.94,0 z" />
      <path
         inkscape:connector-curvature="0"
         id="path5865"
         style="fill:#999999;fill-opacity:1;fill-rule:nonzero;stroke:none;stroke-width:1.2817142"
         d="m 763.767,1161.826 10.94,0 0,-0.936 -10.94,0 z" />
      <path
         inkscape:connector-curvature="0"
         id="path5867"
         style="fill:#999999;fill-opacity:1;fill-rule:nonzero;stroke:none;stroke-width:1.2817142"
         d="m 763.767,1165.611 10.94,0 0,-0.936 -10.94,0 z" />
      <path
         inkscape:connector-curvature="0"
         id="path5869"
         style="fill:#999999;fill-opacity:1;fill-rule:nonzero;stroke:none;stroke-width:1.2817142"
         d="m 763.767,1167.503 10.94,0 0,-0.936 -10.94,0 z" />
    </g>
  </g>
</svg>
