<?xml version="1.0" encoding="UTF-8" standalone="no"?>
<!-- Created with Inkscape (http://www.inkscape.org/) -->

<svg
   xmlns:osb="http://www.openswatchbook.org/uri/2009/osb"
   xmlns:dc="http://purl.org/dc/elements/1.1/"
   xmlns:cc="http://creativecommons.org/ns#"
   xmlns:rdf="http://www.w3.org/1999/02/22-rdf-syntax-ns#"
   xmlns:svg="http://www.w3.org/2000/svg"
   xmlns="http://www.w3.org/2000/svg"
   xmlns:xlink="http://www.w3.org/1999/xlink"
   xmlns:sodipodi="http://sodipodi.sourceforge.net/DTD/sodipodi-0.dtd"
   xmlns:inkscape="http://www.inkscape.org/namespaces/inkscape"
   width="200"
   height="380"
   viewBox="0 0 52.916668 100.54167"
   version="1.1"
   id="svg8"
   inkscape:version="0.91 r13725"
   sodipodi:docname="MusicalAnt.svg"
   enable-background="new">
  <defs
     id="defs2">
    <linearGradient
       inkscape:collect="always"
       id="linearGradient4504">
      <stop
         id="stop4508"
         offset="0"
         style="stop-color:#5f5f5f;stop-opacity:0;" />
      <stop
         id="stop4506"
         offset="1"
         style="stop-color:#5f5f5f;stop-opacity:1;" />
    </linearGradient>
    <linearGradient
       id="linearGradient4319"
       inkscape:collect="always">
      <stop
         id="stop4498"
         offset="0"
         style="stop-color:#5f5f5f;stop-opacity:1;" />
      <stop
         id="stop4500"
         offset="1"
         style="stop-color:#5f5f5f;stop-opacity:0;" />
    </linearGradient>
    <linearGradient
       id="linearGradient4385"
       osb:paint="solid">
      <stop
         style="stop-color:#ffffff;stop-opacity:0.69040245;"
         offset="0"
         id="stop4387" />
    </linearGradient>
    <clipPath
       clipPathUnits="userSpaceOnUse"
       id="clipPath3571">
      <rect
         style="fill:#82ff9b;fill-opacity:1"
         id="rect3573"
         width="79.375"
         height="100.54167"
         x="0"
         y="196.45831" />
    </clipPath>
    <linearGradient
       inkscape:collect="always"
       xlink:href="#linearGradient4319"
       id="linearGradient4325"
       x1="6.4611001"
       y1="23.691019"
       x2="43.88636"
       y2="23.691019"
       gradientUnits="userSpaceOnUse" />
    <linearGradient
       inkscape:collect="always"
       xlink:href="#linearGradient4319"
       id="linearGradient3362"
       gradientUnits="userSpaceOnUse"
       x1="6.4611001"
       y1="23.691019"
       x2="43.88636"
       y2="23.691019" />
    <linearGradient
       inkscape:collect="always"
       xlink:href="#linearGradient4504"
       id="linearGradient4494"
       x1="22.408211"
       y1="94.420876"
       x2="28.490929"
       y2="94.420876"
       gradientUnits="userSpaceOnUse"
       gradientTransform="matrix(0.92405701,0,0,1.0000002,2.1512976,-1.5145552e-5)" />
    <filter
       inkscape:collect="always"
       style="color-interpolation-filters:sRGB"
       id="filter4468">
      <feBlend
         inkscape:collect="always"
         mode="lighten"
         in2="BackgroundImage"
         id="feBlend4470" />
    </filter>
  </defs>
  <sodipodi:namedview
     id="base"
     pagecolor="#ffffff"
     bordercolor="#666666"
     borderopacity="1.0"
     inkscape:pageopacity="0.0"
     inkscape:pageshadow="2"
     inkscape:zoom="1.1756216"
     inkscape:cx="11.414367"
     inkscape:cy="220.73521"
     inkscape:document-units="mm"
     inkscape:current-layer="layer1"
     showgrid="true"
     units="px"
     inkscape:snap-bbox="true"
     inkscape:snap-page="true"
     inkscape:bbox-nodes="true"
     inkscape:snap-bbox-edge-midpoints="true"
     inkscape:window-width="1223"
     inkscape:window-height="835"
     inkscape:window-x="181"
     inkscape:window-y="3"
     inkscape:window-maximized="0"
     inkscape:snap-global="false"
     showguides="true">
    <inkscape:grid
       type="xygrid"
       id="grid3371" />
  </sodipodi:namedview>
  <metadata
     id="metadata5">
    <rdf:RDF>
      <cc:Work
         rdf:about="">
        <dc:format>image/svg+xml</dc:format>
        <dc:type
           rdf:resource="http://purl.org/dc/dcmitype/StillImage" />
        <dc:title></dc:title>
      </cc:Work>
    </rdf:RDF>
  </metadata>
  <g
     inkscape:label="Background"
     inkscape:groupmode="layer"
     id="layer1"
     transform="translate(0,-196.45832)"
     style="display:inline;opacity:1;filter:url(#filter4468)">
    <path
       style="opacity:1;fill:#c0c0c0;fill-opacity:1;fill-rule:evenodd;stroke:none;stroke-width:0.48607069;stroke-linecap:butt;stroke-linejoin:round;stroke-miterlimit:4;stroke-dasharray:none;stroke-dashoffset:0;stroke-opacity:1;paint-order:normal"
       d="m 0,296.99999 52.985734,0 0,-100.54168 -52.985734,0 z"
       id="rect817"
       inkscape:connector-curvature="0" />
    <rect
       style="opacity:1;fill:none;fill-opacity:1;stroke:#aaaaaa;stroke-width:3.09843946;stroke-linejoin:miter;stroke-miterlimit:4;stroke-dasharray:none;stroke-opacity:1"
       id="rect4454"
       width="49.245514"
       height="98.758324"
       x="1.7090607"
       y="197.6579" />
  </g>
  <g
     inkscape:groupmode="layer"
     id="layer3"
     inkscape:label="Midground"
     style="display:inline">
    <path
       style="display:inline;opacity:1;fill:#000000"
       d="m 0.428697,50.42891 0,-50.11991 25.662191,0 25.662191,0 -0.01902,0.59018 c -0.01549,0.48088 -0.04199,0.51665 -0.143098,0.19311 L 51.466887,0.69522 26.263574,0.57016 C 1.7356029,0.44846 1.0559455,0.45423 0.89929549,0.78564 0.81076523,0.97293 0.70367144,23.45541 0.66130909,50.7467 l -0.0770254,49.62053 25.48859131,0 25.48859,0 0.04852,-41.5396 0.04851,-41.5396 0.0473,41.63039 0.04729,41.6304 -25.66219,0 -25.66219166,0 0,-50.11991 z M 1.5665413,97.23473 C 1.5152262,79.43569 1.5986812,1.85882 1.6692346,1.79168 c 0.052271,-0.0497 0.1407775,-0.0469 0.1966694,0.006 0.1299134,0.12365 0.2166607,93.49418 0.089172,95.9815 -0.052471,1.02369 -0.1597927,1.86129 -0.238497,1.86133 -0.078706,5e-5 -0.1462189,-1.08267 -0.1500349,-2.40604 z m 1.2454546,1.16184 C 2.7412327,98.1321 2.7126542,76.3181 2.7484929,49.92102 l 0.065163,-47.9947 1.4309774,0.0953 C 7.828645,2.26023 11.262238,2.30435 29.16445,2.34185 c 17.73021,0.0371 19.136179,0.0178 19.597675,-0.27003 1.020737,-0.63655 0.991277,-0.83876 0.940291,6.45423 -0.151338,21.64751 0.0097,90.39259 -0.101783,90.28751 0,0 -0.306367,-0.003 -23.350856,0.0304 L 2.9406517,98.87746 2.8119886,98.39659 Z M 47.720374,44.17389 c 0.365528,-0.3454 0.613183,-12.88899 0.564111,-28.572 C 48.252703,5.44399 48.20167,3.3481 47.981907,3.17451 47.672771,2.93032 47.483415,2.92887 25.99549,3.00618 17.338078,3.03728 9.0527198,3.11738 7.5835837,3.18406 L 4.9124254,3.3053 4.7659513,5.66602 c -0.080556,1.2984 -0.08582,2.64673 -0.011684,2.9963 C 4.8858234,9.28266 4.8923155,9.27395 5.024969,8.29913 5.0997249,7.74981 5.1693745,6.51363 5.1797521,5.55206 5.1929591,4.32831 5.2755425,3.743 5.4549871,3.60125 5.8453555,3.2929 47.066117,3.4024 47.392083,3.71266 c 0.38142,0.36303 0.576752,6.32735 0.602196,18.38761 0.02297,10.88799 -0.273109,21.52467 -0.608029,21.84343 -0.221791,0.2111 -1.018808,-0.0201 -0.868304,-0.25191 0.131195,-0.20204 -0.473582,-0.72429 -1.49046,-1.28709 -0.393518,-0.21779 -0.716803,-0.44223 -0.71841,-0.49874 -0.0016,-0.0565 -0.07432,-0.20992 -0.161594,-0.34089 -0.127417,-0.19123 -0.32415,-0.16737 -0.998761,0.12116 -0.703869,0.30104 -1.598067,0.39477 -5.514617,0.57804 -7.339417,0.34344 -12.822308,0.4036 -18.579035,0.20385 -3.301347,-0.11456 -5.495905,-0.12041 -5.78599,-0.0154 -0.339742,0.12294 -0.579193,0.0945 -0.877007,-0.10399 -0.45899,-0.30598 -1.660339,-0.37219 -1.660339,-0.0915 0,0.0999 -0.171717,0.18159 -0.381594,0.18159 -0.209877,0 -0.3815942,-0.1145 -0.3815942,-0.25445 0,-0.13995 -0.3091857,-0.42808 -0.6870795,-0.64029 L 8.5943849,41.15824 7.8734872,41.93773 c -0.396495,0.42871 -0.9458953,0.89408 -1.2208897,1.03416 -0.5662612,0.28843 -0.7098954,0.85413 -0.1660972,0.65416 0.1836424,-0.0675 2.4374312,-0.11205 5.0084217,-0.0989 9.024033,0.046 25.318835,0.0652 29.068022,0.0342 3.960415,-0.0328 5.800744,0.0979 4.893835,0.34759 -0.262347,0.0722 -9.333941,0.1358 -20.159095,0.14129 C 9.7376222,44.05823 5.5739797,44.01253 5.4169483,43.83242 5.3077007,43.70713 5.1407203,42.3413 5.0458796,40.79723 l -0.1724364,-2.80739 -0.028211,3.03098 c -0.020941,2.24996 0.033244,3.06884 0.2102873,3.17789 0.3213452,0.19795 16.2575885,0.34076 30.6706105,0.27485 9.555909,-0.0437 11.782318,-0.0993 11.99424,-0.29956 z M 4.8793564,24.97424 C 4.854676,18.54954 4.8158323,12.88438 4.793043,12.38499 4.6784896,9.87495 4.477856,17.38812 4.4579729,24.93247 4.4363289,33.14607 4.5456199,36.87822 4.803365,36.72661 4.869841,36.68751 4.9040415,31.39894 4.87936,24.97424 Z M 6.6644806,12.92862 c 0.06426,-0.655 0.1900291,-1.23395 0.2794776,-1.28657 0.089445,-0.0526 0.1626327,-0.29848 0.1626327,-0.54636 0,-0.59854 0.7030402,-2.67094 1.2754862,-3.75985 0.6029337,-1.14689 1.3311608,-1.43559 4.6152449,-1.82966 1.40348,-0.16842 2.777218,-0.4228 3.052751,-0.5653 l 0.500968,-0.25909 -0.693236,-0.007 C 15.315202,4.66879 15.141559,4.58379 15.058673,4.2821 14.956105,3.90882 14.881834,3.90007 12.699156,4.00404 11.459666,4.06304 9.4521241,4.11395 8.2379523,4.11707 l -2.2075857,0.006 0.03274,1.04417 c 0.018008,0.57429 -0.03545,1.94305 -0.1187794,3.04169 -0.2844022,3.74946 -0.3050059,4.35845 -0.1628091,4.81224 0.078244,0.24969 0.1508145,0.34702 0.1612752,0.21628 0.010506,-0.13074 0.1050575,-0.1871 0.2102284,-0.12524 0.1079521,0.0635 0.1442268,0.44376 0.083308,0.87329 -0.084411,0.59516 -0.062264,0.69264 0.1017057,0.44772 0.1152828,-0.1722 0.2621851,-0.849 0.3264499,-1.504 z M 45.704091,6.39239 c 0.481017,-0.34956 0.954854,-0.63557 1.052972,-0.63557 0.222773,0 0.443649,-0.99349 0.300058,-1.34963 -0.148539,-0.36842 -0.312304,-0.38221 -3.818596,-0.32167 -3.078529,0.0532 -3.118006,0.0589 -3.093871,0.45398 0.01345,0.22008 -0.0093,0.51555 -0.05056,0.6566 -0.09484,0.32418 1.186842,0.62265 2.098509,0.48869 0.553331,-0.0813 0.771593,0.009 1.505539,0.62405 0.472113,0.39552 0.919811,0.71913 0.994886,0.71913 0.07507,0 0.530057,-0.28601 1.011073,-0.63558 z"
       id="path3436"
       inkscape:connector-curvature="0"
       sodipodi:nodetypes="cccccscsssccccccccccccccsccccsccscsssccccscsscssssccscccccsssccsssscscccccscscscscccsscccccssssccccccsssccsscccsscccccsc" />
  </g>
  <g
     inkscape:groupmode="layer"
     id="layer2"
     inkscape:label="Foreground"
     style="display:inline;opacity:1">
    <rect
       style="display:inline;opacity:1;fill:#d8d8d8;fill-opacity:1"
       id="rect3348"
       width="41.627159"
       height="51.792706"
       x="5.2908826"
       y="45.600136" />
    <path
       style="fill:#1a1a1a;fill-opacity:1;stroke:url(#linearGradient4325);stroke-width:0.25031251;stroke-miterlimit:4;stroke-dasharray:none;stroke-opacity:1"
       d="m 8.9469681,6.6743245 c 0,0 -0.00311,-1.4206565 16.1186289,-1.3939662 16.446629,0.027228 16.333085,1.3939662 16.333085,1.3939662 0,0 2.467799,-0.031855 2.35902,16.4793425 -0.114165,17.328675 -2.35902,17.337167 -2.35902,17.337167 0,0 0.0322,1.527262 -16.333085,1.608423 -16.2384639,0.08053 -16.1186289,-1.608423 -16.1186289,-1.608423 0,0 -2.2802101,-0.01458 -2.3590196,-17.337167 C 6.5131905,6.7215966 8.9469681,6.6743245 8.9469681,6.6743245 Z"
       id="rect3373"
       inkscape:connector-curvature="0"
       sodipodi:nodetypes="cscscscsc" />
    <text
       xml:space="preserve"
       style="font-style:normal;font-variant:normal;font-weight:normal;font-stretch:normal;font-size:1.984375px;line-height:125%;font-family:sans-serif;-inkscape-font-specification:'sans-serif, Normal';text-align:start;letter-spacing:0px;word-spacing:0px;writing-mode:lr-tb;text-anchor:start;fill:#000000;fill-opacity:1;stroke:none;stroke-width:1px;stroke-linecap:butt;stroke-linejoin:miter;stroke-opacity:1"
       x="52.250988"
       y="5.2423697"
       id="text4192"
       sodipodi:linespacing="125%"><tspan
         sodipodi:role="line"
         id="tspan4194"
         x="52.250988"
         y="5.2423697">CLK</tspan></text>
    <rect
       style="fill:#e8e8e8;fill-opacity:1;stroke:#000000;stroke-width:0.16962722;stroke-linecap:butt;stroke-linejoin:round;stroke-miterlimit:4;stroke-dasharray:none;stroke-dashoffset:0;stroke-opacity:1"
       id="rect4203"
       width="16.546701"
       height="8.9741554"
       x="29.985802"
       y="-54.962444"
       transform="scale(1,-1)" />
    <text
       sodipodi:linespacing="125%"
       id="text4298"
       y="7.3627295"
       x="52.349613"
       style="font-style:normal;font-variant:normal;font-weight:bold;font-stretch:normal;font-size:1.65364587px;line-height:125%;font-family:'Bangla MN';-inkscape-font-specification:'Bangla MN, Bold';text-align:start;letter-spacing:0px;word-spacing:0px;writing-mode:lr-tb;text-anchor:start;fill:#000000;fill-opacity:1;stroke:none;stroke-width:1px;stroke-linecap:butt;stroke-linejoin:miter;stroke-opacity:1"
       xml:space="preserve"><tspan
         y="7.3627295"
         x="52.349613"
         id="tspan4300"
         sodipodi:role="line">CLK</tspan></text>
    <g
       style="font-style:normal;font-variant:normal;font-weight:bold;font-stretch:normal;font-size:1.65364587px;line-height:125%;font-family:'Bangla MN';-inkscape-font-specification:'Bangla MN, Bold';text-align:start;letter-spacing:0px;word-spacing:0px;writing-mode:lr-tb;text-anchor:start;fill:#000000;fill-opacity:1;stroke:none;stroke-width:1px;stroke-linecap:butt;stroke-linejoin:miter;stroke-opacity:1"
       id="text4302"
       transform="translate(-20.571419,24.951218)">
      <path
         d="m 52.811715,22.043333 q 0,0.126779 0.03858,0.224161 0.03859,0.09738 0.101975,0.163527 0.06431,0.06615 0.146991,0.100137 0.0836,0.03399 0.172714,0.03399 0.0689,0 0.127698,-0.02389 0.05971,-0.02389 0.111162,-0.06339 0.05237,-0.04042 0.09738,-0.09279 0.04502,-0.05328 0.08636,-0.11208 l 0.13413,0.0983 q -0.04318,0.06982 -0.104731,0.134129 -0.06063,0.06431 -0.136885,0.113918 -0.07625,0.04961 -0.166284,0.07901 -0.09003,0.0294 -0.190169,0.0294 -0.169039,0 -0.311437,-0.04869 -0.141478,-0.04961 -0.24529,-0.139641 -0.102894,-0.09003 -0.160772,-0.215893 -0.05788,-0.125861 -0.05788,-0.280201 0,-0.09922 0.0248,-0.188332 0.02481,-0.09003 0.07074,-0.166283 0.04685,-0.07625 0.113918,-0.136885 0.06706,-0.06155 0.150665,-0.104731 0.08452,-0.04318 0.184657,-0.06615 0.100138,-0.02297 0.212218,-0.02297 0.112999,0 0.206706,0.02664 0.09463,0.02572 0.170877,0.0735 0.07717,0.04685 0.136885,0.11208 0.06063,0.06523 0.106568,0.142398 l -0.135966,0.09463 q -0.04134,-0.0588 -0.09003,-0.110243 -0.04777,-0.05236 -0.102894,-0.09095 -0.05512,-0.0395 -0.115755,-0.06247 -0.06063,-0.02297 -0.12678,-0.02297 -0.09003,0 -0.171795,0.03399 -0.08176,0.03399 -0.144235,0.100137 -0.06155,0.06615 -0.0983,0.163527 -0.03583,0.09738 -0.03583,0.22508 z"
         id="path4307"
         inkscape:connector-curvature="0" />
      <path
         d="m 54.096205,21.390143 0.320623,0 0,1.174088 0.66789,0 0,0.134129 -0.988513,0 0,-1.308217 z"
         id="path4309"
         inkscape:connector-curvature="0" />
      <path
         d="m 55.291222,21.390143 0.322461,0 0,0.4915 0.579695,-0.4915 0.248966,0 -0.654109,0.553052 0.829579,0.755165 -0.388607,0 -0.615524,-0.560402 0,0.560402 -0.322461,0 0,-1.308217 z"
         id="path4311"
         inkscape:connector-curvature="0" />
    </g>
    <path
       style="color:#000000;font-style:normal;font-variant:normal;font-weight:normal;font-stretch:normal;font-size:medium;line-height:normal;font-family:sans-serif;text-indent:0;text-align:start;text-decoration:none;text-decoration-line:none;text-decoration-style:solid;text-decoration-color:#000000;letter-spacing:normal;word-spacing:normal;text-transform:none;direction:ltr;block-progression:tb;writing-mode:lr-tb;baseline-shift:baseline;text-anchor:start;white-space:normal;clip-rule:nonzero;display:inline;overflow:visible;visibility:visible;opacity:1;isolation:auto;mix-blend-mode:normal;color-interpolation:sRGB;color-interpolation-filters:linearRGB;solid-color:#000000;solid-opacity:1;fill:url(#linearGradient3362);fill-opacity:1;fill-rule:nonzero;stroke:none;stroke-width:0.25031251;stroke-linecap:butt;stroke-linejoin:miter;stroke-miterlimit:4;stroke-dasharray:none;stroke-dashoffset:0;stroke-opacity:1;color-rendering:auto;image-rendering:auto;shape-rendering:auto;text-rendering:auto;enable-background:accumulate"
       d="M 25.066406,5.1542969 C 17.001861,5.1409456 12.967961,5.4894652 10.939453,5.84375 9.9251993,6.0208924 9.4126286,6.1982664 9.140625,6.3417969 9.0046232,6.4135621 8.9269917,6.4781658 8.8808594,6.5351562 c -0.00958,0.01183 -0.012553,0.021981 -0.019531,0.033203 -0.022515,0.00709 -0.044597,0.01245 -0.074219,0.027344 C 8.7042353,6.6373713 8.595082,6.7146066 8.4726562,6.8554688 8.2278047,7.1371931 7.9218295,7.6730592 7.6191406,8.7167969 7.0137628,10.804272 6.4254835,14.932082 6.4628906,23.154297 c 0.03943,8.666785 0.6277097,13.006606 1.2128906,15.195312 0.2925905,1.094354 0.5848065,1.652279 0.8164063,1.945313 0.1157999,0.146517 0.2170021,0.227739 0.296875,0.271484 0.023936,0.01311 0.041021,0.01816 0.060547,0.02539 0.00589,0.01296 0.00883,0.02296 0.017578,0.03711 0.040976,0.06631 0.1136177,0.144654 0.2460937,0.230469 0.2649521,0.171631 0.7690227,0.380074 1.7773438,0.587891 2.016642,0.415633 6.052212,0.81763 14.175781,0.777343 8.186536,-0.0406 12.273696,-0.44307 14.326172,-0.83789 1.026238,-0.19741 1.544798,-0.390495 1.81836,-0.546875 0.13678,-0.07819 0.212809,-0.148292 0.257812,-0.208985 0.0099,-0.01336 0.01262,-0.02467 0.01953,-0.03711 0.0211,-0.0074 0.04178,-0.01264 0.06836,-0.02734 0.07909,-0.04375 0.178633,-0.125194 0.292968,-0.271484 0.228671,-0.29258 0.516314,-0.847562 0.806641,-1.941406 C 43.236904,36.165831 43.825693,31.824041 43.882811,23.1543 43.937243,14.892464 43.34815,10.76564 42.738281,8.6875 42.433347,7.6484302 42.123521,7.1196978 41.875,6.84375 41.750739,6.7057761 41.640972,6.6311346 41.556641,6.5917969 c -0.02819,-0.013151 -0.04845,-0.019017 -0.07031,-0.025391 -0.0058,-0.00944 -0.0081,-0.017648 -0.01563,-0.027344 C 41.426045,6.4814654 41.350481,6.4193766 41.216797,6.3496094 40.949429,6.210075 40.440474,6.036988 39.419922,5.8632812 37.378817,5.5158677 33.293188,5.1679166 25.066406,5.1542969 Z m -0.002,0.2519531 c 8.219847,0.013608 12.300673,0.3623156 14.314453,0.7050781 1.00689,0.1713813 1.497357,0.3433576 1.722656,0.4609375 0.111186,0.058026 0.155903,0.099452 0.169922,0.1171875 l -0.0098,0.1113281 0.138672,-0.00195 c 0,0 0,0.00195 0,0.00195 0.0087,0.00184 0.02568,0.00587 0.05078,0.017578 0.0502,0.023417 0.132885,0.076332 0.238281,0.1933594 0.210792,0.2340543 0.510176,0.7292276 0.808594,1.7460937 0.596836,2.0337327 1.189114,6.1451667 1.134765,14.3945317 -0.05705,8.658933 -0.648436,12.987992 -1.21875,15.136718 -0.285156,1.074364 -0.56591,1.602983 -0.761718,1.853516 -0.0979,0.125267 -0.172678,0.180674 -0.216797,0.205078 -0.02206,0.0122 -0.03684,0.01598 -0.04297,0.01758 l -0.121094,0 0.002,0.109375 c -0.001,0.002 -8.73e-4,0.0011 -0.0059,0.0078 -0.01716,0.02315 -0.06573,0.07437 -0.18164,0.140625 -0.231817,0.132517 -0.728862,0.324981 -1.740235,0.519531 -2.022745,0.389101 -6.102501,0.79147 -14.28125,0.832031 -8.114894,0.04024 -12.13999,-0.362773 -14.123047,-0.771484 C 9.9498781,40.99877 9.4700309,40.790969 9.25,40.648438 9.1399845,40.577172 9.0959804,40.523783 9.0800781,40.498047 c -0.00541,-0.0087 -0.005,-0.01126 -0.00586,-0.01367 l 0.00781,-0.117187 -0.1289062,-0.002 c -0.00652,-0.0017 -0.022355,-0.0072 -0.044922,-0.01953 C 8.8630692,40.320984 8.7867012,40.26614 8.6875,40.140625 8.4890976,39.889594 8.205282,39.359771 7.9179688,38.285156 7.3433422,36.135926 6.7522704,31.808146 6.7128906,23.152344 6.6755397,14.942488 7.2665535,10.831288 7.859375,8.7871094 8.1557857,7.7650203 8.4529638,7.2621257 8.6621094,7.0214844 8.7666822,6.9011637 8.8485064,6.8454173 8.8984375,6.8203125 c 0.024966,-0.012552 0.042172,-0.017424 0.050781,-0.019531 0,0 0,-0.00195 0,-0.00195 l 0.1230468,-0.00195 0,-0.099609 c 0.00102,-0.00173 -2.62e-4,-7.1e-4 0.00391,-0.00586 C 9.092845,6.6708088 9.1402505,6.6235043 9.2558594,6.5625 9.487077,6.4404914 9.9822359,6.2645292 10.982422,6.0898438 12.982794,5.7404729 17.00726,5.3929109 25.064453,5.40625 Z"
       id="path3358"
       inkscape:connector-curvature="0" />
    <rect
       y="-54.946499"
       x="5.7535625"
       height="8.942277"
       width="23.75425"
       id="rect3557"
       style="fill:#000000;fill-opacity:1;stroke:#000000;stroke-width:0.20287931;stroke-linecap:butt;stroke-linejoin:round;stroke-miterlimit:4;stroke-dasharray:none;stroke-dashoffset:0;stroke-opacity:1"
       transform="scale(1,-1)" />
    <g
       style="font-style:normal;font-variant:normal;font-weight:bold;font-stretch:normal;font-size:1.65364587px;line-height:125%;font-family:'Bangla MN';-inkscape-font-specification:'Bangla MN, Bold';text-align:start;letter-spacing:0px;word-spacing:0px;writing-mode:lr-tb;text-anchor:start;fill:#e8e8e8;fill-opacity:1;stroke:none;stroke-width:1px;stroke-linecap:butt;stroke-linejoin:miter;stroke-opacity:1"
       id="text4359"
       transform="translate(-45.264081,35.455311)">
      <path
         d="m 52.891286,11.481909 q 0,0.126779 0.03858,0.224161 0.03859,0.09738 0.101975,0.163527 0.06431,0.06615 0.146991,0.100137 0.0836,0.03399 0.172714,0.03399 0.0689,0 0.127698,-0.02389 0.05971,-0.02389 0.111162,-0.06339 0.05236,-0.04042 0.09738,-0.09279 0.04502,-0.05328 0.08636,-0.11208 l 0.134129,0.0983 q -0.04318,0.06982 -0.104731,0.134129 -0.06063,0.06431 -0.136885,0.113918 -0.07625,0.04961 -0.166283,0.07901 -0.09003,0.0294 -0.190169,0.0294 -0.16904,0 -0.311437,-0.04869 -0.141478,-0.04961 -0.245291,-0.139642 -0.102893,-0.09003 -0.160771,-0.215892 -0.05788,-0.125861 -0.05788,-0.280201 0,-0.09922 0.0248,-0.188332 0.02481,-0.09003 0.07074,-0.166283 0.04685,-0.07625 0.113917,-0.136886 0.06706,-0.06155 0.150666,-0.104731 0.08452,-0.04318 0.184657,-0.06614 0.100137,-0.02297 0.212218,-0.02297 0.112999,0 0.206706,0.02664 0.09463,0.02572 0.170876,0.0735 0.07717,0.04685 0.136885,0.11208 0.06063,0.06523 0.106569,0.142398 l -0.135967,0.09463 q -0.04134,-0.0588 -0.09003,-0.110243 -0.04777,-0.05237 -0.102894,-0.09095 -0.05512,-0.0395 -0.115755,-0.06247 -0.06063,-0.02297 -0.12678,-0.02297 -0.09003,0 -0.171795,0.03399 -0.08176,0.03399 -0.144235,0.100138 -0.06155,0.06615 -0.0983,0.163527 -0.03583,0.09738 -0.03583,0.22508 z"
         id="path4366"
         inkscape:connector-curvature="0"
         style="fill:#e8e8e8;fill-opacity:1" />
      <path
         d="m 54.175776,10.828719 0.320623,0 0,1.174088 0.667889,0 0,0.134129 -0.988512,0 0,-1.308217 z"
         id="path4368"
         inkscape:connector-curvature="0"
         style="fill:#e8e8e8;fill-opacity:1" />
      <path
         d="m 55.370793,10.828719 0.322461,0 0,0.4915 0.579695,-0.4915 0.248965,0 -0.654108,0.553052 0.829579,0.755165 -0.388607,0 -0.615524,-0.560402 0,0.560402 -0.322461,0 0,-1.308217 z"
         id="path4370"
         inkscape:connector-curvature="0"
         style="fill:#e8e8e8;fill-opacity:1" />
    </g>
    <g
       style="font-style:normal;font-variant:normal;font-weight:bold;font-stretch:normal;font-size:1.65364587px;line-height:125%;font-family:'Bangla MN';-inkscape-font-specification:'Bangla MN, Bold';text-align:start;letter-spacing:0px;word-spacing:0px;writing-mode:lr-tb;text-anchor:start;fill:#e8e8e8;fill-opacity:1;stroke:none;stroke-width:1px;stroke-linecap:butt;stroke-linejoin:miter;stroke-opacity:1"
       id="text4372"
       transform="translate(1.1252913,0)">
      <path
         d="m 13.429669,46.953401 0.543865,0 0,0.504362 q -0.06339,0.03307 -0.125861,0.06155 -0.06247,0.02848 -0.134129,0.04961 -0.07166,0.02021 -0.156177,0.03124 -0.0836,0.01194 -0.189251,0.01194 -0.169039,0 -0.311436,-0.04685 -0.142398,-0.04777 -0.24621,-0.134129 -0.102893,-0.08636 -0.160771,-0.207624 -0.05788,-0.121268 -0.05788,-0.270096 0,-0.103812 0.02572,-0.1966 0.02664,-0.09279 0.07441,-0.170877 0.04869,-0.07809 0.117592,-0.139641 0.06982,-0.06247 0.155259,-0.105649 0.08636,-0.04318 0.187414,-0.06615 0.101056,-0.02297 0.214055,-0.02297 0.100137,0 0.192006,0.02664 0.09187,0.02664 0.169959,0.07166 0.07901,0.0441 0.141478,0.101975 0.06247,0.05696 0.103812,0.117593 l -0.132291,0.121267 q -0.04134,-0.0588 -0.08728,-0.109324 -0.04502,-0.05053 -0.09646,-0.08728 -0.05053,-0.03767 -0.109324,-0.0588 -0.05788,-0.02113 -0.124942,-0.02113 -0.101975,0 -0.189251,0.03675 -0.08728,0.03583 -0.150665,0.105649 -0.06339,0.0689 -0.100138,0.16904 -0.03583,0.100137 -0.03583,0.227835 0,0.12678 0.03858,0.22508 0.03859,0.09738 0.104731,0.164446 0.06615,0.06615 0.155259,0.101056 0.09003,0.03399 0.192007,0.03399 0.06063,0 0.114836,-0.01562 0.0542,-0.01654 0.09922,-0.04869 l 0,-0.348184 -0.222323,0 0,-0.112081 z"
         id="path4391"
         inkscape:connector-curvature="0"
         style="fill:#e8e8e8;fill-opacity:1" />
      <path
         d="m 14.91472,46.255195 0.612768,1.336697 -0.327973,0 -0.163528,-0.357371 -0.508036,0 -0.171796,0.357371 -0.218648,0 0.638491,-1.336697 0.138722,0 z m -0.327054,0.85714 0.394119,0 -0.193844,-0.422598 -0.200275,0.422598 z"
         id="path4393"
         inkscape:connector-curvature="0"
         style="fill:#e8e8e8;fill-opacity:1" />
      <path
         d="m 16.688327,46.283675 0,0.111161 -0.452915,0 0,1.197056 -0.320624,0 0,-1.197056 -0.452915,0 0,-0.111161 1.226454,0 z"
         id="path4395"
         inkscape:connector-curvature="0"
         style="fill:#e8e8e8;fill-opacity:1" />
      <path
         d="m 17.893278,46.283675 0,0.111161 -0.655946,0 0,0.431786 0.544784,0 0,0.11208 -0.544784,0 0,0.519061 0.655946,0 0,0.134129 -0.97657,0 0,-1.308217 0.97657,0 z"
         id="path4397"
         inkscape:connector-curvature="0"
         style="fill:#e8e8e8;fill-opacity:1" />
    </g>
    <g
       style="font-style:normal;font-variant:normal;font-weight:bold;font-stretch:normal;font-size:1.65364587px;line-height:125%;font-family:'Bangla MN';-inkscape-font-specification:'Bangla MN, Bold';text-align:start;letter-spacing:0px;word-spacing:0px;writing-mode:lr-tb;text-anchor:start;fill:#e8e8e8;fill-opacity:1;stroke:none;stroke-width:1px;stroke-linecap:butt;stroke-linejoin:miter;stroke-opacity:1"
       id="text4378"
       transform="translate(1.1252913,0)">
      <path
         d="m 19.125409,47.591896 -0.225079,0 0.555808,-0.645841 -0.500687,-0.662377 0.354615,0 0.331648,0.441891 0.382176,-0.441891 0.225998,0 -0.500687,0.58337 0.544785,0.724848 -0.353697,0 -0.381257,-0.505281 -0.433623,0.505281 z"
         id="path4400"
         inkscape:connector-curvature="0"
         style="fill:#e8e8e8;fill-opacity:1" />
    </g>
    <g
       style="font-style:normal;font-variant:normal;font-weight:bold;font-stretch:normal;font-size:1.65364587px;line-height:125%;font-family:'Bangla MN';-inkscape-font-specification:'Bangla MN, Bold';text-align:start;letter-spacing:0px;word-spacing:0px;writing-mode:lr-tb;text-anchor:start;fill:#e8e8e8;fill-opacity:1;stroke:none;stroke-width:1px;stroke-linecap:butt;stroke-linejoin:miter;stroke-opacity:1"
       id="text4384"
       transform="translate(1.1252913,0)">
      <path
         d="m 23.878398,46.311808 0.430866,0.588882 0.403306,-0.588882 0.216811,0 -0.509874,0.742303 0,0.565915 -0.321542,0 0,-0.546622 -0.555809,-0.761596 0.336242,0 z"
         id="path4403"
         inkscape:connector-curvature="0"
         style="fill:#e8e8e8;fill-opacity:1" />
    </g>
    <path
       style="fill:#949494;fill-opacity:1;stroke:#000000;stroke-width:0.13921876;stroke-miterlimit:4;stroke-dasharray:none;stroke-opacity:1"
       id="path4408"
       sodipodi:type="arc"
       sodipodi:cx="29.679562"
       sodipodi:cy="45.82439"
       sodipodi:rx="1.2115166"
       sodipodi:ry="1.2115169"
       sodipodi:start="0"
       sodipodi:end="6.1313068"
       sodipodi:open="true"
       d="m 30.891078,45.82439 a 1.2115166,1.2115169 0 0 1 -1.165527,1.210644 1.2115166,1.2115169 0 0 1 -1.254014,-1.11873 1.2115166,1.2115169 0 0 1 1.07032,-1.295579 1.2115166,1.2115169 0 0 1 1.335275,1.020369" />
    <g
       id="g4653"
       transform="matrix(0.6561,0,0,0.6561,9.9888941,36.825471)"
       style="opacity:1">
      <path
         style="opacity:0.77999998;fill:#ffffff;fill-opacity:1;stroke:#000000;stroke-width:0.1197375;stroke-miterlimit:4;stroke-dasharray:none;stroke-opacity:1"
         d="m 17.122295,96.917838 7.284045,-12.1919 7.355035,12.168832 c 0,0 -4.879693,0.0076 -7.319539,0.01154 -2.439847,0.0038 -7.319541,0.01155 -7.319541,0.01155 z"
         id="path4651"
         inkscape:connector-curvature="0" />
      <path
         inkscape:connector-curvature="0"
         id="path4475"
         d="m 17.744133,96.563161 6.665933,-11.157315 6.730899,11.136206 c 0,0 -4.465611,0.007 -6.698416,0.01055 -2.232805,0.0035 -6.698416,0.01056 -6.698416,0.01056 z"
         style="fill:#ffffff;fill-opacity:1;stroke:#000000;stroke-width:0.375;stroke-miterlimit:4;stroke-dasharray:none;stroke-opacity:1" />
      <path
         sodipodi:nodetypes="ccccc"
         inkscape:connector-curvature="0"
         id="rect4485"
         d="m 24.445852,92.860137 3.881939,-0.01989 -1.793003,3.143989 -3.955606,-0.01407 z"
         style="opacity:0.5;fill:url(#linearGradient4494);fill-opacity:1;stroke:#000000;stroke-width:0;stroke-miterlimit:4;stroke-dasharray:none;stroke-opacity:1" />
      <path
         sodipodi:nodetypes="cccc"
         inkscape:connector-curvature="0"
         id="path4480"
         d="m 20.685291,92.830705 3.662232,0.01307 -1.764441,3.097995 z"
         inkscape:transform-center-y="-0.35123937"
         inkscape:transform-center-x="-0.0077859914"
         style="fill:#000000;fill-opacity:1;stroke:#000000;stroke-width:0.1875;stroke-miterlimit:4;stroke-dasharray:none;stroke-opacity:1" />
      <path
         sodipodi:nodetypes="cc"
         inkscape:connector-curvature="0"
         id="path4483"
         d="m 26.514675,95.998307 1.85673,-3.178948"
         style="fill:none;fill-rule:evenodd;stroke:#000000;stroke-width:0.1875;stroke-linecap:butt;stroke-linejoin:miter;stroke-miterlimit:4;stroke-dasharray:none;stroke-opacity:1" />
      <path
         inkscape:connector-curvature="0"
         id="path3530"
         d="m 23.551363,92.153035 c -0.208489,-0.0534 -0.395941,-0.20363 -0.493995,-0.39583 -0.03875,-0.076 -0.07471,-0.2339 -0.0745,-0.32722 5.25e-4,-0.23148 0.130997,-0.47875 0.319948,-0.60634 l 0.05949,-0.0402 -0.103555,-0.001 c -0.197974,-0.002 -0.359561,-0.0727 -0.507204,-0.22094 -0.291867,-0.29294 -0.290736,-0.74425 0.0026,-1.03866 0.09357,-0.0939 0.242639,-0.17576 0.366534,-0.20124 0.211548,-0.0435 0.443787,0.0123 0.610966,0.14699 l 0.0525,0.0423 -0.03233,-0.0856 c -0.04495,-0.11907 -0.04765,-0.32436 -0.006,-0.45676 0.05895,-0.18741 0.20079,-0.35184 0.378074,-0.43828 0.121704,-0.0593 0.204137,-0.0788 0.332243,-0.0786 0.318997,7e-4 0.606803,0.2118 0.702151,0.51513 0.04218,0.13419 0.03973,0.33868 -0.0055,0.45847 l -0.03233,0.0856 0.0525,-0.0419 c 0.130714,-0.10447 0.244755,-0.14748 0.416709,-0.15715 0.221046,-0.0124 0.407662,0.0583 0.562423,0.21302 0.142164,0.14216 0.216533,0.322 0.21693,0.52459 3.85e-4,0.19968 -0.06929,0.36491 -0.21596,0.51212 -0.147643,0.14819 -0.309231,0.21857 -0.507205,0.22094 l -0.103554,10e-4 0.05949,0.0402 c 0.206221,0.13924 0.336152,0.41133 0.31629,0.66233 -0.01532,0.19365 -0.118323,0.396 -0.260551,0.51186 -0.08926,0.0727 -0.2296,0.14013 -0.333471,0.16019 -0.107126,0.0207 -0.282062,0.009 -0.382601,-0.0263 -0.210877,-0.0734 -0.39623,-0.25896 -0.458683,-0.45927 -0.01325,-0.0425 -0.02696,-0.0773 -0.03047,-0.0773 -0.0035,0 -0.01723,0.0348 -0.03047,0.0773 -0.0624,0.20013 -0.247018,0.38511 -0.458683,0.45958 -0.09851,0.0346 -0.315384,0.0457 -0.411787,0.021 z m 1.054871,-1.32387 c 0.140983,-0.0536 0.240795,-0.17718 0.268573,-0.33262 0.01267,-0.0709 0.01175,-0.0968 -0.0059,-0.16587 -0.02561,-0.1 -0.05413,-0.14772 -0.130051,-0.2177 -0.0891,-0.0821 -0.157464,-0.10804 -0.286502,-0.10858 -0.0936,-3.5e-4 -0.118686,0.004 -0.181341,0.0353 -0.09414,0.0462 -0.192251,0.15271 -0.223072,0.2421 -0.03506,0.10168 -0.02975,0.22943 0.01345,0.32385 0.043,0.094 0.138954,0.1868 0.22886,0.22136 0.08904,0.0342 0.22916,0.0352 0.316029,0.002 z"
         style="fill-opacity:1" />
    </g>
    <rect
       transform="scale(1,-1)"
       y="-64.332458"
       x="13.454479"
       height="8.9356365"
       width="25.022184"
       id="rect4327"
       style="fill:#e8e8e8;fill-opacity:1;stroke:#000000;stroke-width:0.20814615;stroke-linecap:butt;stroke-linejoin:round;stroke-miterlimit:4;stroke-dasharray:none;stroke-dashoffset:0;stroke-opacity:1" />
    <rect
       transform="scale(1,-1)"
       style="fill:#000000;fill-opacity:1;stroke:#000000;stroke-width:0.1147907;stroke-linecap:butt;stroke-linejoin:round;stroke-miterlimit:4;stroke-dasharray:none;stroke-dashoffset:0;stroke-opacity:1"
       id="rect4329"
       width="7.5304675"
       height="9.030365"
       x="38.969818"
       y="-64.379814" />
    <rect
       style="fill:#e8e8e8;fill-opacity:1;stroke:#000000;stroke-width:0.11236469;stroke-linecap:butt;stroke-linejoin:round;stroke-miterlimit:4;stroke-dasharray:none;stroke-dashoffset:0;stroke-opacity:1"
       id="rect4331"
       width="7.2146912"
       height="9.0314188"
       x="5.767858"
       y="-64.380341"
       transform="scale(1,-1)" />
    <rect
       transform="scale(1,-1)"
       style="fill:#000000;fill-opacity:1;stroke:#000000;stroke-width:0.11419101;stroke-linecap:butt;stroke-linejoin:round;stroke-miterlimit:4;stroke-dasharray:none;stroke-dashoffset:0;stroke-opacity:1"
       id="rect4345"
       width="7.4514971"
       height="9.0309649"
       x="38.969521"
       y="-73.848961" />
    <rect
       y="-83.317802"
       x="38.969521"
       height="9.0309649"
       width="7.4514971"
       id="rect4347"
       style="fill:#000000;fill-opacity:1;stroke:#000000;stroke-width:0.11419101;stroke-linecap:butt;stroke-linejoin:round;stroke-miterlimit:4;stroke-dasharray:none;stroke-dashoffset:0;stroke-opacity:1"
       transform="scale(1,-1)" />
    <rect
       transform="scale(1,-1)"
       style="fill:#000000;fill-opacity:1;stroke:#000000;stroke-width:0.11358812;stroke-linecap:butt;stroke-linejoin:round;stroke-miterlimit:4;stroke-dasharray:none;stroke-dashoffset:0;stroke-opacity:1"
       id="rect4349"
       width="7.3725295"
       height="9.0315676"
       x="38.969215"
       y="-92.786942" />
    <rect
       style="fill:#e8e8e8;fill-opacity:1;stroke:#000000;stroke-width:0.20814617;stroke-linecap:butt;stroke-linejoin:round;stroke-miterlimit:4;stroke-dasharray:none;stroke-dashoffset:0;stroke-opacity:1"
       id="rect4351"
       width="25.022184"
       height="8.9356375"
       x="13.454478"
       y="-73.8013"
       transform="scale(1,-1)" />
    <rect
       transform="scale(1,-1)"
       y="-83.27935"
       x="17.737373"
       height="8.9540491"
       width="20.748493"
       id="rect4353"
       style="fill:#e8e8e8;fill-opacity:1;stroke:#000000;stroke-width:0.1897344;stroke-linecap:butt;stroke-linejoin:round;stroke-miterlimit:4;stroke-dasharray:none;stroke-dashoffset:0;stroke-opacity:1" />
    <rect
       style="fill:#e8e8e8;fill-opacity:1;stroke:#000000;stroke-width:0.1897344;stroke-linecap:butt;stroke-linejoin:round;stroke-miterlimit:4;stroke-dasharray:none;stroke-dashoffset:0;stroke-opacity:1"
       id="rect4355"
       width="20.748495"
       height="8.9540491"
       x="17.737373"
       y="-92.748192"
       transform="scale(1,-1)" />
    <g
       style="font-style:normal;font-variant:normal;font-weight:bold;font-stretch:normal;font-size:1.65364587px;line-height:125%;font-family:'Bangla MN';-inkscape-font-specification:'Bangla MN, Bold';text-align:start;letter-spacing:0px;word-spacing:0px;writing-mode:lr-tb;text-anchor:start;fill:#000000;fill-opacity:1;stroke:none;stroke-width:1px;stroke-linecap:butt;stroke-linejoin:miter;stroke-opacity:1"
       id="text4201"
       transform="translate(-2.216653,0.07957011)">
      <path
         d="m 9.2242467,55.706259 0.4915003,0 q 0.1267796,0 0.2223235,0.02664 0.095544,0.02664 0.1589335,0.07441 0.06339,0.04777 0.09463,0.112999 0.03215,0.06523 0.03215,0.142398 0,0.05512 -0.02205,0.105649 -0.02113,0.04961 -0.06063,0.09187 -0.0395,0.04134 -0.09463,0.07441 -0.055121,0.03215 -0.1221858,0.05328 l 0.4657768,0.626548 -0.348184,0 -0.4400538,-0.592557 -0.056959,0 0,0.592557 -0.3206236,0 0,-1.308218 z m 0.3206236,0.602662 0.069821,0 q 0.058796,0 0.1084057,-0.01654 0.050528,-0.01654 0.087276,-0.04685 0.036748,-0.03124 0.057878,-0.07533 0.02113,-0.04502 0.02113,-0.101056 0,-0.05145 -0.016536,-0.09463 -0.015618,-0.04318 -0.044097,-0.07441 -0.028479,-0.03215 -0.067983,-0.04961 -0.038585,-0.01745 -0.085438,-0.01745 l -0.1304543,0 0,0.475882 z"
         id="path4212"
         inkscape:connector-curvature="0" />
      <path
         d="m 11.512106,55.706259 0,0.111162 -0.655946,0 0,0.431785 0.544784,0 0,0.112081 -0.544784,0 0,0.519061 0.655946,0 0,0.134129 -0.97657,0 0,-1.308218 0.97657,0 z"
         id="path4214"
         inkscape:connector-curvature="0" />
      <path
         d="m 12.228241,57.034688 q -0.117593,0 -0.205787,-0.02756 -0.08819,-0.02756 -0.150666,-0.07625 -0.06155,-0.04869 -0.0983,-0.115755 -0.03583,-0.06706 -0.04961,-0.146991 l 0.222323,0 q 0.01194,0.04869 0.03399,0.09187 0.02205,0.04226 0.05604,0.0735 0.03399,0.03124 0.08085,0.04961 0.04685,0.01745 0.108406,0.01745 0.04134,0 0.08085,-0.0083 0.04042,-0.0092 0.07166,-0.02848 0.03215,-0.01929 0.05145,-0.05053 0.01929,-0.03215 0.01929,-0.07809 0,-0.0588 -0.03032,-0.103812 -0.0294,-0.04502 -0.07901,-0.08176 -0.04869,-0.03767 -0.112081,-0.06982 -0.06247,-0.03215 -0.127698,-0.06431 -0.06523,-0.03307 -0.128617,-0.06798 -0.06247,-0.03583 -0.11208,-0.07993 -0.04869,-0.0441 -0.07901,-0.09922 -0.0294,-0.05512 -0.0294,-0.126779 0,-0.07809 0.03399,-0.144235 0.03399,-0.06706 0.0983,-0.115755 0.06523,-0.04869 0.158933,-0.07625 0.09371,-0.02756 0.213137,-0.02756 0.09922,0 0.179145,0.02756 0.07993,0.02756 0.14056,0.07533 0.06155,0.04685 0.102893,0.111162 0.04226,0.06431 0.06431,0.138722 l -0.202112,0 q -0.01746,-0.04685 -0.04042,-0.08911 -0.02297,-0.04226 -0.05696,-0.07441 -0.03399,-0.03215 -0.08176,-0.05053 -0.04777,-0.01929 -0.114837,-0.01929 -0.06247,0 -0.105649,0.01654 -0.04318,0.01654 -0.06982,0.04226 -0.02664,0.02481 -0.03858,0.05604 -0.01102,0.03124 -0.01102,0.06155 0,0.05237 0.03032,0.09554 0.03124,0.04226 0.08176,0.07901 0.05145,0.03583 0.115755,0.06982 0.06431,0.03307 0.131373,0.06706 0.06798,0.03399 0.132292,0.07074 0.06523,0.03675 0.115755,0.08176 0.05145,0.0441 0.08176,0.0983 0.03124,0.0542 0.03124,0.122186 0,0.07993 -0.03307,0.148828 -0.03307,0.06798 -0.0983,0.11943 -0.06431,0.05053 -0.160771,0.07993 -0.09554,0.02848 -0.220486,0.02848 z"
         id="path4216"
         inkscape:connector-curvature="0" />
    </g>
    <rect
       transform="scale(1,-1)"
       y="-73.849182"
       x="5.7678585"
       height="9.0314178"
       width="7.2146912"
       id="rect4205"
       style="fill:#e8e8e8;fill-opacity:1;stroke:#000000;stroke-width:0.11236469;stroke-linecap:butt;stroke-linejoin:round;stroke-miterlimit:4;stroke-dasharray:none;stroke-dashoffset:0;stroke-opacity:1" />
    <g
       style="font-style:normal;font-variant:normal;font-weight:bold;font-stretch:normal;font-size:1.65364587px;line-height:125%;font-family:'Bangla MN';-inkscape-font-specification:'Bangla MN, Bold';text-align:start;letter-spacing:0px;word-spacing:0px;writing-mode:lr-tb;text-anchor:start;fill:#000000;fill-opacity:1;stroke:none;stroke-width:1px;stroke-linecap:butt;stroke-linejoin:miter;stroke-opacity:1"
       id="text4207"
       transform="translate(-1.8188025,0)">
      <path
         d="m 9.1164966,66.503533 q -0.1175926,0 -0.2057871,-0.02756 -0.088194,-0.02756 -0.1506655,-0.07625 -0.061552,-0.04869 -0.0983,-0.115755 -0.035829,-0.06707 -0.049609,-0.146991 l 0.2223235,0 q 0.011943,0.04869 0.033992,0.09187 0.022049,0.04226 0.05604,0.0735 0.033992,0.03123 0.080845,0.04961 0.046853,0.01745 0.1084057,0.01745 0.041341,0 0.080845,-0.0083 0.040423,-0.0092 0.071658,-0.02848 0.032154,-0.01929 0.051447,-0.05053 0.019293,-0.03216 0.019293,-0.07809 0,-0.0588 -0.030317,-0.103812 -0.029398,-0.04502 -0.079007,-0.08176 -0.048691,-0.03767 -0.1120804,-0.06982 -0.062471,-0.03215 -0.1276982,-0.06431 -0.065227,-0.03307 -0.1286169,-0.06798 -0.062471,-0.03583 -0.1120805,-0.07993 -0.048691,-0.0441 -0.079008,-0.09922 -0.029398,-0.05512 -0.029398,-0.12678 0,-0.07809 0.033992,-0.144235 0.033992,-0.06706 0.0983,-0.115755 0.065227,-0.04869 0.1589338,-0.07625 0.093707,-0.02756 0.2131365,-0.02756 0.099219,0 0.179145,0.02756 0.079926,0.02756 0.1405599,0.07533 0.061552,0.04685 0.1028935,0.111161 0.04226,0.06431 0.064308,0.138723 l -0.2021123,0 q -0.017455,-0.04685 -0.040422,-0.08911 -0.022967,-0.04226 -0.056959,-0.07441 -0.033992,-0.03216 -0.081764,-0.05053 -0.047772,-0.01929 -0.1148365,-0.01929 -0.062471,0 -0.1056496,0.01654 -0.043178,0.01654 -0.069821,0.04226 -0.026642,0.02481 -0.038585,0.05604 -0.011024,0.03123 -0.011024,0.06155 0,0.05237 0.030317,0.09554 0.031235,0.04226 0.081764,0.07901 0.051447,0.03583 0.1157552,0.06982 0.064308,0.03307 0.131373,0.06707 0.067983,0.03399 0.1322916,0.07074 0.065227,0.03675 0.1157553,0.08176 0.051447,0.0441 0.081764,0.0983 0.031235,0.0542 0.031235,0.122186 0,0.07993 -0.033073,0.148828 -0.033073,0.06798 -0.0983,0.11943 -0.064308,0.05053 -0.1607711,0.07993 -0.095544,0.02848 -0.2204861,0.02848 z"
         id="path4219"
         inkscape:connector-curvature="0" />
      <path
         d="m 9.8945714,65.175105 0.3224606,0 0,0.4915 0.579695,-0.4915 0.248966,0 -0.654109,0.553052 0.829579,0.755165 -0.388607,0 -0.615524,-0.560402 0,0.560402 -0.3224606,0 0,-1.308217 z"
         id="path4221"
         inkscape:connector-curvature="0" />
      <path
         d="m 11.329454,65.175105 0.320623,0 0,1.308217 -0.320623,0 0,-1.308217 z"
         id="path4223"
         inkscape:connector-curvature="0" />
      <path
         d="m 11.987467,65.175105 0.455671,0 q 0.110243,0 0.205787,0.02389 0.09646,0.02297 0.167202,0.0689 0.07074,0.04594 0.111162,0.114837 0.04134,0.0689 0.04134,0.160771 0,0.09279 -0.04042,0.16169 -0.04042,0.0689 -0.106568,0.114836 -0.06523,0.04594 -0.149747,0.0689 -0.08452,0.02297 -0.172714,0.02297 l -0.189251,0 0,0.571426 -0.322461,0 0,-1.308217 z m 0.322461,0.618279 0.104731,0 q 0.0542,0 0.09462,-0.01929 0.04134,-0.02021 0.06798,-0.0542 0.02756,-0.03399 0.04042,-0.07809 0.01378,-0.04502 0.01378,-0.09371 0,-0.0588 -0.01745,-0.104731 -0.01745,-0.04594 -0.04869,-0.07717 -0.03032,-0.03123 -0.07166,-0.04777 -0.04134,-0.01654 -0.08819,-0.01654 l -0.09554,0 0,0.4915 z"
         id="path4225"
         inkscape:connector-curvature="0" />
    </g>
    <g
       style="font-style:normal;font-variant:normal;font-weight:bold;font-stretch:normal;font-size:1.65364587px;line-height:125%;font-family:'Bangla MN';-inkscape-font-specification:'Bangla MN, Bold';text-align:start;letter-spacing:0px;word-spacing:0px;writing-mode:lr-tb;text-anchor:start;fill:#e8e8e8;fill-opacity:1;stroke:none;stroke-width:1px;stroke-linecap:butt;stroke-linejoin:miter;stroke-opacity:1"
       id="text4231"
       transform="translate(1.1252913,0)">
      <path
         d="m 39.26324,55.682605 0.612767,1.336697 -0.327973,0 -0.163527,-0.357371 -0.508037,0 -0.171795,0.357371 -0.218649,0 0.638491,-1.336697 0.138723,0 z m -0.327055,0.85714 0.394119,0 -0.193844,-0.422598 -0.200275,0.422598 z"
         id="path4335"
         inkscape:connector-curvature="0"
         style="fill:#e8e8e8;fill-opacity:1" />
      <path
         d="m 40.037912,55.711085 0.204869,0 0.745978,0.832335 0,-0.832335 0.201193,0 0,1.328429 -0.138722,0 -0.810287,-0.918693 0,0.898481 -0.203031,0 0,-1.308217 z"
         id="path4337"
         inkscape:connector-curvature="0"
         style="fill:#e8e8e8;fill-opacity:1" />
      <path
         d="m 42.648505,55.711085 0,0.111161 -0.452915,0 0,1.197056 -0.320623,0 0,-1.197056 -0.452916,0 0,-0.111161 1.226454,0 z"
         id="path4339"
         inkscape:connector-curvature="0"
         style="fill:#e8e8e8;fill-opacity:1" />
      <path
         d="m 43.470879,57.019302 -0.22508,0 0.555809,-0.64584 -0.500687,-0.662377 0.354615,0 0.331648,0.441891 0.382176,-0.441891 0.225998,0 -0.500687,0.583369 0.544784,0.724848 -0.353696,0 -0.381258,-0.50528 -0.433622,0.50528 z"
         id="path4341"
         inkscape:connector-curvature="0"
         style="fill:#e8e8e8;fill-opacity:1" />
    </g>
    <g
       style="font-style:normal;font-variant:normal;font-weight:bold;font-stretch:normal;font-size:1.65364587px;line-height:125%;font-family:'Bangla MN';-inkscape-font-specification:'Bangla MN, Bold';text-align:start;letter-spacing:0px;word-spacing:0px;writing-mode:lr-tb;text-anchor:start;fill:#000000;fill-opacity:1;stroke:none;stroke-width:1px;stroke-linecap:butt;stroke-linejoin:miter;stroke-opacity:1"
       id="text4235"
       transform="translate(1.1252913,0.15914022)">
      <path
         d="m 32.949919,55.626688 0.320624,0 0,1.308218 -0.320624,0 0,-1.308218 z"
         id="path4273"
         inkscape:connector-curvature="0" />
      <path
         d="m 33.607933,55.626688 0.204868,0 0.745978,0.832335 0,-0.832335 0.201193,0 0,1.328429 -0.138722,0 -0.810287,-0.918692 0,0.898481 -0.20303,0 0,-1.308218 z"
         id="path4275"
         inkscape:connector-curvature="0" />
      <path
         d="m 35.254817,55.626688 0.432704,0.903993 0.40055,-0.903993 0.206706,0 -0.588882,1.328429 -0.150665,0 -0.63206,-1.328429 0.331647,0 z"
         id="path4277"
         inkscape:connector-curvature="0" />
    </g>
    <g
       style="font-style:normal;font-variant:normal;font-weight:bold;font-stretch:normal;font-size:1.65364587px;line-height:125%;font-family:'Bangla MN';-inkscape-font-specification:'Bangla MN, Bold';text-align:start;letter-spacing:0px;word-spacing:0px;writing-mode:lr-tb;text-anchor:start;fill:#000000;fill-opacity:1;stroke:none;stroke-width:1px;stroke-linecap:butt;stroke-linejoin:miter;stroke-opacity:1"
       id="text4239"
       transform="translate(1.1252913,0.15914022)">
      <path
         d="m 27.7359,57.034688 q -0.117592,0 -0.205787,-0.02756 -0.08819,-0.02756 -0.150665,-0.07625 -0.06155,-0.04869 -0.0983,-0.115755 -0.03583,-0.06706 -0.04961,-0.146991 l 0.222324,0 q 0.01194,0.04869 0.03399,0.09187 0.02205,0.04226 0.05604,0.0735 0.03399,0.03124 0.08085,0.04961 0.04685,0.01745 0.108405,0.01745 0.04134,0 0.08085,-0.0083 0.04042,-0.0092 0.07166,-0.02848 0.03215,-0.01929 0.05145,-0.05053 0.01929,-0.03215 0.01929,-0.07809 0,-0.0588 -0.03032,-0.103812 -0.0294,-0.04502 -0.07901,-0.08176 -0.04869,-0.03767 -0.11208,-0.06982 -0.06247,-0.03215 -0.127698,-0.06431 -0.06523,-0.03307 -0.128617,-0.06798 -0.06247,-0.03583 -0.112081,-0.07993 -0.04869,-0.0441 -0.07901,-0.09922 -0.0294,-0.05512 -0.0294,-0.126779 0,-0.07809 0.03399,-0.144235 0.03399,-0.06706 0.0983,-0.115755 0.06523,-0.04869 0.158934,-0.07625 0.09371,-0.02756 0.213136,-0.02756 0.09922,0 0.179145,0.02756 0.07993,0.02756 0.14056,0.07533 0.06155,0.04685 0.102894,0.111162 0.04226,0.06431 0.06431,0.138722 l -0.202112,0 q -0.01745,-0.04685 -0.04042,-0.08911 -0.02297,-0.04226 -0.05696,-0.07441 -0.03399,-0.03215 -0.08176,-0.05053 -0.04777,-0.01929 -0.114836,-0.01929 -0.06247,0 -0.10565,0.01654 -0.04318,0.01654 -0.06982,0.04226 -0.02664,0.02481 -0.03858,0.05604 -0.01102,0.03124 -0.01102,0.06155 0,0.05237 0.03032,0.09554 0.03124,0.04226 0.08176,0.07901 0.05145,0.03583 0.115756,0.06982 0.06431,0.03307 0.131373,0.06706 0.06798,0.03399 0.132291,0.07074 0.06523,0.03675 0.115755,0.08176 0.05145,0.0441 0.08176,0.0983 0.03124,0.0542 0.03124,0.122186 0,0.07993 -0.03307,0.148828 -0.03307,0.06798 -0.0983,0.11943 -0.06431,0.05053 -0.160771,0.07993 -0.09554,0.02848 -0.220487,0.02848 z"
         id="path4252"
         inkscape:connector-curvature="0" />
      <path
         d="m 28.815306,56.359449 q 0,0.12678 0.03859,0.224161 0.03858,0.09738 0.101975,0.163527 0.06431,0.06615 0.146991,0.100138 0.0836,0.03399 0.172714,0.03399 0.0689,0 0.127698,-0.02389 0.05971,-0.02389 0.111162,-0.06339 0.05237,-0.04042 0.09738,-0.09279 0.04502,-0.05328 0.08636,-0.112081 l 0.134129,0.0983 q -0.04318,0.06982 -0.10473,0.134129 -0.06063,0.06431 -0.136886,0.113918 -0.07625,0.04961 -0.166283,0.07901 -0.09003,0.0294 -0.190169,0.0294 -0.169039,0 -0.311437,-0.04869 -0.141478,-0.04961 -0.245291,-0.139641 -0.102893,-0.09003 -0.160771,-0.215893 -0.05788,-0.12586 -0.05788,-0.280201 0,-0.09922 0.0248,-0.188332 0.02481,-0.09003 0.07074,-0.166283 0.04685,-0.07625 0.113918,-0.136885 0.06706,-0.06155 0.150665,-0.104731 0.08452,-0.04318 0.184657,-0.06615 0.100138,-0.02297 0.212218,-0.02297 0.112999,0 0.206706,0.02664 0.09463,0.02572 0.170877,0.0735 0.07717,0.04685 0.136885,0.112081 0.06063,0.06523 0.106568,0.142397 l -0.135966,0.09463 q -0.04134,-0.0588 -0.09003,-0.110243 -0.04777,-0.05237 -0.102894,-0.09095 -0.05512,-0.0395 -0.115755,-0.06247 -0.06063,-0.02297 -0.12678,-0.02297 -0.09003,0 -0.171795,0.03399 -0.08176,0.03399 -0.144235,0.100137 -0.06155,0.06615 -0.0983,0.163528 -0.03583,0.09738 -0.03583,0.225079 z"
         id="path4254"
         inkscape:connector-curvature="0" />
      <path
         d="m 30.099796,55.706259 0.320623,0 0,1.174089 0.66789,0 0,0.134129 -0.988513,0 0,-1.308218 z"
         id="path4256"
         inkscape:connector-curvature="0" />
    </g>
    <g
       style="font-style:normal;font-variant:normal;font-weight:bold;font-stretch:normal;font-size:1.65364587px;line-height:125%;font-family:'Bangla MN';-inkscape-font-specification:'Bangla MN, Bold';text-align:start;letter-spacing:0px;word-spacing:0px;writing-mode:lr-tb;text-anchor:start;fill:#000000;fill-opacity:1;stroke:none;stroke-width:1px;stroke-linecap:butt;stroke-linejoin:miter;stroke-opacity:1"
       id="text4243"
       transform="translate(1.1252913,0.15914022)">
      <path
         d="m 20.364062,55.706259 0.322461,0 0,0.4915 0.579695,-0.4915 0.248965,0 -0.654108,0.553053 0.829579,0.755165 -0.388607,0 -0.615524,-0.560402 0,0.560402 -0.322461,0 0,-1.308218 z"
         id="path4259"
         inkscape:connector-curvature="0" />
      <path
         d="m 22.761734,55.706259 0,0.111162 -0.655946,0 0,0.431785 0.544784,0 0,0.112081 -0.544784,0 0,0.519061 0.655946,0 0,0.134129 -0.97657,0 0,-1.308218 0.97657,0 z"
         id="path4261"
         inkscape:connector-curvature="0" />
      <path
         d="m 23.204098,55.706259 0.430867,0.588882 0.403306,-0.588882 0.216811,0 -0.509874,0.742303 0,0.565915 -0.321542,0 0,-0.546622 -0.555809,-0.761596 0.336241,0 z"
         id="path4263"
         inkscape:connector-curvature="0" />
    </g>
    <g
       style="font-style:normal;font-variant:normal;font-weight:bold;font-stretch:normal;font-size:1.65364587px;line-height:125%;font-family:'Bangla MN';-inkscape-font-specification:'Bangla MN, Bold';text-align:start;letter-spacing:0px;word-spacing:0px;writing-mode:lr-tb;text-anchor:start;fill:#000000;fill-opacity:1;stroke:none;stroke-width:1px;stroke-linecap:butt;stroke-linejoin:miter;stroke-opacity:1"
       id="text4247"
       transform="translate(1.1252913,0.15914022)">
      <path
         d="m 13.961234,57.043875 q -0.105649,0 -0.202112,-0.02389 -0.09646,-0.02297 -0.179145,-0.06615 -0.08268,-0.04318 -0.150666,-0.104731 -0.06798,-0.06155 -0.115755,-0.138722 -0.04777,-0.07717 -0.07441,-0.167202 -0.02572,-0.09095 -0.02572,-0.192007 0,-0.09922 0.02572,-0.187413 0.02664,-0.08911 0.07441,-0.163527 0.04777,-0.07441 0.115755,-0.134129 0.06798,-0.06063 0.150666,-0.101975 0.08268,-0.04134 0.179145,-0.06339 0.09646,-0.02297 0.202112,-0.02297 0.10565,0 0.202113,0.02297 0.09646,0.02205 0.179144,0.06431 0.08268,0.04134 0.150666,0.101057 0.06798,0.05971 0.115755,0.134129 0.04777,0.07441 0.0735,0.162608 0.02664,0.08819 0.02664,0.186495 0,0.103812 -0.02664,0.195681 -0.02572,0.09187 -0.0735,0.169039 -0.04777,0.07717 -0.115755,0.138723 -0.06798,0.06063 -0.150666,0.103812 -0.08268,0.04226 -0.179144,0.06431 -0.09646,0.02297 -0.202113,0.02297 z m 0,-0.111162 q 0.09554,0 0.168121,-0.04318 0.07349,-0.0441 0.123105,-0.121268 0.04961,-0.07809 0.07441,-0.184657 0.02572,-0.106568 0.02572,-0.232429 0,-0.124023 -0.02572,-0.226917 -0.02481,-0.103812 -0.07441,-0.178226 -0.04961,-0.07441 -0.123105,-0.115755 -0.07258,-0.04134 -0.168121,-0.04134 -0.09646,0 -0.169958,0.04134 -0.07349,0.04134 -0.123105,0.115755 -0.04869,0.07441 -0.07441,0.178226 -0.0248,0.102894 -0.0248,0.226917 0,0.125861 0.0248,0.232429 0.02572,0.106568 0.07441,0.184657 0.04961,0.07717 0.123105,0.121268 0.0735,0.04318 0.169958,0.04318 z"
         id="path4266"
         inkscape:connector-curvature="0" />
      <path
         d="m 15.259906,56.359449 q 0,0.12678 0.03858,0.224161 0.03858,0.09738 0.101975,0.163527 0.06431,0.06615 0.146991,0.100138 0.0836,0.03399 0.172714,0.03399 0.0689,0 0.127698,-0.02389 0.05972,-0.02389 0.111162,-0.06339 0.05237,-0.04042 0.09738,-0.09279 0.04502,-0.05328 0.08636,-0.112081 l 0.134129,0.0983 q -0.04318,0.06982 -0.104731,0.134129 -0.06063,0.06431 -0.136885,0.113918 -0.07625,0.04961 -0.166283,0.07901 -0.09003,0.0294 -0.190169,0.0294 -0.16904,0 -0.311437,-0.04869 -0.141479,-0.04961 -0.245291,-0.139641 -0.102893,-0.09003 -0.160771,-0.215893 -0.05788,-0.12586 -0.05788,-0.280201 0,-0.09922 0.0248,-0.188332 0.02481,-0.09003 0.07074,-0.166283 0.04685,-0.07625 0.113918,-0.136885 0.06707,-0.06155 0.150666,-0.104731 0.08452,-0.04318 0.184657,-0.06615 0.100137,-0.02297 0.212218,-0.02297 0.112999,0 0.206706,0.02664 0.09462,0.02572 0.170876,0.0735 0.07717,0.04685 0.136885,0.112081 0.06063,0.06523 0.106569,0.142397 l -0.135967,0.09463 q -0.04134,-0.0588 -0.09003,-0.110243 -0.04777,-0.05237 -0.102893,-0.09095 -0.05512,-0.0395 -0.115755,-0.06247 -0.06063,-0.02297 -0.12678,-0.02297 -0.09003,0 -0.171795,0.03399 -0.08176,0.03399 -0.144235,0.100137 -0.06155,0.06615 -0.0983,0.163528 -0.03583,0.09738 -0.03583,0.225079 z"
         id="path4268"
         inkscape:connector-curvature="0" />
      <path
         d="m 17.67898,55.706259 0,0.111162 -0.452915,0 0,1.197056 -0.320623,0 0,-1.197056 -0.452916,0 0,-0.111162 1.226454,0 z"
         id="path4270"
         inkscape:connector-curvature="0" />
    </g>
    <g
       transform="translate(1.0457212,9.5484131)"
       id="g4231"
       style="font-style:normal;font-variant:normal;font-weight:bold;font-stretch:normal;font-size:1.65364587px;line-height:125%;font-family:'Bangla MN';-inkscape-font-specification:'Bangla MN, Bold';text-align:start;letter-spacing:0px;word-spacing:0px;writing-mode:lr-tb;text-anchor:start;fill:#000000;fill-opacity:1;stroke:none;stroke-width:1px;stroke-linecap:butt;stroke-linejoin:miter;stroke-opacity:1">
      <path
         inkscape:connector-curvature="0"
         id="path4233"
         d="m 32.949919,55.626688 0.320624,0 0,1.308218 -0.320624,0 0,-1.308218 z" />
      <path
         inkscape:connector-curvature="0"
         id="path4235"
         d="m 33.607933,55.626688 0.204868,0 0.745978,0.832335 0,-0.832335 0.201193,0 0,1.328429 -0.138722,0 -0.810287,-0.918692 0,0.898481 -0.20303,0 0,-1.308218 z" />
      <path
         inkscape:connector-curvature="0"
         id="path4237"
         d="m 35.254817,55.626688 0.432704,0.903993 0.40055,-0.903993 0.206706,0 -0.588882,1.328429 -0.150665,0 -0.63206,-1.328429 0.331647,0 z" />
    </g>
    <g
       transform="translate(1.0457212,9.5484131)"
       id="g4239"
       style="font-style:normal;font-variant:normal;font-weight:bold;font-stretch:normal;font-size:1.65364587px;line-height:125%;font-family:'Bangla MN';-inkscape-font-specification:'Bangla MN, Bold';text-align:start;letter-spacing:0px;word-spacing:0px;writing-mode:lr-tb;text-anchor:start;fill:#000000;fill-opacity:1;stroke:none;stroke-width:1px;stroke-linecap:butt;stroke-linejoin:miter;stroke-opacity:1">
      <path
         inkscape:connector-curvature="0"
         id="path4241"
         d="m 27.7359,57.034688 q -0.117592,0 -0.205787,-0.02756 -0.08819,-0.02756 -0.150665,-0.07625 -0.06155,-0.04869 -0.0983,-0.115755 -0.03583,-0.06706 -0.04961,-0.146991 l 0.222324,0 q 0.01194,0.04869 0.03399,0.09187 0.02205,0.04226 0.05604,0.0735 0.03399,0.03124 0.08085,0.04961 0.04685,0.01745 0.108405,0.01745 0.04134,0 0.08085,-0.0083 0.04042,-0.0092 0.07166,-0.02848 0.03215,-0.01929 0.05145,-0.05053 0.01929,-0.03215 0.01929,-0.07809 0,-0.0588 -0.03032,-0.103812 -0.0294,-0.04502 -0.07901,-0.08176 -0.04869,-0.03767 -0.11208,-0.06982 -0.06247,-0.03215 -0.127698,-0.06431 -0.06523,-0.03307 -0.128617,-0.06798 -0.06247,-0.03583 -0.112081,-0.07993 -0.04869,-0.0441 -0.07901,-0.09922 -0.0294,-0.05512 -0.0294,-0.126779 0,-0.07809 0.03399,-0.144235 0.03399,-0.06706 0.0983,-0.115755 0.06523,-0.04869 0.158934,-0.07625 0.09371,-0.02756 0.213136,-0.02756 0.09922,0 0.179145,0.02756 0.07993,0.02756 0.14056,0.07533 0.06155,0.04685 0.102894,0.111162 0.04226,0.06431 0.06431,0.138722 l -0.202112,0 q -0.01745,-0.04685 -0.04042,-0.08911 -0.02297,-0.04226 -0.05696,-0.07441 -0.03399,-0.03215 -0.08176,-0.05053 -0.04777,-0.01929 -0.114836,-0.01929 -0.06247,0 -0.10565,0.01654 -0.04318,0.01654 -0.06982,0.04226 -0.02664,0.02481 -0.03858,0.05604 -0.01102,0.03124 -0.01102,0.06155 0,0.05237 0.03032,0.09554 0.03124,0.04226 0.08176,0.07901 0.05145,0.03583 0.115756,0.06982 0.06431,0.03307 0.131373,0.06706 0.06798,0.03399 0.132291,0.07074 0.06523,0.03675 0.115755,0.08176 0.05145,0.0441 0.08176,0.0983 0.03124,0.0542 0.03124,0.122186 0,0.07993 -0.03307,0.148828 -0.03307,0.06798 -0.0983,0.11943 -0.06431,0.05053 -0.160771,0.07993 -0.09554,0.02848 -0.220487,0.02848 z" />
      <path
         inkscape:connector-curvature="0"
         id="path4243"
         d="m 28.815306,56.359449 q 0,0.12678 0.03859,0.224161 0.03858,0.09738 0.101975,0.163527 0.06431,0.06615 0.146991,0.100138 0.0836,0.03399 0.172714,0.03399 0.0689,0 0.127698,-0.02389 0.05971,-0.02389 0.111162,-0.06339 0.05237,-0.04042 0.09738,-0.09279 0.04502,-0.05328 0.08636,-0.112081 l 0.134129,0.0983 q -0.04318,0.06982 -0.10473,0.134129 -0.06063,0.06431 -0.136886,0.113918 -0.07625,0.04961 -0.166283,0.07901 -0.09003,0.0294 -0.190169,0.0294 -0.169039,0 -0.311437,-0.04869 -0.141478,-0.04961 -0.245291,-0.139641 -0.102893,-0.09003 -0.160771,-0.215893 -0.05788,-0.12586 -0.05788,-0.280201 0,-0.09922 0.0248,-0.188332 0.02481,-0.09003 0.07074,-0.166283 0.04685,-0.07625 0.113918,-0.136885 0.06706,-0.06155 0.150665,-0.104731 0.08452,-0.04318 0.184657,-0.06615 0.100138,-0.02297 0.212218,-0.02297 0.112999,0 0.206706,0.02664 0.09463,0.02572 0.170877,0.0735 0.07717,0.04685 0.136885,0.112081 0.06063,0.06523 0.106568,0.142397 l -0.135966,0.09463 q -0.04134,-0.0588 -0.09003,-0.110243 -0.04777,-0.05237 -0.102894,-0.09095 -0.05512,-0.0395 -0.115755,-0.06247 -0.06063,-0.02297 -0.12678,-0.02297 -0.09003,0 -0.171795,0.03399 -0.08176,0.03399 -0.144235,0.100137 -0.06155,0.06615 -0.0983,0.163528 -0.03583,0.09738 -0.03583,0.225079 z" />
      <path
         inkscape:connector-curvature="0"
         id="path4245"
         d="m 30.099796,55.706259 0.320623,0 0,1.174089 0.66789,0 0,0.134129 -0.988513,0 0,-1.308218 z" />
    </g>
    <g
       transform="translate(1.0457212,9.5484131)"
       id="g4247"
       style="font-style:normal;font-variant:normal;font-weight:bold;font-stretch:normal;font-size:1.65364587px;line-height:125%;font-family:'Bangla MN';-inkscape-font-specification:'Bangla MN, Bold';text-align:start;letter-spacing:0px;word-spacing:0px;writing-mode:lr-tb;text-anchor:start;fill:#000000;fill-opacity:1;stroke:none;stroke-width:1px;stroke-linecap:butt;stroke-linejoin:miter;stroke-opacity:1">
      <path
         inkscape:connector-curvature="0"
         id="path4249"
         d="m 20.364062,55.706259 0.322461,0 0,0.4915 0.579695,-0.4915 0.248965,0 -0.654108,0.553053 0.829579,0.755165 -0.388607,0 -0.615524,-0.560402 0,0.560402 -0.322461,0 0,-1.308218 z" />
      <path
         inkscape:connector-curvature="0"
         id="path4251"
         d="m 22.761734,55.706259 0,0.111162 -0.655946,0 0,0.431785 0.544784,0 0,0.112081 -0.544784,0 0,0.519061 0.655946,0 0,0.134129 -0.97657,0 0,-1.308218 0.97657,0 z" />
      <path
         inkscape:connector-curvature="0"
         id="path4253"
         d="m 23.204098,55.706259 0.430867,0.588882 0.403306,-0.588882 0.216811,0 -0.509874,0.742303 0,0.565915 -0.321542,0 0,-0.546622 -0.555809,-0.761596 0.336241,0 z" />
    </g>
    <g
       transform="translate(1.0457212,9.5484131)"
       id="g4255"
       style="font-style:normal;font-variant:normal;font-weight:bold;font-stretch:normal;font-size:1.65364587px;line-height:125%;font-family:'Bangla MN';-inkscape-font-specification:'Bangla MN, Bold';text-align:start;letter-spacing:0px;word-spacing:0px;writing-mode:lr-tb;text-anchor:start;fill:#000000;fill-opacity:1;stroke:none;stroke-width:1px;stroke-linecap:butt;stroke-linejoin:miter;stroke-opacity:1">
      <path
         inkscape:connector-curvature="0"
         id="path4257"
         d="m 13.961234,57.043875 q -0.105649,0 -0.202112,-0.02389 -0.09646,-0.02297 -0.179145,-0.06615 -0.08268,-0.04318 -0.150666,-0.104731 -0.06798,-0.06155 -0.115755,-0.138722 -0.04777,-0.07717 -0.07441,-0.167202 -0.02572,-0.09095 -0.02572,-0.192007 0,-0.09922 0.02572,-0.187413 0.02664,-0.08911 0.07441,-0.163527 0.04777,-0.07441 0.115755,-0.134129 0.06798,-0.06063 0.150666,-0.101975 0.08268,-0.04134 0.179145,-0.06339 0.09646,-0.02297 0.202112,-0.02297 0.10565,0 0.202113,0.02297 0.09646,0.02205 0.179144,0.06431 0.08268,0.04134 0.150666,0.101057 0.06798,0.05971 0.115755,0.134129 0.04777,0.07441 0.0735,0.162608 0.02664,0.08819 0.02664,0.186495 0,0.103812 -0.02664,0.195681 -0.02572,0.09187 -0.0735,0.169039 -0.04777,0.07717 -0.115755,0.138723 -0.06798,0.06063 -0.150666,0.103812 -0.08268,0.04226 -0.179144,0.06431 -0.09646,0.02297 -0.202113,0.02297 z m 0,-0.111162 q 0.09554,0 0.168121,-0.04318 0.07349,-0.0441 0.123105,-0.121268 0.04961,-0.07809 0.07441,-0.184657 0.02572,-0.106568 0.02572,-0.232429 0,-0.124023 -0.02572,-0.226917 -0.02481,-0.103812 -0.07441,-0.178226 -0.04961,-0.07441 -0.123105,-0.115755 -0.07258,-0.04134 -0.168121,-0.04134 -0.09646,0 -0.169958,0.04134 -0.07349,0.04134 -0.123105,0.115755 -0.04869,0.07441 -0.07441,0.178226 -0.0248,0.102894 -0.0248,0.226917 0,0.125861 0.0248,0.232429 0.02572,0.106568 0.07441,0.184657 0.04961,0.07717 0.123105,0.121268 0.0735,0.04318 0.169958,0.04318 z" />
      <path
         inkscape:connector-curvature="0"
         id="path4260"
         d="m 15.259906,56.359449 q 0,0.12678 0.03858,0.224161 0.03858,0.09738 0.101975,0.163527 0.06431,0.06615 0.146991,0.100138 0.0836,0.03399 0.172714,0.03399 0.0689,0 0.127698,-0.02389 0.05972,-0.02389 0.111162,-0.06339 0.05237,-0.04042 0.09738,-0.09279 0.04502,-0.05328 0.08636,-0.112081 l 0.134129,0.0983 q -0.04318,0.06982 -0.104731,0.134129 -0.06063,0.06431 -0.136885,0.113918 -0.07625,0.04961 -0.166283,0.07901 -0.09003,0.0294 -0.190169,0.0294 -0.16904,0 -0.311437,-0.04869 -0.141479,-0.04961 -0.245291,-0.139641 -0.102893,-0.09003 -0.160771,-0.215893 -0.05788,-0.12586 -0.05788,-0.280201 0,-0.09922 0.0248,-0.188332 0.02481,-0.09003 0.07074,-0.166283 0.04685,-0.07625 0.113918,-0.136885 0.06707,-0.06155 0.150666,-0.104731 0.08452,-0.04318 0.184657,-0.06615 0.100137,-0.02297 0.212218,-0.02297 0.112999,0 0.206706,0.02664 0.09462,0.02572 0.170876,0.0735 0.07717,0.04685 0.136885,0.112081 0.06063,0.06523 0.106569,0.142397 l -0.135967,0.09463 q -0.04134,-0.0588 -0.09003,-0.110243 -0.04777,-0.05237 -0.102893,-0.09095 -0.05512,-0.0395 -0.115755,-0.06247 -0.06063,-0.02297 -0.12678,-0.02297 -0.09003,0 -0.171795,0.03399 -0.08176,0.03399 -0.144235,0.100137 -0.06155,0.06615 -0.0983,0.163528 -0.03583,0.09738 -0.03583,0.225079 z" />
      <path
         inkscape:connector-curvature="0"
         id="path4262"
         d="m 17.67898,55.706259 0,0.111162 -0.452915,0 0,1.197056 -0.320623,0 0,-1.197056 -0.452916,0 0,-0.111162 1.226454,0 z" />
    </g>
    <g
       style="font-style:normal;font-variant:normal;font-weight:bold;font-stretch:normal;font-size:1.65364587px;line-height:125%;font-family:'Bangla MN';-inkscape-font-specification:'Bangla MN, Bold';text-align:start;letter-spacing:0px;word-spacing:0px;writing-mode:lr-tb;text-anchor:start;fill:#e8e8e8;fill-opacity:1;stroke:none;stroke-width:1px;stroke-linecap:butt;stroke-linejoin:miter;stroke-opacity:1"
       id="text4264"
       transform="translate(1.1252913,0)">
      <path
         d="m 39.309855,65.06705 0.612768,1.336698 -0.327973,0 -0.163527,-0.357372 -0.508037,0 -0.171796,0.357372 -0.218648,0 0.638491,-1.336698 0.138722,0 z m -0.327054,0.85714 0.394119,0 -0.193844,-0.422598 -0.200275,0.422598 z"
         id="path4326"
         inkscape:connector-curvature="0"
         style="fill:#e8e8e8;fill-opacity:1" />
      <path
         d="m 40.084528,65.09553 0.204868,0 0.745978,0.832335 0,-0.832335 0.201194,0 0,1.328429 -0.138722,0 -0.810287,-0.918692 0,0.898481 -0.203031,0 0,-1.308218 z"
         id="path4328"
         inkscape:connector-curvature="0"
         style="fill:#e8e8e8;fill-opacity:1" />
      <path
         d="m 42.695121,65.09553 0,0.111162 -0.452915,0 0,1.197056 -0.320624,0 0,-1.197056 -0.452915,0 0,-0.111162 1.226454,0 z"
         id="path4330"
         inkscape:connector-curvature="0"
         style="fill:#e8e8e8;fill-opacity:1" />
      <path
         d="m 43.473627,65.09553 0.430866,0.588882 0.403306,-0.588882 0.216812,0 -0.509875,0.742303 0,0.565915 -0.321542,0 0,-0.546622 -0.555809,-0.761596 0.336242,0 z"
         id="path4332"
         inkscape:connector-curvature="0"
         style="fill:#e8e8e8;fill-opacity:1" />
    </g>
    <g
       style="font-style:normal;font-variant:normal;font-weight:bold;font-stretch:normal;font-size:1.65364587px;line-height:125%;font-family:'Bangla MN';-inkscape-font-specification:'Bangla MN, Bold';text-align:start;letter-spacing:0px;word-spacing:0px;writing-mode:lr-tb;text-anchor:start;fill:#e8e8e8;fill-opacity:1;stroke:none;stroke-width:1px;stroke-linecap:butt;stroke-linejoin:miter;stroke-opacity:1"
       id="text4268"
       transform="translate(1.1252913,0)">
      <path
         d="m 39.755817,85.417909 q -0.117593,0 -0.205787,-0.02756 -0.08819,-0.02756 -0.150666,-0.07625 -0.06155,-0.04869 -0.0983,-0.115755 -0.03583,-0.06706 -0.04961,-0.14699 l 0.222323,0 q 0.01194,0.04869 0.03399,0.09187 0.02205,0.04226 0.05604,0.07349 0.03399,0.03124 0.08085,0.04961 0.04685,0.01746 0.108406,0.01746 0.04134,0 0.08084,-0.0083 0.04042,-0.0092 0.07166,-0.02848 0.03215,-0.01929 0.05145,-0.05053 0.01929,-0.03215 0.01929,-0.07809 0,-0.0588 -0.03032,-0.103812 -0.0294,-0.04502 -0.07901,-0.08176 -0.04869,-0.03767 -0.112081,-0.06982 -0.06247,-0.03215 -0.127698,-0.06431 -0.06523,-0.03307 -0.128617,-0.06798 -0.06247,-0.03583 -0.11208,-0.07993 -0.04869,-0.0441 -0.07901,-0.09922 -0.0294,-0.05512 -0.0294,-0.12678 0,-0.07809 0.03399,-0.144234 0.03399,-0.06706 0.0983,-0.115755 0.06523,-0.04869 0.158933,-0.07625 0.09371,-0.02756 0.213137,-0.02756 0.09922,0 0.179145,0.02756 0.07993,0.02756 0.14056,0.07533 0.06155,0.04685 0.102893,0.111162 0.04226,0.06431 0.06431,0.138722 l -0.202112,0 q -0.01746,-0.04685 -0.04042,-0.08911 -0.02297,-0.04226 -0.05696,-0.07441 -0.03399,-0.03215 -0.08176,-0.05053 -0.04777,-0.01929 -0.114837,-0.01929 -0.06247,0 -0.105649,0.01654 -0.04318,0.01654 -0.06982,0.04226 -0.02664,0.0248 -0.03859,0.05604 -0.01102,0.03124 -0.01102,0.06155 0,0.05237 0.03032,0.09554 0.03124,0.04226 0.08176,0.07901 0.05145,0.03583 0.115755,0.06982 0.06431,0.03307 0.131373,0.06706 0.06798,0.03399 0.132292,0.07074 0.06523,0.03675 0.115755,0.08176 0.05145,0.0441 0.08176,0.0983 0.03124,0.0542 0.03124,0.122186 0,0.07993 -0.03307,0.148828 -0.03307,0.06798 -0.0983,0.11943 -0.06431,0.05053 -0.160771,0.07993 -0.09554,0.02848 -0.220486,0.02848 z"
         id="path4312"
         inkscape:connector-curvature="0"
         style="fill:#e8e8e8;fill-opacity:1" />
      <path
         d="m 40.854515,84.774824 0,0.622873 -0.320623,0 0,-1.308217 0.320623,0 0,0.573264 0.526411,0 0,-0.573264 0.317867,0 0,1.308217 -0.317867,0 0,-0.622873 -0.526411,0 z"
         id="path4314"
         inkscape:connector-curvature="0"
         style="fill:#e8e8e8;fill-opacity:1" />
      <path
         d="m 42.569714,84.08948 0.430866,0.588881 0.403306,-0.588881 0.216811,0 -0.509874,0.742303 0,0.565914 -0.321542,0 0,-0.546621 -0.555809,-0.761596 0.336242,0 z"
         id="path4316"
         inkscape:connector-curvature="0"
         style="fill:#e8e8e8;fill-opacity:1" />
    </g>
    <g
       style="font-style:normal;font-variant:normal;font-weight:bold;font-stretch:normal;font-size:1.65364587px;line-height:125%;font-family:'Bangla MN';-inkscape-font-specification:'Bangla MN, Bold';text-align:start;letter-spacing:0px;word-spacing:0px;writing-mode:lr-tb;text-anchor:start;fill:#e8e8e8;fill-opacity:1;stroke:none;stroke-width:1px;stroke-linecap:butt;stroke-linejoin:miter;stroke-opacity:1"
       id="text4272"
       transform="translate(1.1252913,0)">
      <path
         d="m 39.624805,75.977197 q -0.117593,0 -0.205787,-0.02756 -0.08819,-0.02756 -0.150666,-0.07625 -0.06155,-0.04869 -0.0983,-0.115755 -0.03583,-0.06706 -0.04961,-0.14699 l 0.222323,0 q 0.01194,0.04869 0.03399,0.09187 0.02205,0.04226 0.05604,0.0735 0.03399,0.03124 0.08085,0.04961 0.04685,0.01746 0.108406,0.01746 0.04134,0 0.08085,-0.0083 0.04042,-0.0092 0.07166,-0.02848 0.03215,-0.01929 0.05145,-0.05053 0.01929,-0.03215 0.01929,-0.07809 0,-0.0588 -0.03032,-0.103812 -0.0294,-0.04502 -0.07901,-0.08176 -0.04869,-0.03767 -0.112081,-0.06982 -0.06247,-0.03216 -0.127698,-0.06431 -0.06523,-0.03307 -0.128617,-0.06798 -0.06247,-0.03583 -0.11208,-0.07993 -0.04869,-0.0441 -0.07901,-0.09922 -0.0294,-0.05512 -0.0294,-0.12678 0,-0.07809 0.03399,-0.144234 0.03399,-0.06706 0.0983,-0.115755 0.06523,-0.04869 0.158933,-0.07625 0.09371,-0.02756 0.213137,-0.02756 0.09922,0 0.179145,0.02756 0.07993,0.02756 0.14056,0.07533 0.06155,0.04685 0.102893,0.111162 0.04226,0.06431 0.06431,0.138722 l -0.202112,0 q -0.01746,-0.04685 -0.04042,-0.08911 -0.02297,-0.04226 -0.05696,-0.07441 -0.03399,-0.03215 -0.08176,-0.05053 -0.04777,-0.01929 -0.114837,-0.01929 -0.06247,0 -0.105649,0.01654 -0.04318,0.01654 -0.06982,0.04226 -0.02664,0.0248 -0.03859,0.05604 -0.01102,0.03123 -0.01102,0.06155 0,0.05237 0.03032,0.09554 0.03124,0.04226 0.08176,0.07901 0.05145,0.03583 0.115755,0.06982 0.06431,0.03307 0.131373,0.06706 0.06798,0.03399 0.132292,0.07074 0.06523,0.03675 0.115755,0.08176 0.05145,0.0441 0.08176,0.0983 0.03124,0.0542 0.03124,0.122186 0,0.07993 -0.03307,0.148828 -0.03307,0.06798 -0.0983,0.11943 -0.06431,0.05053 -0.160771,0.07993 -0.09554,0.02848 -0.220486,0.02848 z"
         id="path4319"
         inkscape:connector-curvature="0"
         style="fill:#e8e8e8;fill-opacity:1" />
      <path
         d="m 40.723503,75.334112 0,0.622873 -0.320623,0 0,-1.308217 0.320623,0 0,0.573264 0.526411,0 0,-0.573264 0.317867,0 0,1.308217 -0.317867,0 0,-0.622873 -0.526411,0 z"
         id="path4321"
         inkscape:connector-curvature="0"
         style="fill:#e8e8e8;fill-opacity:1" />
      <path
         d="m 42.482569,75.956985 -0.225079,0 0.555808,-0.64584 -0.500687,-0.662377 0.354615,0 0.331648,0.441891 0.382176,-0.441891 0.225998,0 -0.500687,0.583369 0.544785,0.724848 -0.353697,0 -0.381257,-0.50528 -0.433623,0.50528 z"
         id="path4323"
         inkscape:connector-curvature="0"
         style="fill:#e8e8e8;fill-opacity:1" />
    </g>
    <g
       style="font-style:normal;font-variant:normal;font-weight:bold;font-stretch:normal;font-size:1.65364587px;line-height:125%;font-family:'Bangla MN';-inkscape-font-specification:'Bangla MN, Bold';text-align:start;letter-spacing:0px;word-spacing:0px;writing-mode:lr-tb;text-anchor:start;fill:#000000;fill-opacity:1;stroke:none;stroke-width:1px;stroke-linecap:butt;stroke-linejoin:miter;stroke-opacity:1"
       id="g4343"
       transform="translate(5.9970025,19.00086)">
      <path
         d="m 27.7359,57.034688 q -0.117592,0 -0.205787,-0.02756 -0.08819,-0.02756 -0.150665,-0.07625 -0.06155,-0.04869 -0.0983,-0.115755 -0.03583,-0.06706 -0.04961,-0.146991 l 0.222324,0 q 0.01194,0.04869 0.03399,0.09187 0.02205,0.04226 0.05604,0.0735 0.03399,0.03124 0.08085,0.04961 0.04685,0.01745 0.108405,0.01745 0.04134,0 0.08085,-0.0083 0.04042,-0.0092 0.07166,-0.02848 0.03215,-0.01929 0.05145,-0.05053 0.01929,-0.03215 0.01929,-0.07809 0,-0.0588 -0.03032,-0.103812 -0.0294,-0.04502 -0.07901,-0.08176 -0.04869,-0.03767 -0.11208,-0.06982 -0.06247,-0.03215 -0.127698,-0.06431 -0.06523,-0.03307 -0.128617,-0.06798 -0.06247,-0.03583 -0.112081,-0.07993 -0.04869,-0.0441 -0.07901,-0.09922 -0.0294,-0.05512 -0.0294,-0.126779 0,-0.07809 0.03399,-0.144235 0.03399,-0.06706 0.0983,-0.115755 0.06523,-0.04869 0.158934,-0.07625 0.09371,-0.02756 0.213136,-0.02756 0.09922,0 0.179145,0.02756 0.07993,0.02756 0.14056,0.07533 0.06155,0.04685 0.102894,0.111162 0.04226,0.06431 0.06431,0.138722 l -0.202112,0 q -0.01745,-0.04685 -0.04042,-0.08911 -0.02297,-0.04226 -0.05696,-0.07441 -0.03399,-0.03215 -0.08176,-0.05053 -0.04777,-0.01929 -0.114836,-0.01929 -0.06247,0 -0.10565,0.01654 -0.04318,0.01654 -0.06982,0.04226 -0.02664,0.02481 -0.03858,0.05604 -0.01102,0.03124 -0.01102,0.06155 0,0.05237 0.03032,0.09554 0.03124,0.04226 0.08176,0.07901 0.05145,0.03583 0.115756,0.06982 0.06431,0.03307 0.131373,0.06706 0.06798,0.03399 0.132291,0.07074 0.06523,0.03675 0.115755,0.08176 0.05145,0.0441 0.08176,0.0983 0.03124,0.0542 0.03124,0.122186 0,0.07993 -0.03307,0.148828 -0.03307,0.06798 -0.0983,0.11943 -0.06431,0.05053 -0.160771,0.07993 -0.09554,0.02848 -0.220487,0.02848 z"
         id="path4345"
         inkscape:connector-curvature="0" />
      <path
         d="m 28.815306,56.359449 q 0,0.12678 0.03859,0.224161 0.03858,0.09738 0.101975,0.163527 0.06431,0.06615 0.146991,0.100138 0.0836,0.03399 0.172714,0.03399 0.0689,0 0.127698,-0.02389 0.05971,-0.02389 0.111162,-0.06339 0.05237,-0.04042 0.09738,-0.09279 0.04502,-0.05328 0.08636,-0.112081 l 0.134129,0.0983 q -0.04318,0.06982 -0.10473,0.134129 -0.06063,0.06431 -0.136886,0.113918 -0.07625,0.04961 -0.166283,0.07901 -0.09003,0.0294 -0.190169,0.0294 -0.169039,0 -0.311437,-0.04869 -0.141478,-0.04961 -0.245291,-0.139641 -0.102893,-0.09003 -0.160771,-0.215893 -0.05788,-0.12586 -0.05788,-0.280201 0,-0.09922 0.0248,-0.188332 0.02481,-0.09003 0.07074,-0.166283 0.04685,-0.07625 0.113918,-0.136885 0.06706,-0.06155 0.150665,-0.104731 0.08452,-0.04318 0.184657,-0.06615 0.100138,-0.02297 0.212218,-0.02297 0.112999,0 0.206706,0.02664 0.09463,0.02572 0.170877,0.0735 0.07717,0.04685 0.136885,0.112081 0.06063,0.06523 0.106568,0.142397 l -0.135966,0.09463 q -0.04134,-0.0588 -0.09003,-0.110243 -0.04777,-0.05237 -0.102894,-0.09095 -0.05512,-0.0395 -0.115755,-0.06247 -0.06063,-0.02297 -0.12678,-0.02297 -0.09003,0 -0.171795,0.03399 -0.08176,0.03399 -0.144235,0.100137 -0.06155,0.06615 -0.0983,0.163528 -0.03583,0.09738 -0.03583,0.225079 z"
         id="path4347"
         inkscape:connector-curvature="0" />
      <path
         d="m 30.099796,55.706259 0.320623,0 0,1.174089 0.66789,0 0,0.134129 -0.988513,0 0,-1.308218 z"
         id="path4349"
         inkscape:connector-curvature="0" />
    </g>
    <g
       style="font-style:normal;font-variant:normal;font-weight:bold;font-stretch:normal;font-size:1.65364587px;line-height:125%;font-family:'Bangla MN';-inkscape-font-specification:'Bangla MN, Bold';text-align:start;letter-spacing:0px;word-spacing:0px;writing-mode:lr-tb;text-anchor:start;fill:#000000;fill-opacity:1;stroke:none;stroke-width:1px;stroke-linecap:butt;stroke-linejoin:miter;stroke-opacity:1"
       id="g4351"
       transform="translate(5.9970025,19.00086)">
      <path
         d="m 20.364062,55.706259 0.322461,0 0,0.4915 0.579695,-0.4915 0.248965,0 -0.654108,0.553053 0.829579,0.755165 -0.388607,0 -0.615524,-0.560402 0,0.560402 -0.322461,0 0,-1.308218 z"
         id="path4353"
         inkscape:connector-curvature="0" />
      <path
         d="m 22.761734,55.706259 0,0.111162 -0.655946,0 0,0.431785 0.544784,0 0,0.112081 -0.544784,0 0,0.519061 0.655946,0 0,0.134129 -0.97657,0 0,-1.308218 0.97657,0 z"
         id="path4355"
         inkscape:connector-curvature="0" />
      <path
         d="m 23.204098,55.706259 0.430867,0.588882 0.403306,-0.588882 0.216811,0 -0.509874,0.742303 0,0.565915 -0.321542,0 0,-0.546622 -0.555809,-0.761596 0.336241,0 z"
         id="path4357"
         inkscape:connector-curvature="0" />
    </g>
    <g
       style="font-style:normal;font-variant:normal;font-weight:bold;font-stretch:normal;font-size:1.65364587px;line-height:125%;font-family:'Bangla MN';-inkscape-font-specification:'Bangla MN, Bold';text-align:start;letter-spacing:0px;word-spacing:0px;writing-mode:lr-tb;text-anchor:start;fill:#000000;fill-opacity:1;stroke:none;stroke-width:1px;stroke-linecap:butt;stroke-linejoin:miter;stroke-opacity:1"
       id="g4359"
       transform="translate(5.9970025,19.00086)">
      <path
         d="m 13.961234,57.043875 q -0.105649,0 -0.202112,-0.02389 -0.09646,-0.02297 -0.179145,-0.06615 -0.08268,-0.04318 -0.150666,-0.104731 -0.06798,-0.06155 -0.115755,-0.138722 -0.04777,-0.07717 -0.07441,-0.167202 -0.02572,-0.09095 -0.02572,-0.192007 0,-0.09922 0.02572,-0.187413 0.02664,-0.08911 0.07441,-0.163527 0.04777,-0.07441 0.115755,-0.134129 0.06798,-0.06063 0.150666,-0.101975 0.08268,-0.04134 0.179145,-0.06339 0.09646,-0.02297 0.202112,-0.02297 0.10565,0 0.202113,0.02297 0.09646,0.02205 0.179144,0.06431 0.08268,0.04134 0.150666,0.101057 0.06798,0.05971 0.115755,0.134129 0.04777,0.07441 0.0735,0.162608 0.02664,0.08819 0.02664,0.186495 0,0.103812 -0.02664,0.195681 -0.02572,0.09187 -0.0735,0.169039 -0.04777,0.07717 -0.115755,0.138723 -0.06798,0.06063 -0.150666,0.103812 -0.08268,0.04226 -0.179144,0.06431 -0.09646,0.02297 -0.202113,0.02297 z m 0,-0.111162 q 0.09554,0 0.168121,-0.04318 0.07349,-0.0441 0.123105,-0.121268 0.04961,-0.07809 0.07441,-0.184657 0.02572,-0.106568 0.02572,-0.232429 0,-0.124023 -0.02572,-0.226917 -0.02481,-0.103812 -0.07441,-0.178226 -0.04961,-0.07441 -0.123105,-0.115755 -0.07258,-0.04134 -0.168121,-0.04134 -0.09646,0 -0.169958,0.04134 -0.07349,0.04134 -0.123105,0.115755 -0.04869,0.07441 -0.07441,0.178226 -0.0248,0.102894 -0.0248,0.226917 0,0.125861 0.0248,0.232429 0.02572,0.106568 0.07441,0.184657 0.04961,0.07717 0.123105,0.121268 0.0735,0.04318 0.169958,0.04318 z"
         id="path4361"
         inkscape:connector-curvature="0" />
      <path
         d="m 15.259906,56.359449 q 0,0.12678 0.03858,0.224161 0.03858,0.09738 0.101975,0.163527 0.06431,0.06615 0.146991,0.100138 0.0836,0.03399 0.172714,0.03399 0.0689,0 0.127698,-0.02389 0.05972,-0.02389 0.111162,-0.06339 0.05237,-0.04042 0.09738,-0.09279 0.04502,-0.05328 0.08636,-0.112081 l 0.134129,0.0983 q -0.04318,0.06982 -0.104731,0.134129 -0.06063,0.06431 -0.136885,0.113918 -0.07625,0.04961 -0.166283,0.07901 -0.09003,0.0294 -0.190169,0.0294 -0.16904,0 -0.311437,-0.04869 -0.141479,-0.04961 -0.245291,-0.139641 -0.102893,-0.09003 -0.160771,-0.215893 -0.05788,-0.12586 -0.05788,-0.280201 0,-0.09922 0.0248,-0.188332 0.02481,-0.09003 0.07074,-0.166283 0.04685,-0.07625 0.113918,-0.136885 0.06707,-0.06155 0.150666,-0.104731 0.08452,-0.04318 0.184657,-0.06615 0.100137,-0.02297 0.212218,-0.02297 0.112999,0 0.206706,0.02664 0.09462,0.02572 0.170876,0.0735 0.07717,0.04685 0.136885,0.112081 0.06063,0.06523 0.106569,0.142397 l -0.135967,0.09463 q -0.04134,-0.0588 -0.09003,-0.110243 -0.04777,-0.05237 -0.102893,-0.09095 -0.05512,-0.0395 -0.115755,-0.06247 -0.06063,-0.02297 -0.12678,-0.02297 -0.09003,0 -0.171795,0.03399 -0.08176,0.03399 -0.144235,0.100137 -0.06155,0.06615 -0.0983,0.163528 -0.03583,0.09738 -0.03583,0.225079 z"
         id="path4363"
         inkscape:connector-curvature="0" />
      <path
         d="m 17.67898,55.706259 0,0.111162 -0.452915,0 0,1.197056 -0.320623,0 0,-1.197056 -0.452916,0 0,-0.111162 1.226454,0 z"
         id="path4365"
         inkscape:connector-curvature="0" />
    </g>
    <g
       transform="translate(5.9970025,28.565836)"
       id="g4367"
       style="font-style:normal;font-variant:normal;font-weight:bold;font-stretch:normal;font-size:1.65364587px;line-height:125%;font-family:'Bangla MN';-inkscape-font-specification:'Bangla MN, Bold';text-align:start;letter-spacing:0px;word-spacing:0px;writing-mode:lr-tb;text-anchor:start;fill:#000000;fill-opacity:1;stroke:none;stroke-width:1px;stroke-linecap:butt;stroke-linejoin:miter;stroke-opacity:1">
      <path
         inkscape:connector-curvature="0"
         id="path4369"
         d="m 27.7359,57.034688 q -0.117592,0 -0.205787,-0.02756 -0.08819,-0.02756 -0.150665,-0.07625 -0.06155,-0.04869 -0.0983,-0.115755 -0.03583,-0.06706 -0.04961,-0.146991 l 0.222324,0 q 0.01194,0.04869 0.03399,0.09187 0.02205,0.04226 0.05604,0.0735 0.03399,0.03124 0.08085,0.04961 0.04685,0.01745 0.108405,0.01745 0.04134,0 0.08085,-0.0083 0.04042,-0.0092 0.07166,-0.02848 0.03215,-0.01929 0.05145,-0.05053 0.01929,-0.03215 0.01929,-0.07809 0,-0.0588 -0.03032,-0.103812 -0.0294,-0.04502 -0.07901,-0.08176 -0.04869,-0.03767 -0.11208,-0.06982 -0.06247,-0.03215 -0.127698,-0.06431 -0.06523,-0.03307 -0.128617,-0.06798 -0.06247,-0.03583 -0.112081,-0.07993 -0.04869,-0.0441 -0.07901,-0.09922 -0.0294,-0.05512 -0.0294,-0.126779 0,-0.07809 0.03399,-0.144235 0.03399,-0.06706 0.0983,-0.115755 0.06523,-0.04869 0.158934,-0.07625 0.09371,-0.02756 0.213136,-0.02756 0.09922,0 0.179145,0.02756 0.07993,0.02756 0.14056,0.07533 0.06155,0.04685 0.102894,0.111162 0.04226,0.06431 0.06431,0.138722 l -0.202112,0 q -0.01745,-0.04685 -0.04042,-0.08911 -0.02297,-0.04226 -0.05696,-0.07441 -0.03399,-0.03215 -0.08176,-0.05053 -0.04777,-0.01929 -0.114836,-0.01929 -0.06247,0 -0.10565,0.01654 -0.04318,0.01654 -0.06982,0.04226 -0.02664,0.02481 -0.03858,0.05604 -0.01102,0.03124 -0.01102,0.06155 0,0.05237 0.03032,0.09554 0.03124,0.04226 0.08176,0.07901 0.05145,0.03583 0.115756,0.06982 0.06431,0.03307 0.131373,0.06706 0.06798,0.03399 0.132291,0.07074 0.06523,0.03675 0.115755,0.08176 0.05145,0.0441 0.08176,0.0983 0.03124,0.0542 0.03124,0.122186 0,0.07993 -0.03307,0.148828 -0.03307,0.06798 -0.0983,0.11943 -0.06431,0.05053 -0.160771,0.07993 -0.09554,0.02848 -0.220487,0.02848 z" />
      <path
         inkscape:connector-curvature="0"
         id="path4371"
         d="m 28.815306,56.359449 q 0,0.12678 0.03859,0.224161 0.03858,0.09738 0.101975,0.163527 0.06431,0.06615 0.146991,0.100138 0.0836,0.03399 0.172714,0.03399 0.0689,0 0.127698,-0.02389 0.05971,-0.02389 0.111162,-0.06339 0.05237,-0.04042 0.09738,-0.09279 0.04502,-0.05328 0.08636,-0.112081 l 0.134129,0.0983 q -0.04318,0.06982 -0.10473,0.134129 -0.06063,0.06431 -0.136886,0.113918 -0.07625,0.04961 -0.166283,0.07901 -0.09003,0.0294 -0.190169,0.0294 -0.169039,0 -0.311437,-0.04869 -0.141478,-0.04961 -0.245291,-0.139641 -0.102893,-0.09003 -0.160771,-0.215893 -0.05788,-0.12586 -0.05788,-0.280201 0,-0.09922 0.0248,-0.188332 0.02481,-0.09003 0.07074,-0.166283 0.04685,-0.07625 0.113918,-0.136885 0.06706,-0.06155 0.150665,-0.104731 0.08452,-0.04318 0.184657,-0.06615 0.100138,-0.02297 0.212218,-0.02297 0.112999,0 0.206706,0.02664 0.09463,0.02572 0.170877,0.0735 0.07717,0.04685 0.136885,0.112081 0.06063,0.06523 0.106568,0.142397 l -0.135966,0.09463 q -0.04134,-0.0588 -0.09003,-0.110243 -0.04777,-0.05237 -0.102894,-0.09095 -0.05512,-0.0395 -0.115755,-0.06247 -0.06063,-0.02297 -0.12678,-0.02297 -0.09003,0 -0.171795,0.03399 -0.08176,0.03399 -0.144235,0.100137 -0.06155,0.06615 -0.0983,0.163528 -0.03583,0.09738 -0.03583,0.225079 z" />
      <path
         inkscape:connector-curvature="0"
         id="path4373"
         d="m 30.099796,55.706259 0.320623,0 0,1.174089 0.66789,0 0,0.134129 -0.988513,0 0,-1.308218 z" />
    </g>
    <g
       transform="translate(5.9970025,28.565836)"
       id="g4375"
       style="font-style:normal;font-variant:normal;font-weight:bold;font-stretch:normal;font-size:1.65364587px;line-height:125%;font-family:'Bangla MN';-inkscape-font-specification:'Bangla MN, Bold';text-align:start;letter-spacing:0px;word-spacing:0px;writing-mode:lr-tb;text-anchor:start;fill:#000000;fill-opacity:1;stroke:none;stroke-width:1px;stroke-linecap:butt;stroke-linejoin:miter;stroke-opacity:1">
      <path
         inkscape:connector-curvature="0"
         id="path4377"
         d="m 20.364062,55.706259 0.322461,0 0,0.4915 0.579695,-0.4915 0.248965,0 -0.654108,0.553053 0.829579,0.755165 -0.388607,0 -0.615524,-0.560402 0,0.560402 -0.322461,0 0,-1.308218 z" />
      <path
         inkscape:connector-curvature="0"
         id="path4379"
         d="m 22.761734,55.706259 0,0.111162 -0.655946,0 0,0.431785 0.544784,0 0,0.112081 -0.544784,0 0,0.519061 0.655946,0 0,0.134129 -0.97657,0 0,-1.308218 0.97657,0 z" />
      <path
         inkscape:connector-curvature="0"
         id="path4381"
         d="m 23.204098,55.706259 0.430867,0.588882 0.403306,-0.588882 0.216811,0 -0.509874,0.742303 0,0.565915 -0.321542,0 0,-0.546622 -0.555809,-0.761596 0.336241,0 z" />
    </g>
    <g
       transform="translate(5.9970025,28.565836)"
       id="g4383"
       style="font-style:normal;font-variant:normal;font-weight:bold;font-stretch:normal;font-size:1.65364587px;line-height:125%;font-family:'Bangla MN';-inkscape-font-specification:'Bangla MN, Bold';text-align:start;letter-spacing:0px;word-spacing:0px;writing-mode:lr-tb;text-anchor:start;fill:#000000;fill-opacity:1;stroke:none;stroke-width:1px;stroke-linecap:butt;stroke-linejoin:miter;stroke-opacity:1">
      <path
         inkscape:connector-curvature="0"
         id="path4385"
         d="m 13.961234,57.043875 q -0.105649,0 -0.202112,-0.02389 -0.09646,-0.02297 -0.179145,-0.06615 -0.08268,-0.04318 -0.150666,-0.104731 -0.06798,-0.06155 -0.115755,-0.138722 -0.04777,-0.07717 -0.07441,-0.167202 -0.02572,-0.09095 -0.02572,-0.192007 0,-0.09922 0.02572,-0.187413 0.02664,-0.08911 0.07441,-0.163527 0.04777,-0.07441 0.115755,-0.134129 0.06798,-0.06063 0.150666,-0.101975 0.08268,-0.04134 0.179145,-0.06339 0.09646,-0.02297 0.202112,-0.02297 0.10565,0 0.202113,0.02297 0.09646,0.02205 0.179144,0.06431 0.08268,0.04134 0.150666,0.101057 0.06798,0.05971 0.115755,0.134129 0.04777,0.07441 0.0735,0.162608 0.02664,0.08819 0.02664,0.186495 0,0.103812 -0.02664,0.195681 -0.02572,0.09187 -0.0735,0.169039 -0.04777,0.07717 -0.115755,0.138723 -0.06798,0.06063 -0.150666,0.103812 -0.08268,0.04226 -0.179144,0.06431 -0.09646,0.02297 -0.202113,0.02297 z m 0,-0.111162 q 0.09554,0 0.168121,-0.04318 0.07349,-0.0441 0.123105,-0.121268 0.04961,-0.07809 0.07441,-0.184657 0.02572,-0.106568 0.02572,-0.232429 0,-0.124023 -0.02572,-0.226917 -0.02481,-0.103812 -0.07441,-0.178226 -0.04961,-0.07441 -0.123105,-0.115755 -0.07258,-0.04134 -0.168121,-0.04134 -0.09646,0 -0.169958,0.04134 -0.07349,0.04134 -0.123105,0.115755 -0.04869,0.07441 -0.07441,0.178226 -0.0248,0.102894 -0.0248,0.226917 0,0.125861 0.0248,0.232429 0.02572,0.106568 0.07441,0.184657 0.04961,0.07717 0.123105,0.121268 0.0735,0.04318 0.169958,0.04318 z" />
      <path
         inkscape:connector-curvature="0"
         id="path4387"
         d="m 15.259906,56.359449 q 0,0.12678 0.03858,0.224161 0.03858,0.09738 0.101975,0.163527 0.06431,0.06615 0.146991,0.100138 0.0836,0.03399 0.172714,0.03399 0.0689,0 0.127698,-0.02389 0.05972,-0.02389 0.111162,-0.06339 0.05237,-0.04042 0.09738,-0.09279 0.04502,-0.05328 0.08636,-0.112081 l 0.134129,0.0983 q -0.04318,0.06982 -0.104731,0.134129 -0.06063,0.06431 -0.136885,0.113918 -0.07625,0.04961 -0.166283,0.07901 -0.09003,0.0294 -0.190169,0.0294 -0.16904,0 -0.311437,-0.04869 -0.141479,-0.04961 -0.245291,-0.139641 -0.102893,-0.09003 -0.160771,-0.215893 -0.05788,-0.12586 -0.05788,-0.280201 0,-0.09922 0.0248,-0.188332 0.02481,-0.09003 0.07074,-0.166283 0.04685,-0.07625 0.113918,-0.136885 0.06707,-0.06155 0.150666,-0.104731 0.08452,-0.04318 0.184657,-0.06615 0.100137,-0.02297 0.212218,-0.02297 0.112999,0 0.206706,0.02664 0.09462,0.02572 0.170876,0.0735 0.07717,0.04685 0.136885,0.112081 0.06063,0.06523 0.106569,0.142397 l -0.135967,0.09463 q -0.04134,-0.0588 -0.09003,-0.110243 -0.04777,-0.05237 -0.102893,-0.09095 -0.05512,-0.0395 -0.115755,-0.06247 -0.06063,-0.02297 -0.12678,-0.02297 -0.09003,0 -0.171795,0.03399 -0.08176,0.03399 -0.144235,0.100137 -0.06155,0.06615 -0.0983,0.163528 -0.03583,0.09738 -0.03583,0.225079 z" />
      <path
         inkscape:connector-curvature="0"
         id="path4389"
         d="m 17.67898,55.706259 0,0.111162 -0.452915,0 0,1.197056 -0.320623,0 0,-1.197056 -0.452916,0 0,-0.111162 1.226454,0 z" />
    </g>
    <path
       style="fill:#e8e8e8;fill-opacity:1;stroke:#000000;stroke-width:0.15818816;stroke-linecap:butt;stroke-linejoin:round;stroke-miterlimit:4;stroke-dasharray:none;stroke-dashoffset:0;stroke-opacity:1"
       d="m 13.36715,88.398347 3.924889,4.332783 0,-18.437968 -3.92489,4.670401 z"
       id="rect4393"
       inkscape:connector-curvature="0"
       sodipodi:nodetypes="ccccc" />
    <path
       sodipodi:nodetypes="ccccc"
       inkscape:connector-curvature="0"
       id="path4396"
       d="m 13.364904,88.144373 3.929382,4.082626 0,-17.373437 -3.929383,4.400753 z"
       style="fill:#000000;fill-opacity:0;stroke:#000000;stroke-width:0.15364161;stroke-linecap:butt;stroke-linejoin:round;stroke-miterlimit:4;stroke-dasharray:none;stroke-dashoffset:0;stroke-opacity:1" />
    <path
       style="fill:#000000;fill-opacity:0;stroke:#000000;stroke-width:0.14692545;stroke-linecap:butt;stroke-linejoin:round;stroke-miterlimit:4;stroke-dasharray:none;stroke-dashoffset:0;stroke-opacity:1"
       d="m 13.361584,87.827956 3.93602,3.727202 0,-15.860943 -3.936021,4.017633 z"
       id="path4398"
       inkscape:connector-curvature="0"
       sodipodi:nodetypes="ccccc" />
    <path
       sodipodi:nodetypes="ccccc"
       inkscape:connector-curvature="0"
       id="path4401"
       d="m 13.411709,87.431239 3.83577,3.329801 0,-14.169824 -3.835771,3.589268 z"
       style="fill:#000000;fill-opacity:0;stroke:#000000;stroke-width:0.13709208;stroke-linecap:butt;stroke-linejoin:round;stroke-miterlimit:4;stroke-dasharray:none;stroke-dashoffset:0;stroke-opacity:1" />
    <path
       style="fill:#000000;fill-opacity:0;stroke:#000000;stroke-width:0.13171108;stroke-linecap:butt;stroke-linejoin:round;stroke-miterlimit:4;stroke-dasharray:none;stroke-dashoffset:0;stroke-opacity:1"
       d="m 13.40905,87.13744 3.841088,3.069277 0,-13.061178 -3.841089,3.308444 z"
       id="path4404"
       inkscape:connector-curvature="0"
       sodipodi:nodetypes="ccccc" />
    <path
       sodipodi:nodetypes="ccccc"
       inkscape:connector-curvature="0"
       id="path4406"
       d="m 13.405967,86.832132 3.847254,2.780908 0,-11.834035 -3.847255,2.997604 z"
       style="fill:#000000;fill-opacity:0;stroke:#000000;stroke-width:0.12547173;stroke-linecap:butt;stroke-linejoin:round;stroke-miterlimit:4;stroke-dasharray:none;stroke-dashoffset:0;stroke-opacity:1" />
    <path
       style="fill:#000000;fill-opacity:0;stroke:#000000;stroke-width:0.11976095;stroke-linecap:butt;stroke-linejoin:round;stroke-miterlimit:4;stroke-dasharray:none;stroke-dashoffset:0;stroke-opacity:1"
       d="m 13.403143,86.568861 3.852902,2.529812 0,-10.765514 -3.852903,2.726946 z"
       id="path4409"
       inkscape:connector-curvature="0"
       sodipodi:nodetypes="ccccc" />
    <path
       sodipodi:nodetypes="ccccc"
       inkscape:connector-curvature="0"
       id="path4411"
       d="m 13.400398,86.326635 3.858392,2.297381 0,-9.776411 -3.858393,2.476403 z"
       style="fill:#000000;fill-opacity:0;stroke:#000000;stroke-width:0.11420805;stroke-linecap:butt;stroke-linejoin:round;stroke-miterlimit:4;stroke-dasharray:none;stroke-dashoffset:0;stroke-opacity:1" />
    <path
       style="fill:#000000;fill-opacity:0;stroke:#000000;stroke-width:0.10835962;stroke-linecap:butt;stroke-linejoin:round;stroke-miterlimit:4;stroke-dasharray:none;stroke-dashoffset:0;stroke-opacity:1"
       d="m 13.397508,86.084488 3.864172,2.065021 0,-8.787606 -3.864173,2.225934 z"
       id="path4413"
       inkscape:connector-curvature="0"
       sodipodi:nodetypes="ccccc" />
    <path
       sodipodi:nodetypes="ccccc"
       inkscape:connector-curvature="0"
       id="path4415"
       d="m 13.394823,85.853968 3.869542,1.860611 0,-7.917746 -3.869543,2.005595 z"
       style="fill:#000000;fill-opacity:0;stroke:#000000;stroke-width:0.10292822;stroke-linecap:butt;stroke-linejoin:round;stroke-miterlimit:4;stroke-dasharray:none;stroke-dashoffset:0;stroke-opacity:1" />
    <path
       style="fill:#000000;fill-opacity:0;stroke:#000000;stroke-width:0.09637246;stroke-linecap:butt;stroke-linejoin:round;stroke-miterlimit:4;stroke-dasharray:none;stroke-dashoffset:0;stroke-opacity:1"
       d="m 13.391583,85.612011 3.876023,1.628417 0,-6.929656 -3.876024,1.755308 z"
       id="path4417"
       inkscape:connector-curvature="0"
       sodipodi:nodetypes="ccccc" />
    <path
       sodipodi:nodetypes="ccccc"
       inkscape:connector-curvature="0"
       id="path4419"
       d="m 13.388242,85.36076 3.882704,1.405621 0,-5.981561 -3.882705,1.515152 z"
       style="fill:#000000;fill-opacity:0;stroke:#000000;stroke-width:0.08961447;stroke-linecap:butt;stroke-linejoin:round;stroke-miterlimit:4;stroke-dasharray:none;stroke-dashoffset:0;stroke-opacity:1" />
    <path
       style="fill:#000000;fill-opacity:0;stroke:#000000;stroke-width:0.08164652;stroke-linecap:butt;stroke-linejoin:round;stroke-miterlimit:4;stroke-dasharray:none;stroke-dashoffset:0;stroke-opacity:1"
       d="m 13.384304,85.128531 3.890581,1.164414 0,-4.955111 -3.890582,1.255149 z"
       id="path4421"
       inkscape:connector-curvature="0"
       sodipodi:nodetypes="ccccc" />
    <path
       sodipodi:nodetypes="ccccc"
       inkscape:connector-curvature="0"
       id="path4423"
       d="m 13.380104,84.887095 3.898979,0.932682 0,-3.968986 -3.89898,1.00536 z"
       style="fill:#000000;fill-opacity:0;stroke:#000000;stroke-width:0.07315077;stroke-linecap:butt;stroke-linejoin:round;stroke-miterlimit:4;stroke-dasharray:none;stroke-dashoffset:0;stroke-opacity:1" />
    <path
       style="fill:#000000;fill-opacity:0;stroke:#000000;stroke-width:0.0655499;stroke-linecap:butt;stroke-linejoin:round;stroke-miterlimit:4;stroke-dasharray:none;stroke-dashoffset:0;stroke-opacity:1"
       d="m 13.376348,84.678246 3.906492,0.747488 0,-3.180898 -3.906493,0.805732 z"
       id="path4425"
       inkscape:connector-curvature="0"
       sodipodi:nodetypes="ccccc" />
    <rect
       style="fill:#e8e8e8;fill-opacity:1;stroke:#000000;stroke-width:0.15974049;stroke-linecap:butt;stroke-linejoin:round;stroke-miterlimit:4;stroke-dasharray:none;stroke-dashoffset:0;stroke-opacity:1"
       id="rect4443"
       width="7.1673155"
       height="18.373316"
       x="5.7915463"
       y="-92.763184"
       transform="scale(1,-1)" />
    <g
       style="font-style:normal;font-variant:normal;font-weight:bold;font-stretch:normal;font-size:1.65364587px;line-height:125%;font-family:'Bangla MN';-inkscape-font-specification:'Bangla MN, Bold';text-align:start;letter-spacing:0px;word-spacing:0px;writing-mode:lr-tb;text-anchor:start;fill:#000000;fill-opacity:1;stroke:none;stroke-width:1px;stroke-linecap:butt;stroke-linejoin:miter;stroke-opacity:1"
       id="text4227">
      <path
         d="m 6.5188615,74.7633 0.3206236,0 0,1.174089 0.6678892,0 0,0.134129 -0.9885128,0 0,-1.308218 z"
         id="path4446"
         inkscape:connector-curvature="0" />
      <path
         d="m 8.3927926,76.100916 q -0.1056496,0 -0.2021123,-0.02389 -0.096463,-0.02297 -0.1791449,-0.06615 -0.082682,-0.04318 -0.1506656,-0.104731 -0.067983,-0.06155 -0.1157552,-0.138722 -0.047772,-0.07717 -0.074414,-0.167202 -0.025723,-0.09095 -0.025723,-0.192007 0,-0.09922 0.025723,-0.187413 0.026642,-0.08911 0.074414,-0.163527 0.047772,-0.07441 0.1157552,-0.134129 0.067983,-0.06063 0.1506656,-0.101975 0.082682,-0.04134 0.1791449,-0.06339 0.096463,-0.02297 0.2021123,-0.02297 0.1056496,0 0.2021123,0.02297 0.096463,0.02205 0.1791449,0.06431 0.082682,0.04134 0.1506656,0.101056 0.067983,0.05971 0.1157552,0.134129 0.047772,0.07441 0.073495,0.162608 0.026642,0.08819 0.026642,0.186495 0,0.103812 -0.026642,0.195681 -0.025723,0.09187 -0.073495,0.16904 -0.047772,0.07717 -0.1157552,0.138722 -0.067983,0.06063 -0.1506656,0.103812 -0.082682,0.04226 -0.1791449,0.06431 -0.096463,0.02297 -0.2021123,0.02297 z m 0,-0.111162 q 0.095544,0 0.1681207,-0.04318 0.073495,-0.0441 0.1231047,-0.121268 0.049609,-0.07809 0.074414,-0.184657 0.025723,-0.106568 0.025723,-0.232429 0,-0.124023 -0.025723,-0.226917 -0.024805,-0.103812 -0.074414,-0.178226 -0.049609,-0.07441 -0.1231047,-0.115755 -0.072577,-0.04134 -0.1681207,-0.04134 -0.096463,0 -0.169958,0.04134 -0.073495,0.04134 -0.1231048,0.115755 -0.048691,0.07441 -0.074414,0.178226 -0.024805,0.102894 -0.024805,0.226917 0,0.125861 0.024805,0.232429 0.025723,0.106569 0.074414,0.184657 0.049609,0.07717 0.1231048,0.121268 0.073495,0.04318 0.169958,0.04318 z"
         id="path4448"
         inkscape:connector-curvature="0" />
      <path
         d="m 10.069047,76.100916 q -0.1056497,0 -0.2021124,-0.02389 -0.096463,-0.02297 -0.179145,-0.06615 -0.082682,-0.04318 -0.1506655,-0.104731 -0.067983,-0.06155 -0.1157552,-0.138722 -0.047772,-0.07717 -0.074414,-0.167202 -0.025723,-0.09095 -0.025723,-0.192007 0,-0.09922 0.025723,-0.187413 0.026642,-0.08911 0.074414,-0.163527 0.047772,-0.07441 0.1157552,-0.134129 0.067983,-0.06063 0.1506655,-0.101975 0.082682,-0.04134 0.179145,-0.06339 0.096463,-0.02297 0.2021124,-0.02297 0.105649,0 0.202112,0.02297 0.09646,0.02205 0.179145,0.06431 0.08268,0.04134 0.150666,0.101056 0.06798,0.05971 0.115755,0.134129 0.04777,0.07441 0.07349,0.162608 0.02664,0.08819 0.02664,0.186495 0,0.103812 -0.02664,0.195681 -0.02572,0.09187 -0.07349,0.16904 -0.04777,0.07717 -0.115755,0.138722 -0.06798,0.06063 -0.150666,0.103812 -0.08268,0.04226 -0.179145,0.06431 -0.09646,0.02297 -0.202112,0.02297 z m 0,-0.111162 q 0.09554,0 0.168121,-0.04318 0.07349,-0.0441 0.123104,-0.121268 0.04961,-0.07809 0.07441,-0.184657 0.02572,-0.106568 0.02572,-0.232429 0,-0.124023 -0.02572,-0.226917 -0.0248,-0.103812 -0.07441,-0.178226 -0.04961,-0.07441 -0.123104,-0.115755 -0.07258,-0.04134 -0.168121,-0.04134 -0.096463,0 -0.1699582,0.04134 -0.073495,0.04134 -0.1231047,0.115755 -0.048691,0.07441 -0.074414,0.178226 -0.024805,0.102894 -0.024805,0.226917 0,0.125861 0.024805,0.232429 0.025723,0.106569 0.074414,0.184657 0.049609,0.07717 0.1231047,0.121268 0.073495,0.04318 0.1699582,0.04318 z"
         id="path4450"
         inkscape:connector-curvature="0" />
      <path
         d="m 11.066388,74.7633 0.455671,0 q 0.110243,0 0.205787,0.02389 0.09646,0.02297 0.167202,0.0689 0.07074,0.04594 0.111162,0.114837 0.04134,0.0689 0.04134,0.160771 0,0.09279 -0.04042,0.16169 -0.04042,0.0689 -0.106569,0.114836 -0.06523,0.04594 -0.149746,0.0689 -0.08452,0.02297 -0.172715,0.02297 l -0.18925,0 0,0.571427 -0.322461,0 0,-1.308218 z m 0.322461,0.61828 0.104731,0 q 0.0542,0 0.09463,-0.01929 0.04134,-0.02021 0.06798,-0.0542 0.02756,-0.03399 0.04042,-0.07809 0.01378,-0.04502 0.01378,-0.09371 0,-0.0588 -0.01745,-0.104731 -0.01745,-0.04593 -0.04869,-0.07717 -0.03032,-0.03123 -0.07166,-0.04777 -0.04134,-0.01654 -0.08819,-0.01654 l -0.09554,0 0,0.4915 z"
         id="path4452"
         inkscape:connector-curvature="0" />
    </g>
  </g>
</svg>
