<?xml version="1.0" encoding="UTF-8" standalone="no"?>
<!-- Created with Inkscape (http://www.inkscape.org/) -->

<svg
   xmlns:osb="http://www.openswatchbook.org/uri/2009/osb"
   xmlns:dc="http://purl.org/dc/elements/1.1/"
   xmlns:cc="http://creativecommons.org/ns#"
   xmlns:rdf="http://www.w3.org/1999/02/22-rdf-syntax-ns#"
   xmlns:svg="http://www.w3.org/2000/svg"
   xmlns="http://www.w3.org/2000/svg"
   xmlns:sodipodi="http://sodipodi.sourceforge.net/DTD/sodipodi-0.dtd"
   xmlns:inkscape="http://www.inkscape.org/namespaces/inkscape"
   width="300"
   height="380"
   viewBox="0 0 79.375003 100.54167"
   version="1.1"
   id="svg8"
   inkscape:version="0.91 r13725"
   sodipodi:docname="MusicalAnt0.2.svg">
  <defs
     id="defs2">
    <linearGradient
       id="linearGradient4385"
       osb:paint="solid">
      <stop
         style="stop-color:#ffffff;stop-opacity:0.69040245;"
         offset="0"
         id="stop4387" />
    </linearGradient>
    <clipPath
       clipPathUnits="userSpaceOnUse"
       id="clipPath3571">
      <rect
         style="fill:#82ff9b;fill-opacity:1"
         id="rect3573"
         width="79.375"
         height="100.54167"
         x="0"
         y="196.45831" />
    </clipPath>
  </defs>
  <sodipodi:namedview
     id="base"
     pagecolor="#ffffff"
     bordercolor="#666666"
     borderopacity="1.0"
     inkscape:pageopacity="0.0"
     inkscape:pageshadow="2"
     inkscape:zoom="1.3995495"
     inkscape:cx="68.506783"
     inkscape:cy="216.955"
     inkscape:document-units="mm"
     inkscape:current-layer="layer1"
     showgrid="false"
     units="px"
     inkscape:snap-bbox="true"
     inkscape:snap-page="true"
     inkscape:bbox-nodes="true"
     inkscape:snap-bbox-edge-midpoints="true"
     inkscape:window-width="1440"
     inkscape:window-height="856"
     inkscape:window-x="0"
     inkscape:window-y="0"
     inkscape:window-maximized="0"
     inkscape:snap-global="false" />
  <metadata
     id="metadata5">
    <rdf:RDF>
      <cc:Work
         rdf:about="">
        <dc:format>image/svg+xml</dc:format>
        <dc:type
           rdf:resource="http://purl.org/dc/dcmitype/StillImage" />
        <dc:title></dc:title>
      </cc:Work>
    </rdf:RDF>
  </metadata>
  <g
     inkscape:label="Layer 1"
     inkscape:groupmode="layer"
     id="layer1"
     transform="translate(0,-196.45832)"
     style="display:inline;opacity:1">
    <path
       style="opacity:1;fill:#f0f0f0;fill-opacity:1;fill-rule:evenodd;stroke:none;stroke-width:0.48607069;stroke-linecap:butt;stroke-linejoin:round;stroke-miterlimit:4;stroke-dasharray:none;stroke-dashoffset:0;stroke-opacity:1;paint-order:normal"
       d="m 0,296.99999 79.430078,0 0,-100.54168 -79.430078,0 z"
       id="rect817"
       inkscape:connector-curvature="0" />
    <path
       style="fill:#000000"
       d="m 0.428697,246.88723 0,-50.11991 24.424371,0 24.42437,0 -0.0181,0.59018 c -0.01474,0.48088 -0.03997,0.51665 -0.136195,0.19311 l -0.118091,-0.39707 -23.987628,-0.12506 c -23.3448599,-0.1217 -23.9917339,-0.11593 -24.1408279,0.21548 -0.08426,0.18729 -0.1861881,22.66977 -0.2265071,49.96106 l -0.07331,49.62053 24.259145,0 24.259143,0 0.04618,-41.5396 0.04618,-41.5396 0.04501,41.63039 0.04501,41.6304 -24.42437,0 -24.424371,0 0,-50.11991 z m 1.0829601,46.80582 c -0.04884,-17.79904 0.03059,-95.37591 0.09774,-95.44305 0.04975,-0.0497 0.133987,-0.0469 0.187183,0.006 0.123647,0.12365 0.20621,93.49418 0.08487,95.9815 -0.04994,1.02369 -0.152085,1.86129 -0.226993,1.86133 -0.07491,5e-5 -0.139166,-1.08267 -0.142798,-2.40604 z m 1.18538,1.16184 c -0.06735,-0.26447 -0.09455,-22.07847 -0.06044,-48.47555 l 0.06202,-47.9947 1.361954,0.0953 c 3.4111364,0.23861 6.6791099,0.28273 23.7178049,0.32023 16.87499,0.0371 18.213142,0.0178 18.652378,-0.27003 0.971501,-0.63655 0.943463,-0.83876 0.894936,6.45423 -0.144038,21.64751 -0.280768,89.15578 -0.182139,89.92789 0.04504,0.35257 -0.206316,0.35699 -22.139251,0.39007 l -22.1848089,0.0335 -0.122457,-0.48087 z m 4.0950484,-1.21109 c 0.821197,-0.41613 0.948846,-0.43467 1.401315,-0.20347 0.990351,0.50605 1.644864,0.53542 2.6690145,0.11974 0.730205,-0.29636 0.990319,-0.50222 1.05373,-0.83394 0.09854,-0.51546 -0.150515,-0.55707 -1.374696,-0.22965 -0.7270355,0.19445 -0.8503405,0.17348 -1.5915535,-0.27067 -0.448864,-0.26897 -0.665267,-0.48221 -0.490334,-0.48317 0.172219,-9.5e-4 0.439898,-0.24687 0.594843,-0.5465 0.361399,-0.69887 1.1712755,-0.75368 1.6749555,-0.11336 0.411081,0.52261 1.404125,0.78461 1.782766,0.47037 0.271201,-0.22508 0.353892,-0.075 0.278508,0.50556 -0.01621,0.12484 0.04629,0.22699 0.138898,0.22699 0.224965,0 0.386812,-0.64946 0.389848,-1.56437 l 0.0025,-0.7472 5.130026,-0.0733 c 2.821514,-0.0403 5.86548,-0.0309 6.76437,0.0208 l 1.634344,0.0941 0.09943,0.86514 c 0.05469,0.47584 0.06761,1.13774 0.02871,1.4709 l -0.07072,0.60575 -2.298637,0.0963 c -1.264249,0.053 -4.545858,0.0399 -7.292465,-0.0291 -5.339902,-0.13407 -5.850495,-0.0702 -5.071736,0.63458 0.37199,0.33665 0.752851,0.35059 9.584728,0.35105 5.058537,1.8e-4 8.502746,-0.0215 7.653795,-0.0483 -1.783866,-0.0564 -2.221848,-0.15434 -1.814778,-0.40592 0.337857,-0.20881 15.394341,-0.21422 16.090622,-0.006 l 0.524053,0.15688 -0.544782,0.0184 c -0.29963,0.0101 -0.667357,0.0976 -0.817172,0.19442 -0.189853,0.1227 0.123299,0.17688 1.033447,0.17882 0.732315,0.002 1.358427,-0.0823 1.425577,-0.19096 0.07187,-0.1163 -0.01458,-0.17074 -0.216277,-0.1362 -0.280542,0.048 -0.336012,-0.0624 -0.336012,-0.66884 l 0,-0.72637 -0.726375,0.0296 c -0.399507,0.0163 -1.666124,0.0264 -2.814704,0.0225 -1.148581,-0.004 -2.51043,0.007 -3.026331,0.0233 -0.951604,0.0309 -1.41876,-0.24215 -0.946601,-0.55329 0.137643,-0.0907 0.965948,-0.1476 1.840682,-0.12645 0.953635,0.0231 1.66936,-0.0405 1.78757,-0.15869 0.35219,-0.35219 0.100311,-0.86288 -0.47471,-0.96248 -0.886748,-0.1536 -0.619502,-0.44227 0.546999,-0.59086 1.568903,-0.19985 1.600782,-0.18284 1.618753,0.86364 0.01042,0.60751 0.09071,0.90196 0.242584,0.88981 0.124845,-0.01 0.594719,-0.0304 1.044164,-0.0454 l 0.817172,-0.0272 0,-1.16739 c 0,-1.33046 -0.258586,-1.73811 -1.102534,-1.73811 -0.674038,0 -0.704341,0.35676 -0.03243,0.38177 0.46691,0.0174 0.459654,0.028 -0.11162,0.16292 -0.857403,0.20253 -3.213899,0.0776 -3.157069,-0.1674 0.02497,-0.10763 0.02497,-0.20266 0,-0.21117 -0.02497,-0.009 -1.414162,-0.0554 -3.087095,-0.1042 -2.101133,-0.0613 -3.041697,-0.0284 -3.041697,0.10627 0,0.10725 0.102147,0.19748 0.226992,0.20052 0.13404,0.003 0.103908,0.0774 -0.07358,0.18098 -0.343872,0.20073 -1.242972,0.16853 -1.242972,-0.0445 0,-0.0781 0.168258,-0.14199 0.373906,-0.14199 0.205647,0 0.327379,-0.0753 0.270513,-0.16729 -0.153469,-0.24832 -28.9730569,-0.25284 -28.9730569,-0.005 0,0.1063 0.07252,0.14846 0.161158,0.0937 0.08864,-0.0548 0.144964,0.24683 0.125169,0.67026 -0.01979,0.42342 0.0098,1.48498 0.06583,2.35901 0.09289,1.44974 0.073,1.58914 -0.226683,1.58895 -0.180678,-1.2e-4 -0.278002,0.0815 -0.216275,0.18138 0.198816,0.3217 1.168061,0.19395 2.0959334,-0.27624 z m -0.516067,-0.84964 c -0.1218564,-0.12185 -0.2179124,-0.7062 -0.2179124,-1.32563 0,-1.22239 0.1912024,-1.54355 0.9189474,-1.54355 0.265717,0 0.788678,-0.20736 1.162135,-0.46079 0.616264,-0.41821 0.822429,-0.45597 2.2309395,-0.40859 1.41692,0.0477 1.580505,0.0917 1.880446,0.50619 0.180687,0.24969 0.381673,0.6777 0.446637,0.95113 0.112983,0.47554 0.08553,0.46455 -0.63189,-0.25286 l -0.750006,-0.75001 -1.3800795,0.10438 c -1.190011,0.09 -1.453607,0.17481 -1.913957,0.61586 -0.442297,0.42375 -0.515335,0.61033 -0.425781,1.08769 0.06401,0.3412 0.02576,0.6271 -0.09378,0.70098 -0.111822,0.0691 -0.153268,0.31845 -0.09291,0.55894 0.09561,0.38093 0.04619,0.43417 -0.402952,0.43417 -0.281557,0 -0.609983,-0.0981 -0.729835,-0.21791 z m 12.3213505,-0.69934 c 0.628549,-0.62855 0.07952,-1.62506 -0.89533,-1.62506 -0.458125,0 -1.652739,0.69444 -1.655031,0.96208 -6.9e-4,0.0797 0.223482,0.3427 0.498142,0.58444 0.629939,0.55445 1.541429,0.58933 2.052219,0.0785 z m 4.893745,0.009 c 0.437082,-0.43709 0.454107,-0.69736 0.0805,-1.23076 -0.310787,-0.44371 -1.277987,-0.55298 -1.908377,-0.21561 -0.818198,0.43789 -0.120896,1.80955 0.919907,1.80955 0.302657,0 0.706199,-0.16141 0.907969,-0.36318 z M 6.4212935,287.03887 c 0,-0.089 0.207635,-0.21402 0.461412,-0.27771 0.549529,-0.13792 0.422319,-0.46835 -0.180309,-0.46835 -0.5264434,0 -0.6442904,-0.29501 -0.6442904,-1.61288 0,-1.15766 0.2005874,-1.47421 0.9341614,-1.47421 0.274085,0 0.724191,-0.19428 1.000236,-0.43172 l 0.501899,-0.43172 -1.659853,-0.13137 c -1.6321194,-0.12918 -2.0476004,-0.0704 -2.0476004,0.28986 0,0.0999 0.0656,0.14106 0.145768,0.0915 0.08017,-0.0496 0.164469,0.78323 0.187325,1.85062 0.02286,1.06739 0.0879,2.09178 0.14455,2.27642 0.08553,0.27878 0.0345,0.31398 -0.300863,0.20754 -0.27444,-0.0871 -0.364038,-0.0638 -0.279601,0.0729 0.147275,0.2383 1.7371654,0.27412 1.7371654,0.0391 z m 4.0808355,-0.1314 c 0.438537,-0.43853 1.489539,-0.63221 1.747043,-0.32193 0.115054,0.13863 0.478384,0.25205 0.807399,0.25205 0.329016,0 0.628493,0.0908 0.665504,0.20188 0.04925,0.14776 0.762268,0.14462 2.659516,-0.0117 1.425723,-0.11746 4.119348,-0.21276 5.985835,-0.21176 1.866487,9e-4 4.476364,-0.0428 5.799729,-0.0974 2.126114,-0.0876 2.406119,-0.0653 2.406119,0.19148 0,0.16956 0.151287,0.29063 0.363187,0.29063 0.199753,0 0.363188,-0.11825 0.363188,-0.26277 0,-0.19033 0.200247,-0.25479 0.726375,-0.23381 0.399507,0.0159 0.726376,0.0962 0.726376,0.17837 0,0.0822 0.155266,0.0663 0.345035,-0.0353 0.261521,-0.13996 0.370159,-0.11918 0.448835,0.0858 0.08853,0.23071 0.697033,0.26235 4.137128,0.21512 2.939207,-0.0404 4.053082,-0.11464 4.106144,-0.27382 0.04745,-0.14236 0.514021,-0.21844 1.339556,-0.21844 0.836913,0 1.226831,0.0646 1.149125,0.1903 -0.07229,0.11698 -0.426298,0.14402 -0.918686,0.0702 -0.539359,-0.0809 -0.801071,-0.0541 -0.801071,0.0821 0,0.12526 0.399859,0.20222 1.05065,0.20222 0.871704,0 1.054161,-0.0541 1.071262,-0.31779 0.06331,-0.97616 0.08468,-4.43672 0.02775,-4.49365 -0.03695,-0.0369 -8.074152,-0.1166 -17.860451,-0.17702 -12.144262,-0.075 -17.7067935,-0.0509 -17.5208805,0.0758 0.149815,0.10211 0.8251835,0.1869 1.5008185,0.18843 1.189853,0.003 1.239727,0.0213 1.588267,0.59296 0.197912,0.3246 0.35984,0.75361 0.35984,0.95337 0,0.29358 -0.06536,0.25601 -0.341032,-0.19607 -0.490578,-0.80449 -1.238081,-1.05725 -2.7052035,-0.91475 -1.029868,0.10003 -1.294341,0.19958 -1.698051,0.63919 -0.346203,0.37699 -0.453079,0.65206 -0.387217,0.9966 0.05004,0.26173 0.0069,0.57756 -0.09589,0.70183 -0.102774,0.12427 -0.144366,0.4473 -0.09243,0.71785 0.07231,0.37665 0.270641,0.55624 0.846471,0.76647 0.413619,0.15101 0.997186,0.30556 1.296815,0.34346 0.29963,0.0379 0.5593745,0.0811 0.5772095,0.0961 0.01784,0.015 0.164416,-0.10478 0.325734,-0.2661 z m 10.575589,-0.54627 c -0.0671,-0.0671 -2.083777,-0.13382 -4.481509,-0.14828 -3.977219,-0.024 -4.380558,-0.055 -4.599497,-0.35447 -0.208397,-0.285 -0.33417,-0.30205 -0.955567,-0.12952 -1.0584665,0.29387 -1.6177385,0.24525 -1.9967735,-0.17358 -0.268989,-0.29723 -0.289482,-0.4047 -0.09955,-0.52208 0.178195,-0.11013 0.184912,-0.18134 0.02635,-0.27934 -0.320002,-0.19777 0.31741,-0.82184 0.839412,-0.82184 0.2351215,0 0.6892485,0.25015 1.0091725,0.55589 0.481187,0.45984 0.708353,0.54748 1.314902,0.50725 0.596947,-0.0396 0.728536,0.009 0.708002,0.26129 -0.01387,0.17045 0.03788,0.30992 0.115016,0.30992 0.200425,0 0.358828,-0.69288 0.36171,-1.58219 l 0.0025,-0.76502 4.131259,-0.0461 c 5.179529,-0.0578 9.366863,0.0227 9.497579,0.18255 0.05505,0.0673 0.05505,0.75403 0,1.52602 l -0.100098,1.40361 -2.825444,0.0989 c -1.553993,0.0544 -2.880341,0.044 -2.947438,-0.0231 z m -2.489637,-0.97636 c 0.199753,-0.19975 0.363188,-0.48576 0.363188,-0.63558 0,-0.14981 -0.163435,-0.43582 -0.363188,-0.63558 -0.517658,-0.51765 -1.486701,-0.47652 -2.123601,0.0901 l -0.50951,0.45331 0.593045,0.54545 c 0.70176,0.64544 1.505116,0.71721 2.040066,0.18226 z m 4.613749,0.18802 c 0.611243,-0.2324 0.804286,-0.99043 0.373458,-1.46649 -0.375861,-0.41533 -1.476268,-0.48225 -1.97178,-0.11993 -0.470631,0.34414 -0.322463,1.23791 0.253262,1.52771 0.550015,0.27686 0.748482,0.28553 1.34506,0.0587 z m 17.799825,0.11529 c -0.05968,-0.15552 -0.04006,-0.71276 0.04359,-1.23832 0.128967,-0.81021 0.221087,-0.97224 0.605667,-1.06526 0.562964,-0.13618 0.893794,0.23976 0.901775,1.02476 0.0039,0.38234 0.13934,0.65782 0.41436,0.84272 0.535283,0.35986 0.430445,0.43575 -0.814949,0.5899 -0.856175,0.10597 -1.061285,0.0785 -1.150448,-0.1538 z m -33.8636125,-5.4682 c 0.372504,-0.39651 0.45801,-0.41732 0.803428,-0.19552 0.212607,0.13652 0.865613,0.33512 1.451125,0.44134 1.0199445,0.18504 1.6276675,0.0801 1.5776225,-0.27239 -0.02913,-0.20517 0.646044,-0.32226 1.023347,-0.17748 0.219841,0.0844 0.233743,0.1626 0.06502,0.36591 -0.185403,0.22339 1.437143,0.25053 11.919342,0.19935 14.546356,-0.071 13.726732,-0.0541 13.586712,-0.28066 -0.06896,-0.11157 0.224488,-0.18052 0.761056,-0.17881 0.630784,0.002 0.797647,0.0517 0.600898,0.17881 -0.331867,0.21447 -0.582693,0.19249 3.314087,0.29042 2.212472,0.0556 3.223291,0.0203 3.223291,-0.11266 0,-0.10652 -0.102147,-0.18041 -0.226993,-0.1642 -0.433974,0.0564 -0.701865,-0.0144 -0.610999,-0.16146 0.05028,-0.0814 0.105478,-1.09847 0.12267,-2.26027 l 0.03126,-2.11235 -17.771953,-0.092 c -9.913987,-0.0513 -17.5712215,-0.0234 -17.3179685,0.063 0.249692,0.0853 0.8703355,0.16317 1.3792085,0.17313 1.067718,0.0209 1.463201,0.33668 1.629536,1.30117 0.104398,0.60536 0.100386,0.6105 -0.136684,0.17513 -0.134332,-0.24669 -0.52906,-0.6412 -0.877173,-0.87669 -0.550115,-0.37213 -0.76362,-0.41211 -1.631699,-0.30552 -1.1244115,0.13806 -2.0635685,0.47968 -2.2795975,0.82923 -0.14,0.22652 -0.256489,1.17764 -0.270535,2.20887 -0.0058,0.4225 -0.08395,0.49938 -0.507955,0.49938 -0.746253,0 -0.9372864,-0.31378 -0.9341974,-1.53447 0.0034,-1.32349 0.08427,-1.46619 0.9182344,-1.61939 0.356742,-0.0655 0.92421,-0.32247 1.261038,-0.57097 l 0.612415,-0.45183 -2.032812,0 c -1.2341464,0 -2.0328124,0.0713 -2.0328124,0.1816 0,0.0999 0.07319,0.18159 0.162636,0.18159 0.08945,0 0.173919,0.91115 0.187711,2.02477 0.01379,1.11362 0.07341,2.10299 0.132495,2.19858 0.06368,0.10304 -0.04973,0.12394 -0.278507,0.0513 -0.368808,-0.11705 -0.520765,0.0698 -0.264866,0.32571 0.06658,0.0666 0.542643,0.12106 1.057908,0.12106 0.7587394,0 1.0160994,-0.0844 1.3537164,-0.44374 z m 13.6291645,-0.47336 c -0.649198,-0.0777 -2.875992,-0.15694 -4.948432,-0.17602 -3.160936,-0.0291 -3.768072,-0.0773 -3.768072,-0.29895 0,-0.21798 -0.222024,-0.24239 -1.267736,-0.13935 -1.0231845,0.10083 -1.3559715,0.0671 -1.7251415,-0.17478 -0.567018,-0.37153 -0.58734,-0.64996 -0.04882,-0.66886 0.224723,-0.008 0.30644,-0.0555 0.181594,-0.10593 -0.350912,-0.14159 -0.268595,-0.57106 0.152671,-0.79652 0.477238,-0.25541 1.3619905,0.0683 1.4863455,0.54387 0.109281,0.41789 1.317499,0.66968 1.698028,0.35387 0.220508,-0.18301 0.286683,-0.15013 0.374616,0.18613 0.166127,0.63527 0.413541,0.078 0.416819,-0.93885 0.0018,-0.57063 0.07961,-0.86063 0.229773,-0.85682 0.124846,0.003 3.209671,-0.0173 6.855167,-0.0454 l 6.628175,-0.0511 -0.026,1.1361 c -0.04325,1.89022 -0.08038,1.95099 -1.191791,1.95099 -0.528736,0 -1.615076,0.0502 -2.414089,0.1115 -0.799012,0.0613 -1.983912,0.0479 -2.63311,-0.0298 z m -1.96788,-1.16379 c 0.16293,-0.35759 0.143234,-0.53846 -0.09888,-0.90797 -0.246297,-0.3759 -0.444612,-0.4603 -1.069924,-0.45538 -0.477345,0.004 -0.922083,0.13493 -1.176174,0.3469 -0.502259,0.419 -0.502575,0.44417 -0.01265,1.00763 0.320719,0.36886 0.562942,0.45537 1.27505,0.45537 0.757594,0 0.907238,-0.0617 1.082574,-0.44655 z m 4.769613,0.16118 c 0.353683,-0.35368 0.364292,-0.80843 0.02954,-1.26623 -0.185582,-0.2538 -0.459453,-0.34452 -0.99747,-0.33041 -0.871792,0.0229 -1.289022,0.31174 -1.289022,0.8925 0,0.61928 0.475611,0.98951 1.271157,0.98951 0.394633,0 0.825019,-0.12459 0.985795,-0.28537 z m 17.484344,0.10448 c -0.05213,-0.19937 -0.04996,-0.69676 0.0048,-1.10532 0.07319,-0.54568 0.211785,-0.79393 0.522218,-0.93537 0.623791,-0.28422 0.978121,0.094 0.978121,1.04402 0,0.56625 0.08438,0.80789 0.312699,0.89551 0.493677,0.18944 -0.07203,0.45752 -0.972497,0.46086 -0.598704,0.002 -0.769776,-0.0706 -0.845384,-0.3597 z m 4.092894,-4.90174 c 0.174784,-0.001 0.31779,-0.0885 0.31779,-0.19431 0,-0.10578 -0.07796,-0.14413 -0.173243,-0.0852 -0.09528,0.0589 -0.397024,0.0509 -0.670533,-0.0178 -0.441867,-0.1109 -0.457978,-0.13931 -0.144547,-0.25491 0.327147,-0.12067 0.348675,-0.28991 0.296668,-2.33226 l -0.05608,-2.20216 -8.388037,-0.008 c -4.61342,-0.005 -11.615867,-0.0454 -15.560993,-0.0908 -3.945126,-0.0454 -7.607569,-0.0316 -8.138763,0.0307 l -0.965807,0.11325 0.453472,0.47691 c 0.249409,0.26229 0.513563,0.71973 0.587007,1.01653 l 0.133536,0.53963 -0.59338,-0.67583 -0.59338,-0.67583 -1.538705,0 c -1.4585485,0 -1.5663565,0.0277 -2.0695175,0.53082 -0.590492,0.59049 -0.677154,1.00852 -0.24357,1.1749 0.512496,0.19666 0.830899,0.11846 1.372204,-0.33702 0.449716,-0.37841 0.607075,-0.41851 1.0224965,-0.26057 0.270039,0.10267 0.644021,0.35094 0.83107,0.55172 0.258063,0.27699 0.521453,0.35079 1.092047,0.30596 0.70619,-0.0555 0.748877,-0.0317 0.701341,0.39105 -0.04092,0.36392 -0.0064,0.40595 0.180041,0.21947 0.126862,-0.12686 0.272216,-0.67496 0.323008,-1.218 l 0.09235,-0.98733 6.718971,-0.0493 6.718972,-0.0493 0.0908,0.99876 c 0.04994,0.54932 0.0636,1.24392 0.03037,1.54355 l -0.06043,0.54478 -1.755507,0.0736 c -2.292166,0.0961 -2.923846,0.0877 -8.202089,-0.10986 -3.685547,-0.13794 -4.495793,-0.12384 -4.721439,0.0822 -0.440457,0.4021 0.180707,0.71284 1.686086,0.84347 2.103926,0.18257 12.275521,-0.0102 12.549826,-0.23787 0.327098,-0.27147 16.427519,-0.2961 16.698072,-0.0255 0.133869,0.13386 -0.160001,0.20081 -0.980082,0.22326 l -1.17128,0.0321 1.271157,0.12514 c 0.699136,0.0688 1.557167,0.0962 1.906735,0.0607 0.349568,-0.0354 0.778583,-0.0653 0.953367,-0.0664 z m -5.402416,-1.65457 c -0.799013,-0.082 -1.675479,-0.10533 -1.947703,-0.0519 -0.58374,0.11449 -0.887124,-0.0293 -0.76013,-0.36023 0.06769,-0.17639 0.516876,-0.22466 1.752668,-0.18837 1.830079,0.0538 2.317119,-0.096 2.317119,-0.7125 0,-0.40188 -0.04491,-0.41093 -2.133728,-0.43035 -1.17355,-0.0109 -2.460596,-0.0107 -2.860103,3.6e-4 -0.957849,0.0267 -2.516013,-0.002 -3.100714,-0.0564 -0.346331,-0.0324 -0.414637,-0.0968 -0.263377,-0.24807 0.307519,-0.30761 10.20707,-0.28582 10.309994,0.0227 0.04165,0.12485 -0.05884,0.22699 -0.223305,0.22699 -0.227974,0 -0.285507,0.14024 -0.242124,0.59019 0.0313,0.32459 0.159051,0.60039 0.283897,0.61287 0.533188,0.0533 0.590179,0.0766 0.590179,0.24116 0,0.21284 -1.196979,0.56015 -1.815938,0.5269 -0.249691,-0.0134 -1.107722,-0.0914 -1.906735,-0.1734 z m -32.9288885,1.22143 c 0.762296,-0.40532 0.842769,-0.41419 1.343602,-0.14805 1.24351,0.66079 3.7262465,0.1122 3.8627815,-0.85352 0.05339,-0.37763 0.0063,-0.41826 -0.363188,-0.31313 -1.128064,0.32098 -2.1437565,0.33874 -2.5915765,0.0453 -0.249312,-0.16335 -0.752395,-0.29701 -1.117961,-0.29701 -0.641669,0 -0.660897,0.0188 -0.555711,0.54479 0.120427,0.60213 -0.05595,0.67676 -0.868908,0.36768 -0.4321774,-0.16431 -0.4656054,-0.25936 -0.4630264,-1.31656 0.0015,-0.6267 0.06282,-1.22896 0.136196,-1.33837 0.07338,-0.1094 0.4558914,-0.24987 0.8500294,-0.31215 0.394138,-0.0623 0.910922,-0.30755 1.148409,-0.54504 l 0.431794,-0.43179 -1.541526,-0.1185 c -0.849792,-0.0653 -1.7318144,-0.0422 -1.9655814,0.0515 -0.23323,0.0935 -0.334018,0.17513 -0.223972,0.18146 0.131346,0.008 0.212002,0.73081 0.234774,2.10527 0.01908,1.15157 0.08623,2.22808 0.149232,2.39225 0.08618,0.22457 0.03928,0.2696 -0.189375,0.18186 -0.167154,-0.0641 -0.303917,-0.0375 -0.303917,0.0593 0,0.32987 1.215117,0.17693 2.0279244,-0.25524 z m 27.5264725,0.29538 c -1.373304,-0.0308 -3.620527,-0.0308 -4.993831,0 -1.373303,0.0309 -0.249691,0.0561 2.496915,0.0561 2.746607,0 3.870219,-0.0252 2.496916,-0.0561 z m -16.049591,-1.52072 c 0.542019,-0.24696 0.689466,-0.71005 0.407265,-1.27909 -0.31827,-0.64178 -1.508595,-0.68492 -2.163036,-0.0784 l -0.489534,0.45369 0.408245,0.43535 c 0.636172,0.67841 1.110685,0.79941 1.83706,0.46846 z m 5.47439,-0.53097 c 0.111524,-0.35138 -0.176155,-1.06463 -0.529208,-1.31208 -0.243384,-0.17059 -1.384678,0.0104 -1.697956,0.26932 -0.548031,0.45288 -0.07274,1.45883 0.771773,1.63348 0.547359,0.11319 1.333215,-0.20577 1.455391,-0.59072 z M 7.5417635,266.57106 c 0.07724,-0.0477 0.336694,0.0418 0.576574,0.19899 0.23988,0.15717 0.834638,0.32963 1.321684,0.38323 1.2064815,0.13279 2.4913345,-0.49529 2.5789445,-1.26066 0.0488,-0.42634 0.0015,-0.49932 -0.272391,-0.42017 -1.9752325,0.57086 -1.8324945,0.56413 -2.7591405,0.13011 -1.104709,-0.51742 -1.579807,-0.44833 -1.533187,0.22295 0.03081,0.44362 -0.02559,0.49226 -0.570752,0.49226 -0.7230234,0 -0.8253894,-0.20003 -0.8253894,-1.61287 0,-1.18527 0.1980824,-1.47422 1.0105954,-1.47422 0.318769,0 0.803015,-0.17954 1.087222,-0.4031 l 0.512453,-0.40309 -0.442565,-0.12359 c -0.633805,-0.17698 -2.7375654,-0.1625 -3.1664714,0.0218 -0.199754,0.0858 -0.277672,0.16181 -0.173152,0.16883 0.11773,0.008 0.20883,0.82073 0.239428,2.13627 0.02717,1.16792 0.12736,2.26919 0.222655,2.44725 0.164991,0.30828 0.21814,0.30605 1.1131634,-0.0467 0.516945,-0.20376 1.003093,-0.40953 1.080329,-0.45727 z m 15.3591705,0.64976 c 2.615769,0.0183 3.858869,-0.0351 3.858869,-0.16564 0,-0.10594 0.08654,-0.19262 0.192312,-0.19262 0.105771,0 0.141806,0.0817 0.08008,0.18159 -0.06173,0.0999 0.01999,0.18159 0.181594,0.18159 0.161604,0 0.246562,-0.0765 0.188796,-0.16993 -0.05776,-0.0935 0.243851,-0.21602 0.670261,-0.27232 1.114988,-0.14724 15.527618,-0.029 15.68529,0.12864 0.07261,0.0726 -0.04986,0.13202 -0.272151,0.13202 -0.223206,0 -0.353919,0.0813 -0.291939,0.18159 0.140047,0.2266 2.029957,0.24136 2.168659,0.017 0.05597,-0.0906 -0.06657,-0.12064 -0.272302,-0.0668 -0.306745,0.0802 -0.367072,0.02 -0.335197,-0.33473 0.113756,-1.26582 0.07837,-1.30426 -1.061777,-1.15338 -1.317752,0.17439 -6.44346,0.11481 -6.635871,-0.0771 -0.332538,-0.33173 0.458677,-0.55325 2.151595,-0.60237 1.799342,-0.0522 1.805963,-0.0541 1.861106,-0.52981 l 0.05534,-0.4774 -1.979346,0.0234 c -1.413624,0.0167 -2.062966,-0.0459 -2.271909,-0.21921 -0.160909,-0.13344 -0.398288,-0.18274 -0.527511,-0.10955 -0.17123,0.097 -0.182258,0.0756 -0.04066,-0.0788 0.235818,-0.25714 3.106339,-0.40892 4.935744,-0.26099 l 1.316555,0.10645 0,0.79213 0,0.79212 0.726376,0.0303 c 0.399506,0.0166 0.86938,0.0371 1.044164,0.0454 0.2531,0.0121 0.340959,-0.18818 0.431611,-0.98363 0.184826,-1.62182 0.08548,-1.81912 -0.905282,-1.79784 -0.660037,0.0142 -0.744402,0.0464 -0.3889,0.14867 0.433044,0.12454 0.424667,0.13624 -0.181593,0.25361 -0.720904,0.13958 -3.567963,0.13753 -3.933726,-0.003 -0.132465,-0.0508 -0.195634,-0.16558 -0.140375,-0.25499 0.05526,-0.0894 0.02267,-0.16256 -0.07241,-0.16256 -0.09509,0 -0.218476,0.11881 -0.274199,0.26403 -0.133076,0.34678 -2.294914,0.31918 -2.429299,-0.031 -0.04918,-0.12815 -0.264533,-0.22726 -0.478571,-0.22024 -0.365911,0.012 -0.368183,0.021 -0.03802,0.15027 0.193125,0.0756 0.274843,0.18057 0.181594,0.23321 -0.162327,0.0916 -3.573901,0.068 -4.709385,-0.0326 l -0.544782,-0.0483 0.635579,-0.11875 c 0.352967,-0.066 -0.979343,-0.16826 -2.996298,-0.23008 -4.777629,-0.14644 -19.8215725,-0.13873 -18.068586,0.009 1.584122,0.13374 1.765977,0.22345 2.106857,1.03929 0.398514,0.95378 0.303342,1.03108 -0.367845,0.29879 l -0.621707,-0.67831 -1.499061,0.0425 c -1.3519785,0.0383 -1.5493325,0.0907 -2.0114045,0.53336 -0.695485,0.66632 -0.668224,1.08498 0.07784,1.19542 0.457069,0.0677 0.680378,-0.01 0.990095,-0.34258 0.516543,-0.55532 1.0451155,-0.54496 1.6218645,0.0318 0.542889,0.54289 1.407617,0.765 1.778845,0.45691 0.215961,-0.17924 0.27175,-0.11331 0.326641,0.38597 l 0.0662,0.60213 0.21859,-0.5112 c 0.120225,-0.28117 0.218591,-0.86783 0.218591,-1.3037 l 0,-0.7925 4.222056,-0.0527 c 4.591965,-0.0573 9.044906,0.013 9.261286,0.14616 0.182534,0.11234 0.175263,2.74071 -0.0079,2.85391 -0.228054,0.14095 -5.540969,0.21115 -10.258613,0.13557 -2.375622,-0.0381 -4.374803,-0.0137 -4.442626,0.0541 -0.06782,0.0678 -0.03619,0.2624 0.07029,0.4324 0.272146,0.43446 1.538641,0.56581 4.42419,0.45885 1.348334,-0.05 4.188008,-0.0787 6.310386,-0.0639 z m 8.888455,-1.57506 c -0.259935,-0.0672 -0.283428,-0.13773 -0.113961,-0.34192 0.316882,-0.38182 3.256098,-0.36813 3.256098,0.0152 0,0.14981 -0.102147,0.28065 -0.226993,0.29075 -1.054644,0.0853 -2.648451,0.10499 -2.915144,0.036 z m 2.00772,-1.6125 c -0.06817,-0.0682 -0.514982,-0.11557 -0.992913,-0.10535 -0.921836,0.0197 -1.648736,-0.23613 -1.136269,-0.39996 0.469096,-0.14996 2.788262,-0.23867 3.394911,-0.12986 0.375423,0.0673 0.538211,0.1784 0.453984,0.30973 -0.155371,0.24227 -1.54072,0.50444 -1.719713,0.32544 z m -15.109511,1.29793 c 0.237601,-0.36263 0.249751,-0.51722 0.0678,-0.86257 -0.121928,-0.23142 -0.311599,-0.48081 -0.421493,-0.55418 -0.434874,-0.29038 -1.210513,-0.12319 -1.777081,0.38304 l -0.584238,0.52201 0.535974,0.47102 c 0.730589,0.64203 1.772275,0.66148 2.17904,0.0407 z m 4.803516,0.0786 c 0.437082,-0.43709 0.454107,-0.69736 0.0805,-1.23076 -0.307807,-0.43945 -1.002865,-0.52721 -1.79382,-0.22649 -0.962075,0.36578 -0.318545,1.82043 0.80535,1.82043 0.302657,0 0.706199,-0.16141 0.907969,-0.36318 z M 44.6309,260.57852 c 0.15741,-0.0604 0.249639,-0.16898 0.204953,-0.24129 -0.04469,-0.0723 -0.09377,-1.1654 -0.109086,-2.4291 l -0.02784,-2.29764 -6.200256,-0.004 c -3.410141,-0.002 -11.332554,-0.0444 -17.605358,-0.0932 -7.536912,-0.0587 -11.3672505,-0.0275 -11.2935005,0.0918 0.06138,0.0993 0.6636655,0.18058 1.3384095,0.18058 1.225514,0 1.227128,7.2e-4 1.53283,0.64174 0.49772,1.04373 0.353866,1.17931 -0.42494,0.4005 l -0.730965,-0.73096 -1.304123,0.10933 c -1.6410805,0.13758 -2.2036785,0.50709 -2.2867075,1.50186 -0.03241,0.38832 -0.127314,0.78879 -0.210893,0.88993 -0.08358,0.10114 -0.10987,0.40314 -0.05842,0.6711 0.106296,0.55365 0.871126,0.9385 2.287178,1.15084 0.7158205,0.10734 0.8557725,0.081 0.8557725,-0.16122 0,-0.16828 0.209148,-0.33538 0.499383,-0.39898 0.274661,-0.0602 0.595555,-0.13859 0.713099,-0.17425 0.117543,-0.0357 0.311413,0.0529 0.430821,0.19676 0.119408,0.14387 0.457075,0.26159 0.75037,0.26159 0.341177,0 0.48885,0.0719 0.409965,0.1995 -0.08869,0.14351 0.609105,0.16553 2.486198,0.0785 2.785128,-0.12919 5.532131,-0.17394 6.422966,-0.10464 0.820872,0.0639 3.775532,-0.19947 4.083296,-0.36392 0.563649,-0.30117 -0.790182,-0.40453 -2.519925,-0.19238 -1.245636,0.15277 -2.056747,0.16054 -2.834527,0.0272 -0.59926,-0.10277 -2.857382,-0.18733 -5.01805,-0.18791 -3.668898,-9.1e-4 -3.93429,-0.0232 -4.016326,-0.33695 -0.08014,-0.30647 -0.186009,-0.32009 -1.208186,-0.15547 -0.795549,0.12812 -1.2500345,0.12133 -1.5676845,-0.0234 -0.456948,-0.2082 -0.623223,-0.75639 -0.229425,-0.75639 0.168094,0 0.168661,-0.0492 0.0025,-0.21543 -0.166181,-0.16618 -0.147292,-0.29073 0.08262,-0.54478 0.428617,-0.47362 1.0909605,-0.40583 1.6573735,0.16961 0.400178,0.40656 0.652591,0.49904 1.363007,0.49938 0.740849,3.7e-4 0.859389,0.0482 0.788775,0.31822 -0.04571,0.17478 -0.01857,0.31779 0.06031,0.31779 0.201983,0 0.361972,-0.68605 0.364886,-1.56467 l 0.0025,-0.74749 4.222056,-0.059 c 5.379612,-0.0751 9.081884,10e-4 9.280618,0.19098 0.08554,0.0817 0.126399,0.85658 0.0908,1.72183 l -0.06473,1.5732 0.817172,-0.0425 c 1.857424,-0.0965 2.905502,0.008 2.905502,0.28954 0,0.14981 0.122575,0.27239 0.27239,0.27239 0.149815,0 0.272391,-0.11825 0.272391,-0.26277 0,-0.19033 0.200247,-0.25478 0.726375,-0.2338 0.440418,0.0176 0.726376,0.11741 0.726376,0.25363 0,0.17341 1.292138,0.22766 5.663646,0.23777 3.115006,0.007 5.702718,0.0522 5.750472,0.0999 0.115991,0.11599 0.30093,0.10941 0.645976,-0.023 z m -3.64541,-1.48275 c -0.160226,-0.10194 -0.159772,-0.36182 0.0019,-1.07958 0.249968,-1.10988 0.46595,-1.37563 1.050768,-1.29289 0.372276,0.0527 0.436847,0.17424 0.484414,0.91196 0.04425,0.68631 0.124789,0.86218 0.415779,0.90797 0.491818,0.0774 0.461637,0.39359 -0.05136,0.53807 -0.589562,0.16604 -1.650559,0.17412 -1.901483,0.0145 z m -34.9273839,1.24382 c 0,-0.0919 0.2593054,-0.22412 0.5762334,-0.29373 l 0.576233,-0.12656 -0.576233,-0.24229 c -0.5675674,-0.23865 -0.5762334,-0.26099 -0.5762334,-1.4859 0,-1.40553 0.1671304,-1.67942 1.0247874,-1.67942 0.404537,0 0.67898,-0.12795 0.876433,-0.40859 l 0.287471,-0.40859 -1.321338,-0.0982 c -0.7267364,-0.054 -1.5256314,-0.0406 -1.7753224,0.0298 -0.249692,0.0704 -0.364786,0.13499 -0.255765,0.14357 0.126725,0.01 0.211423,0.68682 0.234828,1.87655 0.02013,1.02352 0.08507,2.05402 0.144296,2.29001 0.0937,0.37332 0.05729,0.41307 -0.280226,0.30595 -0.230772,-0.0733 -0.387915,-0.0446 -0.387915,0.0707 0,0.10661 0.326869,0.19383 0.726375,0.19383 0.399507,0 0.726376,-0.0752 0.726376,-0.16716 z m 12.5299749,-1.64878 c 0.199753,-0.19975 0.363188,-0.48576 0.363188,-0.63558 0,-0.43629 -0.683982,-0.99876 -1.214522,-0.99876 -0.518413,0 -1.689788,0.69366 -1.686601,0.99876 0.0033,0.3147 1.149017,0.99877 1.672807,0.99877 0.276067,0 0.665375,-0.16343 0.865128,-0.36319 z m 4.862627,0.0805 c 0.474236,-0.33217 0.512908,-0.75159 0.120907,-1.31125 -0.346561,-0.49478 -1.43064,-0.55275 -1.927539,-0.10306 -0.714784,0.64687 -0.133675,1.697 0.939069,1.697 0.255183,0 0.645588,-0.12721 0.867563,-0.28269 z M 6.7844815,253.6062 c 0.447676,-0.44767 0.45415,-0.54478 0.03632,-0.54478 -0.55773,0 -0.7626944,-0.39617 -0.7626944,-1.47422 0,-1.3527 0.114444,-1.61287 0.7094544,-1.61287 0.268952,0 0.836072,-0.22473 1.260267,-0.49939 l 0.771264,-0.49938 -1.939154,-0.0518 c -1.8728814,-0.05 -2.3660004,0.0226 -1.9609864,0.28866 0.109427,0.0719 0.208984,0.9088 0.231043,1.94226 0.02132,0.99876 0.08286,1.99409 0.136751,2.21183 0.08361,0.33779 0.03808,0.38024 -0.310096,0.28919 -0.281927,-0.0737 -0.367925,-0.0417 -0.278176,0.10348 0.224032,0.36249 1.6975724,0.25545 2.1060084,-0.15299 z m 12.5299745,0.1583 c 0.449445,-0.0185 1.675203,-0.0253 2.723908,-0.0153 1.048704,0.0101 2.151887,0.013 2.451516,0.007 0.29963,-0.006 1.558753,0.052 2.798051,0.13008 1.694348,0.10669 2.220958,0.0896 2.12301,-0.0689 -0.07881,-0.12751 -0.681873,-0.2181 -1.526894,-0.22935 -1.040562,-0.0138 -1.250521,-0.0534 -0.823524,-0.15516 0.31521,-0.0751 1.521589,-0.10762 2.68084,-0.0722 1.159252,0.0354 2.208829,0.0656 2.332391,0.0671 0.146676,0.002 0.130107,0.0639 -0.04773,0.17881 -0.335182,0.21661 -0.448789,0.20818 2.451517,0.18194 1.198519,-0.0109 2.256757,-0.0971 2.35164,-0.19163 0.233768,-0.23294 1.424618,-0.22392 1.280237,0.01 -0.06173,0.0999 -0.0053,0.18444 0.125477,0.18791 5.155454,0.13704 6.677645,0.12984 6.578157,-0.0311 -0.06284,-0.10168 -0.101831,-1.22045 -0.08664,-2.48615 l 0.02761,-2.30127 -17.940606,-0.0304 c -10.368087,-0.0176 -17.6340115,0.0355 -17.2142315,0.12573 0.399507,0.0859 1.1018675,0.16083 1.5608025,0.16659 1.006908,0.0126 1.417574,0.38754 1.528356,1.39529 0.04253,0.38693 0.03061,0.54007 -0.02651,0.34031 -0.316758,-1.10783 -1.405296,-1.60018 -2.9778875,-1.34692 -1.748944,0.28166 -2.233444,0.67695 -2.044052,1.66769 0.05241,0.27417 -0.0025,0.61636 -0.122091,0.76042 -0.375459,0.45241 0.144352,1.23167 0.991818,1.48687 0.893669,0.26911 2.3339475,0.31556 2.1824175,0.0704 -0.05992,-0.0969 0.119123,-0.22635 0.397869,-0.28756 0.278745,-0.0612 0.602981,-0.14046 0.720525,-0.17612 0.35045,-0.10632 0.631218,0.35795 0.372769,0.6164 -0.205887,0.20589 2.127589,0.20597 7.131253,1.9e-4 z m 0.907969,-0.71975 c -0.749074,-0.08 -2.587712,-0.14418 -4.085861,-0.14273 -4.167504,0.004 -4.085861,0.01 -4.085861,-0.29458 0,-0.31556 -0.327377,-0.3346 -1.420128,-0.0826 -1.0701005,0.2468 -1.7511015,-0.0709 -1.7746065,-0.82781 -0.02284,-0.73566 0.221556,-0.99635 0.934075,-0.99635 0.5583635,0 1.1710965,0.37626 1.1710965,0.71914 0,0.24404 1.297363,0.41686 1.512722,0.2015 0.306759,-0.30676 0.484576,-0.2286 0.487591,0.21432 0.0022,0.3304 0.03647,0.35646 0.178813,0.1362 0.09682,-0.14982 0.177284,-0.66055 0.178813,-1.13496 l 0.0028,-0.86257 3.858869,-0.0409 c 7.685238,-0.0815 9.311127,-0.0726 9.563419,0.0523 0.192626,0.0954 0.246278,0.46128 0.214862,1.46524 -0.02303,0.73595 -0.0977,1.38898 -0.165939,1.45118 -0.208865,0.19039 -5.123708,0.29708 -6.570646,0.14263 z m -1.88799,-0.7097 c 0.143788,0 0.352989,-0.20095 0.464892,-0.44655 0.315619,-0.69271 -0.203232,-1.36939 -1.049985,-1.36939 -0.641268,0 -1.703575,0.4823 -1.703575,0.77345 0,0.0827 0.183864,0.3436 0.408586,0.57976 0.423399,0.44496 0.958424,0.65167 1.376806,0.53194 0.133015,-0.0381 0.359489,-0.0692 0.503276,-0.0692 z m 5.371314,-0.45399 c 0.154738,-0.33961 0.154738,-0.56836 0,-0.90797 -0.179006,-0.39287 -0.324701,-0.45398 -1.082392,-0.45398 -0.961639,0 -1.311369,0.22416 -1.311369,0.84052 0,0.63692 0.478486,0.97542 1.378819,0.97542 0.685743,0 0.839412,-0.0687 1.014942,-0.45399 z m 17.243044,0.62915 c -0.339333,-0.14132 -0.385618,-0.23145 -0.220829,-0.43001 0.114666,-0.13816 0.268701,-0.60393 0.342297,-1.03505 0.107391,-0.62907 0.222705,-0.80616 0.584017,-0.89688 0.728153,-0.18281 0.904188,-0.0176 0.904188,0.84875 0,0.70171 0.06059,0.82527 0.483556,0.98608 0.297574,0.11314 0.418701,0.2487 0.314931,0.35247 -0.256213,0.25622 -1.922191,0.37703 -2.40816,0.17464 z m 4.197385,-5.24852 c 0.174784,-0.006 0.31779,-0.0853 0.31779,-0.17587 0,-0.0905 -0.154813,-0.1241 -0.34403,-0.0746 -0.321603,0.0841 -0.345686,-0.0438 -0.369447,-1.96246 -0.0363,-2.93147 -0.01747,-2.88871 -1.258344,-2.85568 l -1.024478,0.0273 0.817173,0.11009 c 0.710932,0.0958 0.75815,0.12733 0.363187,0.24264 -0.668955,0.1953 -3.631876,0.16672 -3.631876,-0.035 0,-0.0949 0.469874,-0.20202 1.044164,-0.23805 0.574291,-0.036 -0.998766,-0.0834 -3.495681,-0.10525 -23.822953,-0.20847 -28.6722415,-0.21546 -28.4194345,-0.041 0.149815,0.10342 0.809737,0.18928 1.4664955,0.19081 1.311252,0.003 1.819464,0.32538 2.049286,1.29971 0.110847,0.46994 0.100091,0.46669 -0.525332,-0.15873 l -0.638495,-0.6385 -1.5672025,0.0823 c -1.440451,0.0756 -1.602403,0.12318 -2.002436,0.58824 -0.564876,0.65671 -0.47976,1.08434 0.229684,1.15394 0.375987,0.0369 0.660159,-0.0647 0.889228,-0.31779 0.471952,-0.5215 1.2584555,-0.47637 1.7957195,0.10304 0.36765,0.3965 0.564045,0.46327 1.187708,0.40379 0.695698,-0.0663 0.74762,-0.0396 0.752997,0.38753 0.0056,0.44258 0.01519,0.44633 0.27239,0.10628 0.152548,-0.20168 0.266908,-0.74553 0.267299,-1.27115 l 6.9e-4,-0.91866 6.702146,0 c 3.686181,0 6.741791,0.0408 6.790244,0.0908 0.103528,0.1067 0.198344,1.64123 0.15559,2.51809 -0.02757,0.56544 -0.06731,0.6038 -0.529192,0.51089 -0.274661,-0.0553 -1.302938,-0.0202 -2.285062,0.0779 -1.184163,0.11829 -2.346409,0.11665 -3.450283,-0.005 -0.915531,-0.10078 -3.18972,-0.1956 -5.053752,-0.21069 -3.234403,-0.0262 -3.393524,-0.0442 -3.484953,-0.39381 -0.07439,-0.28449 -0.189505,-0.33922 -0.515119,-0.24492 -1.109918,0.32145 -2.2731385,0.33276 -2.7403195,0.0266 -0.258624,-0.16945 -0.700229,-0.28173 -0.981345,-0.24951 -0.437914,0.0502 -0.503634,0.13012 -0.458849,0.55798 0.04219,0.40308 -0.02139,0.49938 -0.329727,0.49938 -0.867047,0 -1.0846794,-0.3027 -1.0817184,-1.50453 0.0015,-0.62072 0.06282,-1.21809 0.136196,-1.32749 0.07338,-0.1094 0.4429854,-0.24778 0.8213494,-0.3075 0.378364,-0.0597 0.924394,-0.30756 1.213399,-0.55074 l 0.525464,-0.44215 -1.561443,-0.082 c -1.6984974,-0.0892 -2.4089094,-0.0151 -2.4089094,0.25118 0,0.0941 0.06965,0.12809 0.154782,0.0755 0.08513,-0.0526 0.170489,0.85238 0.189688,2.0111 0.0192,1.15871 0.05169,2.19798 0.07221,2.30947 0.02052,0.11149 -0.113901,0.17681 -0.298708,0.14516 -0.201696,-0.0345 -0.288149,0.0199 -0.216275,0.1362 0.13489,0.21825 1.6692264,0.26834 1.7629134,0.0575 0.03329,-0.0749 0.319101,-0.27137 0.63513,-0.43659 0.533052,-0.27868 0.60527,-0.27885 0.998767,-0.002 0.536129,0.37687 3.0624965,0.40269 3.5045525,0.0358 0.245302,-0.20358 0.351849,-0.18212 0.694603,0.13988 0.397166,0.37312 0.545859,0.38041 7.82784,0.3842 4.082642,0.002 7.445939,0.0268 7.473997,0.0549 0.04064,0.0407 16.357023,0.0142 17.559729,-0.0285 z M 26.499407,246.8934 c 0.173231,-0.17324 2.348068,-0.20936 11.756924,-0.19531 3.272291,0.005 5.010972,0.0706 4.939234,0.18668 -0.07019,0.11357 -3.177489,0.17954 -8.489793,0.18024 -5.298883,7.2e-4 -8.315589,-0.0624 -8.206365,-0.17161 z m 12.668454,-1.25557 c -1.015883,-0.0619 -1.905677,-0.17156 -1.977319,-0.24367 -0.294912,-0.29685 0.959168,-0.53087 2.221452,-0.41454 1.186305,0.10932 1.320031,0.0874 1.498149,-0.24539 0.107565,-0.20099 0.195573,-0.5751 0.195573,-0.83136 0,-0.25626 0.06129,-0.47354 0.136195,-0.48286 1.151405,-0.14314 1.679743,-0.10384 1.679743,0.12495 0,0.14035 -0.08172,0.25517 -0.181594,0.25517 -0.31833,0 -0.202973,1.05946 0.136196,1.25083 0.246226,0.13893 0.26908,0.22852 0.101485,0.39784 -0.271966,0.27477 -1.446444,0.33304 -3.80988,0.18903 z m -7.771784,-0.19424 c -0.222963,-0.36076 0.670635,-0.5855 1.940385,-0.488 1.365527,0.10485 1.650653,0.21781 1.226617,0.48598 -0.35162,0.22237 -3.029762,0.22408 -3.167002,0.002 z m 2.504626,-1.69533 c -0.20567,-0.33278 0.34303,-0.4303 2.597182,-0.46161 1.255342,-0.0174 2.349352,-0.073 2.431131,-0.12359 0.08178,-0.0505 0.38027,-0.003 0.663311,0.10456 0.492321,0.18795 0.49961,0.20748 0.168211,0.45083 -0.264733,0.1944 -0.983987,0.24798 -3.05049,0.22726 -1.487242,-0.0149 -2.751448,-0.10377 -2.809345,-0.19745 z m -15.303334,1.67693 c 0.375883,-0.37588 0.356289,-0.88555 -0.05375,-1.39806 -0.312773,-0.39095 -1.448249,-0.26025 -2.006541,0.23096 l -0.507453,0.44648 0.559113,0.54655 c 0.667344,0.65235 1.461528,0.72117 2.008629,0.17407 z m 4.60932,0.16332 c 0.600438,-0.27357 0.748795,-0.78973 0.386096,-1.34328 -0.510774,-0.77954 -2.283916,-0.52029 -2.278016,0.33307 0.0037,0.5402 0.192026,0.80303 0.728721,1.01722 0.592993,0.23665 0.628916,0.23643 1.163199,-0.007 z m 22.232562,-4.9563 c 0.347897,-0.3454 0.583606,-12.88899 0.536902,-28.572 -0.03025,-10.1579 -0.07882,-12.25379 -0.287984,-12.42738 -0.294224,-0.24419 -0.474447,-0.24564 -20.925898,-0.16833 -8.23982,0.0311 -16.1255325,0.1112 -17.5238045,0.17788 l -2.5423144,0.12124 -0.139409,2.36072 c -0.07667,1.2984 -0.08168,2.64673 -0.01112,2.9963 0.12521,0.62034 0.131389,0.61163 0.257644,-0.36319 0.07115,-0.54932 0.13744,-1.7855 0.147317,-2.74707 0.01257,-1.22375 0.09117,-1.80906 0.261959,-1.95081 0.371539,-0.30835 39.6040089,-0.19885 39.9142529,0.11141 0.363022,0.36303 0.548932,6.32735 0.573148,18.38761 0.02186,10.88799 -0.259935,21.52467 -0.5787,21.84343 -0.211093,0.2111 -0.969665,-0.0201 -0.826421,-0.25191 0.124868,-0.20204 -0.450739,-0.72429 -1.418567,-1.28709 -0.374537,-0.21779 -0.682228,-0.44223 -0.683757,-0.49874 -0.0015,-0.0565 -0.07074,-0.20992 -0.153801,-0.34089 -0.12127,-0.19123 -0.308513,-0.16737 -0.950585,0.12116 -0.669918,0.30104 -1.520983,0.39477 -5.248618,0.57804 -6.985399,0.34344 -12.203822,0.4036 -17.682872,0.20385 -3.142106,-0.11456 -5.230809,-0.12041 -5.506902,-0.0154 -0.323355,0.12294 -0.551256,0.0945 -0.834705,-0.10399 -0.43685,-0.30598 -1.580251,-0.37219 -1.580251,-0.0915 0,0.0999 -0.163435,0.18159 -0.3631885,0.18159 -0.199753,0 -0.363188,-0.1145 -0.363188,-0.25445 0,-0.13995 -0.294272,-0.42808 -0.653938,-0.64029 l -0.653939,-0.38584 -0.686125,0.77949 c -0.37737,0.42871 -0.90027,0.89408 -1.162,1.03416 -0.5389474,0.28843 -0.6756534,0.85413 -0.1580854,0.65416 0.1747844,-0.0675 2.3198614,-0.11205 4.7668389,-0.0989 8.588758,0.046 24.097577,0.0652 27.665922,0.0342 3.769384,-0.0328 5.520944,0.0979 4.65778,0.34759 -0.249692,0.0722 -8.883716,0.1358 -19.186718,0.14129 -14.8095195,0.008 -18.7723279,-0.0377 -18.9217849,-0.21781 -0.103978,-0.12529 -0.262904,-1.49112 -0.35317,-3.03519 l -0.164119,-2.80739 -0.02685,3.03098 c -0.01993,2.24996 0.03164,3.06884 0.200144,3.17789 0.305845,0.19795 15.4734009,0.34076 29.1912089,0.27485 9.094977,-0.0437 11.213995,-0.0993 11.415695,-0.29956 z M 32.7524,238.08046 c 0.449444,-0.0479 1.421509,-0.13331 2.160144,-0.18979 0.822035,-0.0629 1.629127,-0.24869 2.080678,-0.47906 0.489045,-0.24949 0.760691,-0.3074 0.80589,-0.1718 0.0375,0.11249 0.256352,0.20454 0.486341,0.20454 0.637349,0 1.069235,-1.06216 1.144497,-2.81471 0.07031,-1.63735 0.619124,-3.21137 1.236454,-3.54621 0.495046,-0.26851 1.282543,-1.86745 1.428466,-2.90037 0.173177,-1.22583 0.825613,-4.04204 1.019628,-4.40119 0.287301,-0.53182 0.198483,-1.07327 -0.192844,-1.1756 -0.424052,-0.11089 -0.459816,-0.37522 -0.118352,-0.87478 0.134659,-0.19701 0.294144,-0.61425 0.354411,-0.9272 0.06027,-0.31294 0.166424,-0.7955 0.235907,-1.07234 0.112988,-0.45017 0.08514,-0.49257 -0.26362,-0.40137 -0.214473,0.0561 -0.696389,0.007 -1.070922,-0.10802 l -0.680972,-0.20999 1.18036,-0.0908 c 1.070921,-0.0824 1.185981,-0.13051 1.240985,-0.51919 0.03334,-0.23562 -0.143228,-1.09365 -0.392379,-1.90674 -0.501758,-1.63744 -0.687521,-2.6254 -0.75324,-4.00599 -0.151467,-3.18202 -0.338411,-4.58148 -0.689911,-5.16468 -0.357978,-0.59395 -0.438346,-0.8968 -0.582629,-2.19553 -0.0457,-0.41138 -0.01482,-0.53792 0.08992,-0.36845 0.248054,0.40136 0.322625,0.14787 0.147342,-0.50084 -0.213181,-0.78895 -0.777405,-1.03786 -2.934095,-1.29437 -0.982123,-0.11682 -2.006915,-0.3268 -2.277318,-0.46663 -0.512643,-0.2651 -0.360723,-0.26491 -14.09639,-0.0174 -2.696668,0.0486 -5.352478,0.12634 -5.901799,0.17275 -0.549321,0.0464 -1.77508,0.13644 -2.723907,0.20006 -2.29491,0.15389 -4.0157155,0.42257 -4.3191065,0.67436 -0.714323,0.59284 -1.567855,3.60504 -2.046096,7.22089 -0.257814,1.94926 -0.342563,13.17076 -0.113831,15.07229 0.07809,0.6492 0.261725,2.20183 0.408077,3.45028 0.358061,3.05446 0.520738,3.90818 0.968878,5.08463 0.20925,0.54932 0.380496,1.17781 0.380546,1.39664 5.1e-5,0.21883 0.08181,0.44837 0.181686,0.5101 0.09988,0.0617 0.181594,0.25118 0.181594,0.42102 0,0.16983 0.154653,0.40537 0.343673,0.52342 1.1479465,0.7169 18.4161505,1.36929 23.0819315,0.87203 z m 1.45275,-32.4956 c -0.438451,-0.26053 -0.418703,-0.26998 0.577209,-0.27619 1.157403,-0.007 1.503401,-0.23407 1.696246,-1.11208 0.175687,-0.79989 0.508239,-0.38582 0.353325,0.43994 -0.06735,0.35902 -0.224301,0.73728 -0.348774,0.84059 -0.40364,0.33499 -1.785558,0.40035 -2.278006,0.10774 z m -29.5404719,15.8477 c -0.02349,-6.4247 -0.06046,-12.08986 -0.08215,-12.58925 -0.109028,-2.51004 -0.299984,5.00313 -0.318908,12.54748 -0.0206,8.2136 0.08342,11.94575 0.328732,11.79414 0.06327,-0.0391 0.09582,-5.32767 0.07233,-11.75237 z m 1.6990184,-12.04562 c 0.06116,-0.655 0.180863,-1.23395 0.265997,-1.28657 0.08513,-0.0526 0.154788,-0.29848 0.154788,-0.54636 0,-0.59854 0.669129,-2.67094 1.213963,-3.75985 0.573851,-1.14689 1.266952,-1.43559 4.3926275,-1.82966 1.335783,-0.16842 2.643259,-0.4228 2.905501,-0.5653 l 0.476804,-0.25909 -0.659798,-0.007 c -0.516431,-0.006 -0.681697,-0.091 -0.760586,-0.39269 -0.09762,-0.37328 -0.168308,-0.38203 -2.245704,-0.27806 -1.179703,0.059 -3.0904115,0.10991 -4.2460175,0.11303 l -2.1011024,0.006 0.03116,1.04417 c 0.01714,0.57429 -0.03374,1.94305 -0.11305,3.04169 -0.270684,3.74946 -0.290294,4.35845 -0.154956,4.81224 0.07447,0.24969 0.14354,0.34702 0.153496,0.21628 0.01,-0.13074 0.09999,-0.1871 0.200088,-0.12524 0.102745,0.0635 0.13727,0.44376 0.07929,0.87329 -0.08034,0.59516 -0.05926,0.69264 0.0968,0.44772 0.109722,-0.1722 0.2495384,-0.849 0.3107034,-1.504 z m 37.1565285,-6.53623 c 0.457815,-0.34956 0.908796,-0.63557 1.00218,-0.63557 0.212029,0 0.422251,-0.99349 0.285586,-1.34963 -0.141375,-0.36842 -0.29724,-0.38221 -3.634405,-0.32167 -2.930036,0.0532 -2.967608,0.0589 -2.944638,0.45398 0.0128,0.22008 -0.0089,0.51555 -0.04813,0.6566 -0.09026,0.32418 1.129593,0.62265 1.997287,0.48869 0.52664,-0.0813 0.734374,0.009 1.432918,0.62405 0.449342,0.39552 0.875444,0.71913 0.946898,0.71913 0.07145,0 0.504489,-0.28601 0.962305,-0.63558 z"
       id="path3436"
       inkscape:connector-curvature="0" />
  </g>
</svg>
