<?xml version="1.0" encoding="UTF-8" standalone="no"?>
<!-- Created with Inkscape (http://www.inkscape.org/) -->

<svg
   xmlns:osb="http://www.openswatchbook.org/uri/2009/osb"
   xmlns:dc="http://purl.org/dc/elements/1.1/"
   xmlns:cc="http://creativecommons.org/ns#"
   xmlns:rdf="http://www.w3.org/1999/02/22-rdf-syntax-ns#"
   xmlns:svg="http://www.w3.org/2000/svg"
   xmlns="http://www.w3.org/2000/svg"
   xmlns:xlink="http://www.w3.org/1999/xlink"
   xmlns:sodipodi="http://sodipodi.sourceforge.net/DTD/sodipodi-0.dtd"
   xmlns:inkscape="http://www.inkscape.org/namespaces/inkscape"
   width="200"
   height="380"
   viewBox="0 0 52.916668 100.54167"
   version="1.1"
   id="svg8"
   inkscape:version="0.91 r13725"
   sodipodi:docname="MusicalAnt.svg"
   enable-background="new">
  <defs
     id="defs2">
    <linearGradient
       id="linearGradient4319"
       inkscape:collect="always">
      <stop
         id="stop4498"
         offset="0"
         style="stop-color:#5f5f5f;stop-opacity:1;" />
      <stop
         id="stop4500"
         offset="1"
         style="stop-color:#5f5f5f;stop-opacity:0;" />
    </linearGradient>
    <linearGradient
       id="linearGradient4385"
       osb:paint="solid">
      <stop
         style="stop-color:#ffffff;stop-opacity:0.69040245;"
         offset="0"
         id="stop4387" />
    </linearGradient>
    <clipPath
       clipPathUnits="userSpaceOnUse"
       id="clipPath3571">
      <rect
         style="fill:#82ff9b;fill-opacity:1"
         id="rect3573"
         width="79.375"
         height="100.54167"
         x="0"
         y="196.45831" />
    </clipPath>
    <linearGradient
       inkscape:collect="always"
       xlink:href="#linearGradient4319"
       id="linearGradient4325"
       x1="6.4611001"
       y1="23.691019"
       x2="43.88636"
       y2="23.691019"
       gradientUnits="userSpaceOnUse" />
    <linearGradient
       inkscape:collect="always"
       xlink:href="#linearGradient4319"
       id="linearGradient3362"
       gradientUnits="userSpaceOnUse"
       x1="6.4611001"
       y1="23.691019"
       x2="43.88636"
       y2="23.691019" />
    <filter
       inkscape:collect="always"
       style="color-interpolation-filters:sRGB"
       id="filter4468">
      <feBlend
         inkscape:collect="always"
         mode="lighten"
         in2="BackgroundImage"
         id="feBlend4470" />
    </filter>
  </defs>
  <sodipodi:namedview
     id="base"
     pagecolor="#ffffff"
     bordercolor="#666666"
     borderopacity="1.0"
     inkscape:pageopacity="0.0"
     inkscape:pageshadow="2"
     inkscape:zoom="1.66258"
     inkscape:cx="60.275823"
     inkscape:cy="190.00352"
     inkscape:document-units="mm"
     inkscape:current-layer="layer3"
     showgrid="true"
     units="px"
     inkscape:snap-bbox="true"
     inkscape:snap-page="true"
     inkscape:bbox-nodes="true"
     inkscape:snap-bbox-edge-midpoints="true"
     inkscape:window-width="1223"
     inkscape:window-height="835"
     inkscape:window-x="181"
     inkscape:window-y="3"
     inkscape:window-maximized="0"
     inkscape:snap-global="false"
     showguides="true">
    <inkscape:grid
       type="xygrid"
       id="grid3371" />
  </sodipodi:namedview>
  <metadata
     id="metadata5">
    <rdf:RDF>
      <cc:Work
         rdf:about="">
        <dc:format>image/svg+xml</dc:format>
        <dc:type
           rdf:resource="http://purl.org/dc/dcmitype/StillImage" />
        <dc:title />
      </cc:Work>
    </rdf:RDF>
  </metadata>
  <g
     inkscape:label="Background"
     inkscape:groupmode="layer"
     id="layer1"
     transform="translate(0,-196.45832)"
     style="display:inline;opacity:1;filter:url(#filter4468)">
    <path
       style="opacity:1;fill:#c0c0c0;fill-opacity:1;fill-rule:evenodd;stroke:none;stroke-width:0.48607069;stroke-linecap:butt;stroke-linejoin:round;stroke-miterlimit:4;stroke-dasharray:none;stroke-dashoffset:0;stroke-opacity:1;paint-order:normal"
       d="m 0,296.99999 52.985734,0 0,-100.54168 -52.985734,0 z"
       id="rect817"
       inkscape:connector-curvature="0" />
    <rect
       style="opacity:1;fill:none;fill-opacity:1;stroke:#aaaaaa;stroke-width:3.09843946;stroke-linejoin:miter;stroke-miterlimit:4;stroke-dasharray:none;stroke-opacity:1"
       id="rect4454"
       width="49.245514"
       height="98.758324"
       x="1.7090607"
       y="197.6579" />
  </g>
  <g
     inkscape:groupmode="layer"
     id="layer3"
     inkscape:label="Midground"
     style="display:inline">
    <path
       style="display:inline;opacity:1;fill:#000000"
       d="M 186.50781 6.75 C 185.97874 6.7292846 185.26133 7.2286136 184.29688 7.8300781 C 182.55264 8.9179395 177.24031 8.991783 110.22852 8.8515625 C 42.566606 8.7098302 29.588839 8.542458 16.042969 7.640625 L 10.634766 7.28125 L 10.388672 188.67773 C 10.253219 288.44622 10.361455 370.89301 10.628906 371.89258 L 11.115234 373.71094 L 99.210938 373.58398 C 186.30822 373.45775 187.4668 373.46875 187.4668 373.46875 C 187.88815 373.8659 187.27958 114.04197 187.85156 32.224609 C 187.99609 11.55157 188.09502 6.8121461 186.50781 6.75 z M 159.92578 11.191406 C 180.06583 11.202791 180.61937 11.42122 181.34961 11.998047 C 182.18021 12.654135 182.37207 20.574735 182.49219 58.966797 C 182.67766 118.24116 181.74285 165.65158 180.36133 166.95703 C 179.56036 167.71392 171.14416 167.92468 135.02734 168.08984 C 80.55294 168.33895 20.321955 167.79894 19.107422 167.05078 C 18.438282 166.63862 18.233353 163.54285 18.3125 155.03906 L 18.419922 143.58398 L 19.070312 154.19336 C 19.428766 160.02921 20.059752 165.19248 20.472656 165.66602 C 21.066161 166.34675 36.803603 166.51852 95.613281 166.48828 C 136.52725 166.46753 170.81314 166.22796 171.80469 165.95508 C 175.23237 165.01137 168.27709 164.51668 153.30859 164.64062 C 139.13844 164.75779 77.551893 164.68558 43.445312 164.51172 C 33.728185 164.46202 25.209706 164.6316 24.515625 164.88672 C 22.460325 165.64251 23.004332 163.50419 25.144531 162.41406 C 26.18388 161.88463 28.259251 160.12423 29.757812 158.50391 L 32.482422 155.55859 L 35.080078 157.01758 C 36.508338 157.81963 37.675781 158.90856 37.675781 159.4375 C 37.675781 159.96644 38.325905 160.39844 39.119141 160.39844 C 39.912377 160.39844 40.560547 160.09047 40.560547 159.71289 C 40.560547 158.65202 45.101172 158.90213 46.835938 160.05859 C 47.961532 160.80879 48.866326 160.91583 50.150391 160.45117 C 51.246775 160.05428 59.542 160.07678 72.019531 160.50977 C 93.777239 161.26473 114.49875 161.03632 142.23828 159.73828 C 157.04099 159.04561 160.42174 158.69248 163.08203 157.55469 C 165.63174 156.46418 166.37585 156.37294 166.85742 157.0957 C 167.18728 157.59071 167.46075 158.17122 167.4668 158.38477 C 167.47287 158.59835 168.69628 159.44639 170.18359 160.26953 C 174.02691 162.39665 176.31226 164.37115 175.81641 165.13477 C 175.24757 166.0109 178.25939 166.8838 179.09766 166.08594 C 180.3635 164.88118 181.4833 124.68075 181.39648 83.529297 C 181.30032 37.947213 180.56073 15.403332 179.11914 14.03125 C 177.88714 12.858614 22.092594 12.445911 20.617188 13.611328 C 19.938972 14.147076 19.626088 16.359178 19.576172 20.984375 C 19.536949 24.618655 19.274727 29.291017 18.992188 31.367188 C 18.49082 35.051544 18.46597 35.084826 17.96875 32.740234 C 17.688551 31.419025 17.709208 26.321401 18.013672 21.414062 L 18.566406 12.492188 L 28.662109 12.035156 C 34.21475 11.783137 65.529074 11.478871 98.25 11.361328 C 128.70533 11.251755 147.84175 11.184575 159.92578 11.191406 z M 54.341797 14.921875 C 56.472143 14.959625 56.671778 15.30183 56.914062 16.183594 C 57.227332 17.323839 57.884764 17.645292 59.935547 17.667969 L 62.554688 17.695312 L 60.662109 18.673828 C 59.620725 19.212411 54.427538 20.173999 49.123047 20.810547 C 36.710761 22.299945 33.95849 23.391862 31.679688 27.726562 C 29.516112 31.842128 26.859375 39.673349 26.859375 41.935547 C 26.859375 42.872416 26.5822 43.80315 26.244141 44.001953 C 25.906068 44.200832 25.432326 46.387691 25.189453 48.863281 L 25.189453 48.867188 C 24.946563 51.342776 24.390793 53.899947 23.955078 54.550781 C 23.33535 55.476463 23.251281 55.108799 23.570312 52.859375 C 23.800557 51.235955 23.663867 49.798594 23.255859 49.558594 C 22.858363 49.324792 22.500643 49.537115 22.460938 50.03125 C 22.421401 50.525385 22.147288 50.158554 21.851562 49.214844 C 21.314128 47.499732 21.391891 45.196576 22.466797 31.025391 C 22.781743 26.873051 22.984077 21.699842 22.916016 19.529297 L 22.791016 15.583984 L 31.134766 15.560547 C 35.723761 15.548755 43.311407 15.355805 47.996094 15.132812 C 51.089653 14.985455 53.063589 14.899225 54.341797 14.921875 z M 171.1875 15.339844 C 176.97864 15.323243 177.43246 15.61191 177.85352 16.65625 C 178.39622 18.002291 177.56073 21.757812 176.71875 21.757812 C 176.34791 21.757812 174.55825 22.838985 172.74023 24.160156 C 170.92222 25.481366 169.2017 26.5625 168.91797 26.5625 C 168.63422 26.5625 166.94257 25.338629 165.1582 23.84375 C 162.38423 21.519152 161.56008 21.179053 159.46875 21.486328 C 156.02308 21.992634 151.17866 20.863919 151.53711 19.638672 C 151.69305 19.10557 151.77935 17.988048 151.72852 17.15625 C 151.6373 15.663034 151.78649 15.642477 163.42188 15.441406 C 166.73489 15.384203 169.25712 15.345377 171.1875 15.339844 z M 17.939453 44.953125 C 18.00177 45.028887 18.061115 45.622748 18.115234 46.808594 C 18.201367 48.696052 18.348126 70.108295 18.441406 94.390625 C 18.534691 118.67295 18.405545 138.66081 18.154297 138.80859 C 17.180142 139.38161 16.767805 125.27595 16.849609 94.232422 C 16.915365 69.282604 17.503234 44.422791 17.939453 44.953125 z M 195.24414 65.339844 L 195.06055 222.33984 L 194.88281 376.39062 L 195.59766 376.39062 L 195.42383 222.68359 L 195.24414 65.339844 z "
       transform="scale(0.26458334,0.26458334)"
       id="path3436" />
  </g>
  <g
     inkscape:groupmode="layer"
     id="layer2"
     inkscape:label="Foreground"
     style="display:inline;opacity:1">
    <rect
       style="display:inline;opacity:1;fill:#d8d8d8;fill-opacity:1"
       id="rect3348"
       width="41.627159"
       height="51.792706"
       x="5.2908826"
       y="45.600136" />
    <path
       style="fill:#1a1a1a;fill-opacity:1;stroke:url(#linearGradient4325);stroke-width:0.25031251;stroke-miterlimit:4;stroke-dasharray:none;stroke-opacity:1"
       d="m 8.9469681,6.6743245 c 0,0 -0.00311,-1.4206565 16.1186289,-1.3939662 16.446629,0.027228 16.333085,1.3939662 16.333085,1.3939662 0,0 2.467799,-0.031855 2.35902,16.4793425 -0.114165,17.328675 -2.35902,17.337167 -2.35902,17.337167 0,0 0.0322,1.527262 -16.333085,1.608423 -16.2384639,0.08053 -16.1186289,-1.608423 -16.1186289,-1.608423 0,0 -2.2802101,-0.01458 -2.3590196,-17.337167 C 6.5131905,6.7215966 8.9469681,6.6743245 8.9469681,6.6743245 Z"
       id="rect3373"
       inkscape:connector-curvature="0"
       sodipodi:nodetypes="cscscscsc" />
    <text
       xml:space="preserve"
       style="font-style:normal;font-variant:normal;font-weight:normal;font-stretch:normal;font-size:1.984375px;line-height:125%;font-family:sans-serif;-inkscape-font-specification:'sans-serif, Normal';text-align:start;letter-spacing:0px;word-spacing:0px;writing-mode:lr-tb;text-anchor:start;fill:#000000;fill-opacity:1;stroke:none;stroke-width:1px;stroke-linecap:butt;stroke-linejoin:miter;stroke-opacity:1"
       x="52.250988"
       y="5.2423697"
       id="text4192"
       sodipodi:linespacing="125%"><tspan
         sodipodi:role="line"
         id="tspan4194"
         x="52.250988"
         y="5.2423697">CLK</tspan></text>
    <rect
       style="fill:#e8e8e8;fill-opacity:1;stroke:#000000;stroke-width:0.16962722;stroke-linecap:butt;stroke-linejoin:round;stroke-miterlimit:4;stroke-dasharray:none;stroke-dashoffset:0;stroke-opacity:1"
       id="rect4203"
       width="16.546701"
       height="8.9741554"
       x="29.985802"
       y="-54.962444"
       transform="scale(1,-1)" />
    <text
       sodipodi:linespacing="125%"
       id="text4298"
       y="7.3627295"
       x="52.349613"
       style="font-style:normal;font-variant:normal;font-weight:bold;font-stretch:normal;font-size:1.65364587px;line-height:125%;font-family:'Bangla MN';-inkscape-font-specification:'Bangla MN, Bold';text-align:start;letter-spacing:0px;word-spacing:0px;writing-mode:lr-tb;text-anchor:start;fill:#000000;fill-opacity:1;stroke:none;stroke-width:1px;stroke-linecap:butt;stroke-linejoin:miter;stroke-opacity:1"
       xml:space="preserve"><tspan
         y="7.3627295"
         x="52.349613"
         id="tspan4300"
         sodipodi:role="line">CLK</tspan></text>
    <g
       style="font-style:normal;font-variant:normal;font-weight:bold;font-stretch:normal;font-size:1.65364587px;line-height:125%;font-family:'Bangla MN';-inkscape-font-specification:'Bangla MN, Bold';text-align:start;letter-spacing:0px;word-spacing:0px;writing-mode:lr-tb;text-anchor:start;fill:#000000;fill-opacity:1;stroke:none;stroke-width:1px;stroke-linecap:butt;stroke-linejoin:miter;stroke-opacity:1"
       id="text4302"
       transform="translate(-20.571419,24.951218)">
      <path
         d="m 52.811715,22.043333 q 0,0.126779 0.03858,0.224161 0.03859,0.09738 0.101975,0.163527 0.06431,0.06615 0.146991,0.100137 0.0836,0.03399 0.172714,0.03399 0.0689,0 0.127698,-0.02389 0.05971,-0.02389 0.111162,-0.06339 0.05237,-0.04042 0.09738,-0.09279 0.04502,-0.05328 0.08636,-0.11208 l 0.13413,0.0983 q -0.04318,0.06982 -0.104731,0.134129 -0.06063,0.06431 -0.136885,0.113918 -0.07625,0.04961 -0.166284,0.07901 -0.09003,0.0294 -0.190169,0.0294 -0.169039,0 -0.311437,-0.04869 -0.141478,-0.04961 -0.24529,-0.139641 -0.102894,-0.09003 -0.160772,-0.215893 -0.05788,-0.125861 -0.05788,-0.280201 0,-0.09922 0.0248,-0.188332 0.02481,-0.09003 0.07074,-0.166283 0.04685,-0.07625 0.113918,-0.136885 0.06706,-0.06155 0.150665,-0.104731 0.08452,-0.04318 0.184657,-0.06615 0.100138,-0.02297 0.212218,-0.02297 0.112999,0 0.206706,0.02664 0.09463,0.02572 0.170877,0.0735 0.07717,0.04685 0.136885,0.11208 0.06063,0.06523 0.106568,0.142398 l -0.135966,0.09463 q -0.04134,-0.0588 -0.09003,-0.110243 -0.04777,-0.05236 -0.102894,-0.09095 -0.05512,-0.0395 -0.115755,-0.06247 -0.06063,-0.02297 -0.12678,-0.02297 -0.09003,0 -0.171795,0.03399 -0.08176,0.03399 -0.144235,0.100137 -0.06155,0.06615 -0.0983,0.163527 -0.03583,0.09738 -0.03583,0.22508 z"
         id="path4307"
         inkscape:connector-curvature="0" />
      <path
         d="m 54.096205,21.390143 0.320623,0 0,1.174088 0.66789,0 0,0.134129 -0.988513,0 0,-1.308217 z"
         id="path4309"
         inkscape:connector-curvature="0" />
      <path
         d="m 55.291222,21.390143 0.322461,0 0,0.4915 0.579695,-0.4915 0.248966,0 -0.654109,0.553052 0.829579,0.755165 -0.388607,0 -0.615524,-0.560402 0,0.560402 -0.322461,0 0,-1.308217 z"
         id="path4311"
         inkscape:connector-curvature="0" />
    </g>
    <path
       style="color:#000000;font-style:normal;font-variant:normal;font-weight:normal;font-stretch:normal;font-size:medium;line-height:normal;font-family:sans-serif;text-indent:0;text-align:start;text-decoration:none;text-decoration-line:none;text-decoration-style:solid;text-decoration-color:#000000;letter-spacing:normal;word-spacing:normal;text-transform:none;direction:ltr;block-progression:tb;writing-mode:lr-tb;baseline-shift:baseline;text-anchor:start;white-space:normal;clip-rule:nonzero;display:inline;overflow:visible;visibility:visible;opacity:1;isolation:auto;mix-blend-mode:normal;color-interpolation:sRGB;color-interpolation-filters:linearRGB;solid-color:#000000;solid-opacity:1;fill:url(#linearGradient3362);fill-opacity:1;fill-rule:nonzero;stroke:none;stroke-width:0.25031251;stroke-linecap:butt;stroke-linejoin:miter;stroke-miterlimit:4;stroke-dasharray:none;stroke-dashoffset:0;stroke-opacity:1;color-rendering:auto;image-rendering:auto;shape-rendering:auto;text-rendering:auto;enable-background:accumulate"
       d="M 25.066406,5.1542969 C 17.001861,5.1409456 12.967961,5.4894652 10.939453,5.84375 9.9251993,6.0208924 9.4126286,6.1982664 9.140625,6.3417969 9.0046232,6.4135621 8.9269917,6.4781658 8.8808594,6.5351562 c -0.00958,0.01183 -0.012553,0.021981 -0.019531,0.033203 -0.022515,0.00709 -0.044597,0.01245 -0.074219,0.027344 C 8.7042353,6.6373713 8.595082,6.7146066 8.4726562,6.8554688 8.2278047,7.1371931 7.9218295,7.6730592 7.6191406,8.7167969 7.0137628,10.804272 6.4254835,14.932082 6.4628906,23.154297 c 0.03943,8.666785 0.6277097,13.006606 1.2128906,15.195312 0.2925905,1.094354 0.5848065,1.652279 0.8164063,1.945313 0.1157999,0.146517 0.2170021,0.227739 0.296875,0.271484 0.023936,0.01311 0.041021,0.01816 0.060547,0.02539 0.00589,0.01296 0.00883,0.02296 0.017578,0.03711 0.040976,0.06631 0.1136177,0.144654 0.2460937,0.230469 0.2649521,0.171631 0.7690227,0.380074 1.7773438,0.587891 2.016642,0.415633 6.052212,0.81763 14.175781,0.777343 8.186536,-0.0406 12.273696,-0.44307 14.326172,-0.83789 1.026238,-0.19741 1.544798,-0.390495 1.81836,-0.546875 0.13678,-0.07819 0.212809,-0.148292 0.257812,-0.208985 0.0099,-0.01336 0.01262,-0.02467 0.01953,-0.03711 0.0211,-0.0074 0.04178,-0.01264 0.06836,-0.02734 0.07909,-0.04375 0.178633,-0.125194 0.292968,-0.271484 0.228671,-0.29258 0.516314,-0.847562 0.806641,-1.941406 C 43.236904,36.165831 43.825693,31.824041 43.882811,23.1543 43.937243,14.892464 43.34815,10.76564 42.738281,8.6875 42.433347,7.6484302 42.123521,7.1196978 41.875,6.84375 41.750739,6.7057761 41.640972,6.6311346 41.556641,6.5917969 c -0.02819,-0.013151 -0.04845,-0.019017 -0.07031,-0.025391 -0.0058,-0.00944 -0.0081,-0.017648 -0.01563,-0.027344 C 41.426045,6.4814654 41.350481,6.4193766 41.216797,6.3496094 40.949429,6.210075 40.440474,6.036988 39.419922,5.8632812 37.378817,5.5158677 33.293188,5.1679166 25.066406,5.1542969 Z m -0.002,0.2519531 c 8.219847,0.013608 12.300673,0.3623156 14.314453,0.7050781 1.00689,0.1713813 1.497357,0.3433576 1.722656,0.4609375 0.111186,0.058026 0.155903,0.099452 0.169922,0.1171875 l -0.0098,0.1113281 0.138672,-0.00195 c 0,0 0,0.00195 0,0.00195 0.0087,0.00184 0.02568,0.00587 0.05078,0.017578 0.0502,0.023417 0.132885,0.076332 0.238281,0.1933594 0.210792,0.2340543 0.510176,0.7292276 0.808594,1.7460937 0.596836,2.0337327 1.189114,6.1451667 1.134765,14.3945317 -0.05705,8.658933 -0.648436,12.987992 -1.21875,15.136718 -0.285156,1.074364 -0.56591,1.602983 -0.761718,1.853516 -0.0979,0.125267 -0.172678,0.180674 -0.216797,0.205078 -0.02206,0.0122 -0.03684,0.01598 -0.04297,0.01758 l -0.121094,0 0.002,0.109375 c -0.001,0.002 -8.73e-4,0.0011 -0.0059,0.0078 -0.01716,0.02315 -0.06573,0.07437 -0.18164,0.140625 -0.231817,0.132517 -0.728862,0.324981 -1.740235,0.519531 -2.022745,0.389101 -6.102501,0.79147 -14.28125,0.832031 -8.114894,0.04024 -12.13999,-0.362773 -14.123047,-0.771484 C 9.9498781,40.99877 9.4700309,40.790969 9.25,40.648438 9.1399845,40.577172 9.0959804,40.523783 9.0800781,40.498047 c -0.00541,-0.0087 -0.005,-0.01126 -0.00586,-0.01367 l 0.00781,-0.117187 -0.1289062,-0.002 c -0.00652,-0.0017 -0.022355,-0.0072 -0.044922,-0.01953 C 8.8630692,40.320984 8.7867012,40.26614 8.6875,40.140625 8.4890976,39.889594 8.205282,39.359771 7.9179688,38.285156 7.3433422,36.135926 6.7522704,31.808146 6.7128906,23.152344 6.6755397,14.942488 7.2665535,10.831288 7.859375,8.7871094 8.1557857,7.7650203 8.4529638,7.2621257 8.6621094,7.0214844 8.7666822,6.9011637 8.8485064,6.8454173 8.8984375,6.8203125 c 0.024966,-0.012552 0.042172,-0.017424 0.050781,-0.019531 0,0 0,-0.00195 0,-0.00195 l 0.1230468,-0.00195 0,-0.099609 c 0.00102,-0.00173 -2.62e-4,-7.1e-4 0.00391,-0.00586 C 9.092845,6.6708088 9.1402505,6.6235043 9.2558594,6.5625 9.487077,6.4404914 9.9822359,6.2645292 10.982422,6.0898438 12.982794,5.7404729 17.00726,5.3929109 25.064453,5.40625 Z"
       id="path3358"
       inkscape:connector-curvature="0" />
    <rect
       y="-54.946499"
       x="5.7535625"
       height="8.942277"
       width="23.75425"
       id="rect3557"
       style="fill:#000000;fill-opacity:1;stroke:#000000;stroke-width:0.20287931;stroke-linecap:butt;stroke-linejoin:round;stroke-miterlimit:4;stroke-dasharray:none;stroke-dashoffset:0;stroke-opacity:1"
       transform="scale(1,-1)" />
    <g
       style="font-style:normal;font-variant:normal;font-weight:bold;font-stretch:normal;font-size:1.65364587px;line-height:125%;font-family:'Bangla MN';-inkscape-font-specification:'Bangla MN, Bold';text-align:start;letter-spacing:0px;word-spacing:0px;writing-mode:lr-tb;text-anchor:start;fill:#e8e8e8;fill-opacity:1;stroke:none;stroke-width:1px;stroke-linecap:butt;stroke-linejoin:miter;stroke-opacity:1"
       id="text4359"
       transform="translate(-45.264081,35.455311)">
      <path
         d="m 52.891286,11.481909 q 0,0.126779 0.03858,0.224161 0.03859,0.09738 0.101975,0.163527 0.06431,0.06615 0.146991,0.100137 0.0836,0.03399 0.172714,0.03399 0.0689,0 0.127698,-0.02389 0.05971,-0.02389 0.111162,-0.06339 0.05236,-0.04042 0.09738,-0.09279 0.04502,-0.05328 0.08636,-0.11208 l 0.134129,0.0983 q -0.04318,0.06982 -0.104731,0.134129 -0.06063,0.06431 -0.136885,0.113918 -0.07625,0.04961 -0.166283,0.07901 -0.09003,0.0294 -0.190169,0.0294 -0.16904,0 -0.311437,-0.04869 -0.141478,-0.04961 -0.245291,-0.139642 -0.102893,-0.09003 -0.160771,-0.215892 -0.05788,-0.125861 -0.05788,-0.280201 0,-0.09922 0.0248,-0.188332 0.02481,-0.09003 0.07074,-0.166283 0.04685,-0.07625 0.113917,-0.136886 0.06706,-0.06155 0.150666,-0.104731 0.08452,-0.04318 0.184657,-0.06614 0.100137,-0.02297 0.212218,-0.02297 0.112999,0 0.206706,0.02664 0.09463,0.02572 0.170876,0.0735 0.07717,0.04685 0.136885,0.11208 0.06063,0.06523 0.106569,0.142398 l -0.135967,0.09463 q -0.04134,-0.0588 -0.09003,-0.110243 -0.04777,-0.05237 -0.102894,-0.09095 -0.05512,-0.0395 -0.115755,-0.06247 -0.06063,-0.02297 -0.12678,-0.02297 -0.09003,0 -0.171795,0.03399 -0.08176,0.03399 -0.144235,0.100138 -0.06155,0.06615 -0.0983,0.163527 -0.03583,0.09738 -0.03583,0.22508 z"
         id="path4366"
         inkscape:connector-curvature="0"
         style="fill:#e8e8e8;fill-opacity:1" />
      <path
         d="m 54.175776,10.828719 0.320623,0 0,1.174088 0.667889,0 0,0.134129 -0.988512,0 0,-1.308217 z"
         id="path4368"
         inkscape:connector-curvature="0"
         style="fill:#e8e8e8;fill-opacity:1" />
      <path
         d="m 55.370793,10.828719 0.322461,0 0,0.4915 0.579695,-0.4915 0.248965,0 -0.654108,0.553052 0.829579,0.755165 -0.388607,0 -0.615524,-0.560402 0,0.560402 -0.322461,0 0,-1.308217 z"
         id="path4370"
         inkscape:connector-curvature="0"
         style="fill:#e8e8e8;fill-opacity:1" />
    </g>
    <g
       style="font-style:normal;font-variant:normal;font-weight:bold;font-stretch:normal;font-size:1.65364587px;line-height:125%;font-family:'Bangla MN';-inkscape-font-specification:'Bangla MN, Bold';text-align:start;letter-spacing:0px;word-spacing:0px;writing-mode:lr-tb;text-anchor:start;fill:#e8e8e8;fill-opacity:1;stroke:none;stroke-width:1px;stroke-linecap:butt;stroke-linejoin:miter;stroke-opacity:1"
       id="text4372"
       transform="translate(1.1252913,0)">
      <path
         d="m 13.429669,46.953401 0.543865,0 0,0.504362 q -0.06339,0.03307 -0.125861,0.06155 -0.06247,0.02848 -0.134129,0.04961 -0.07166,0.02021 -0.156177,0.03124 -0.0836,0.01194 -0.189251,0.01194 -0.169039,0 -0.311436,-0.04685 -0.142398,-0.04777 -0.24621,-0.134129 -0.102893,-0.08636 -0.160771,-0.207624 -0.05788,-0.121268 -0.05788,-0.270096 0,-0.103812 0.02572,-0.1966 0.02664,-0.09279 0.07441,-0.170877 0.04869,-0.07809 0.117592,-0.139641 0.06982,-0.06247 0.155259,-0.105649 0.08636,-0.04318 0.187414,-0.06615 0.101056,-0.02297 0.214055,-0.02297 0.100137,0 0.192006,0.02664 0.09187,0.02664 0.169959,0.07166 0.07901,0.0441 0.141478,0.101975 0.06247,0.05696 0.103812,0.117593 l -0.132291,0.121267 q -0.04134,-0.0588 -0.08728,-0.109324 -0.04502,-0.05053 -0.09646,-0.08728 -0.05053,-0.03767 -0.109324,-0.0588 -0.05788,-0.02113 -0.124942,-0.02113 -0.101975,0 -0.189251,0.03675 -0.08728,0.03583 -0.150665,0.105649 -0.06339,0.0689 -0.100138,0.16904 -0.03583,0.100137 -0.03583,0.227835 0,0.12678 0.03858,0.22508 0.03859,0.09738 0.104731,0.164446 0.06615,0.06615 0.155259,0.101056 0.09003,0.03399 0.192007,0.03399 0.06063,0 0.114836,-0.01562 0.0542,-0.01654 0.09922,-0.04869 l 0,-0.348184 -0.222323,0 0,-0.112081 z"
         id="path4391"
         inkscape:connector-curvature="0"
         style="fill:#e8e8e8;fill-opacity:1" />
      <path
         d="m 14.91472,46.255195 0.612768,1.336697 -0.327973,0 -0.163528,-0.357371 -0.508036,0 -0.171796,0.357371 -0.218648,0 0.638491,-1.336697 0.138722,0 z m -0.327054,0.85714 0.394119,0 -0.193844,-0.422598 -0.200275,0.422598 z"
         id="path4393"
         inkscape:connector-curvature="0"
         style="fill:#e8e8e8;fill-opacity:1" />
      <path
         d="m 16.688327,46.283675 0,0.111161 -0.452915,0 0,1.197056 -0.320624,0 0,-1.197056 -0.452915,0 0,-0.111161 1.226454,0 z"
         id="path4395"
         inkscape:connector-curvature="0"
         style="fill:#e8e8e8;fill-opacity:1" />
      <path
         d="m 17.893278,46.283675 0,0.111161 -0.655946,0 0,0.431786 0.544784,0 0,0.11208 -0.544784,0 0,0.519061 0.655946,0 0,0.134129 -0.97657,0 0,-1.308217 0.97657,0 z"
         id="path4397"
         inkscape:connector-curvature="0"
         style="fill:#e8e8e8;fill-opacity:1" />
    </g>
    <g
       style="font-style:normal;font-variant:normal;font-weight:bold;font-stretch:normal;font-size:1.65364587px;line-height:125%;font-family:'Bangla MN';-inkscape-font-specification:'Bangla MN, Bold';text-align:start;letter-spacing:0px;word-spacing:0px;writing-mode:lr-tb;text-anchor:start;fill:#e8e8e8;fill-opacity:1;stroke:none;stroke-width:1px;stroke-linecap:butt;stroke-linejoin:miter;stroke-opacity:1"
       id="text4378"
       transform="translate(1.1252913,0)">
      <path
         d="m 19.125409,47.591896 -0.225079,0 0.555808,-0.645841 -0.500687,-0.662377 0.354615,0 0.331648,0.441891 0.382176,-0.441891 0.225998,0 -0.500687,0.58337 0.544785,0.724848 -0.353697,0 -0.381257,-0.505281 -0.433623,0.505281 z"
         id="path4400"
         inkscape:connector-curvature="0"
         style="fill:#e8e8e8;fill-opacity:1" />
    </g>
    <g
       style="font-style:normal;font-variant:normal;font-weight:bold;font-stretch:normal;font-size:1.65364587px;line-height:125%;font-family:'Bangla MN';-inkscape-font-specification:'Bangla MN, Bold';text-align:start;letter-spacing:0px;word-spacing:0px;writing-mode:lr-tb;text-anchor:start;fill:#e8e8e8;fill-opacity:1;stroke:none;stroke-width:1px;stroke-linecap:butt;stroke-linejoin:miter;stroke-opacity:1"
       id="text4384"
       transform="translate(1.1252913,0)">
      <path
         d="m 23.878398,46.311808 0.430866,0.588882 0.403306,-0.588882 0.216811,0 -0.509874,0.742303 0,0.565915 -0.321542,0 0,-0.546622 -0.555809,-0.761596 0.336242,0 z"
         id="path4403"
         inkscape:connector-curvature="0"
         style="fill:#e8e8e8;fill-opacity:1" />
    </g>
    <path
       style="fill:#949494;fill-opacity:1;stroke:#000000;stroke-width:0.13921876;stroke-miterlimit:4;stroke-dasharray:none;stroke-opacity:1"
       id="path4408"
       sodipodi:type="arc"
       sodipodi:cx="29.679562"
       sodipodi:cy="45.82439"
       sodipodi:rx="1.2115166"
       sodipodi:ry="1.2115169"
       sodipodi:start="0"
       sodipodi:end="6.1313068"
       sodipodi:open="true"
       d="m 30.891078,45.82439 a 1.2115166,1.2115169 0 0 1 -1.165527,1.210644 1.2115166,1.2115169 0 0 1 -1.254014,-1.11873 1.2115166,1.2115169 0 0 1 1.07032,-1.295579 1.2115166,1.2115169 0 0 1 1.335275,1.020369" />
    <rect
       transform="scale(1,-1)"
       y="-64.332458"
       x="13.454479"
       height="8.9356365"
       width="25.022184"
       id="rect4327"
       style="fill:#e8e8e8;fill-opacity:1;stroke:#000000;stroke-width:0.20814615;stroke-linecap:butt;stroke-linejoin:round;stroke-miterlimit:4;stroke-dasharray:none;stroke-dashoffset:0;stroke-opacity:1" />
    <rect
       transform="scale(1,-1)"
       style="fill:#000000;fill-opacity:1;stroke:#000000;stroke-width:0.1147907;stroke-linecap:butt;stroke-linejoin:round;stroke-miterlimit:4;stroke-dasharray:none;stroke-dashoffset:0;stroke-opacity:1"
       id="rect4329"
       width="7.5304675"
       height="9.030365"
       x="38.969818"
       y="-64.379814" />
    <rect
       style="fill:#e8e8e8;fill-opacity:1;stroke:#000000;stroke-width:0.11236469;stroke-linecap:butt;stroke-linejoin:round;stroke-miterlimit:4;stroke-dasharray:none;stroke-dashoffset:0;stroke-opacity:1"
       id="rect4331"
       width="7.2146912"
       height="9.0314188"
       x="5.767858"
       y="-64.380341"
       transform="scale(1,-1)" />
    <rect
       transform="scale(1,-1)"
       style="fill:#000000;fill-opacity:1;stroke:#000000;stroke-width:0.11419101;stroke-linecap:butt;stroke-linejoin:round;stroke-miterlimit:4;stroke-dasharray:none;stroke-dashoffset:0;stroke-opacity:1"
       id="rect4345"
       width="7.4514971"
       height="9.0309649"
       x="38.969521"
       y="-73.848961" />
    <rect
       y="-83.317802"
       x="38.969521"
       height="9.0309649"
       width="7.4514971"
       id="rect4347"
       style="fill:#000000;fill-opacity:1;stroke:#000000;stroke-width:0.11419101;stroke-linecap:butt;stroke-linejoin:round;stroke-miterlimit:4;stroke-dasharray:none;stroke-dashoffset:0;stroke-opacity:1"
       transform="scale(1,-1)" />
    <rect
       transform="scale(1,-1)"
       style="fill:#000000;fill-opacity:1;stroke:#000000;stroke-width:0.11358812;stroke-linecap:butt;stroke-linejoin:round;stroke-miterlimit:4;stroke-dasharray:none;stroke-dashoffset:0;stroke-opacity:1"
       id="rect4349"
       width="7.3725295"
       height="9.0315676"
       x="38.969215"
       y="-92.786942" />
    <rect
       style="fill:#e8e8e8;fill-opacity:1;stroke:#000000;stroke-width:0.20814617;stroke-linecap:butt;stroke-linejoin:round;stroke-miterlimit:4;stroke-dasharray:none;stroke-dashoffset:0;stroke-opacity:1"
       id="rect4351"
       width="25.022184"
       height="8.9356375"
       x="13.454478"
       y="-73.8013"
       transform="scale(1,-1)" />
    <rect
       transform="scale(1,-1)"
       y="-83.27935"
       x="17.737373"
       height="8.9540491"
       width="20.748493"
       id="rect4353"
       style="fill:#e8e8e8;fill-opacity:1;stroke:#000000;stroke-width:0.1897344;stroke-linecap:butt;stroke-linejoin:round;stroke-miterlimit:4;stroke-dasharray:none;stroke-dashoffset:0;stroke-opacity:1" />
    <rect
       style="fill:#e8e8e8;fill-opacity:1;stroke:#000000;stroke-width:0.1897344;stroke-linecap:butt;stroke-linejoin:round;stroke-miterlimit:4;stroke-dasharray:none;stroke-dashoffset:0;stroke-opacity:1"
       id="rect4355"
       width="20.748495"
       height="8.9540491"
       x="17.737373"
       y="-92.748192"
       transform="scale(1,-1)" />
    <g
       style="font-style:normal;font-variant:normal;font-weight:bold;font-stretch:normal;font-size:1.65364587px;line-height:125%;font-family:'Bangla MN';-inkscape-font-specification:'Bangla MN, Bold';text-align:start;letter-spacing:0px;word-spacing:0px;writing-mode:lr-tb;text-anchor:start;fill:#000000;fill-opacity:1;stroke:none;stroke-width:1px;stroke-linecap:butt;stroke-linejoin:miter;stroke-opacity:1"
       id="text4201"
       transform="translate(-2.216653,0.07957011)">
      <path
         d="m 9.2242467,55.706259 0.4915003,0 q 0.1267796,0 0.2223235,0.02664 0.095544,0.02664 0.1589335,0.07441 0.06339,0.04777 0.09463,0.112999 0.03215,0.06523 0.03215,0.142398 0,0.05512 -0.02205,0.105649 -0.02113,0.04961 -0.06063,0.09187 -0.0395,0.04134 -0.09463,0.07441 -0.055121,0.03215 -0.1221858,0.05328 l 0.4657768,0.626548 -0.348184,0 -0.4400538,-0.592557 -0.056959,0 0,0.592557 -0.3206236,0 0,-1.308218 z m 0.3206236,0.602662 0.069821,0 q 0.058796,0 0.1084057,-0.01654 0.050528,-0.01654 0.087276,-0.04685 0.036748,-0.03124 0.057878,-0.07533 0.02113,-0.04502 0.02113,-0.101056 0,-0.05145 -0.016536,-0.09463 -0.015618,-0.04318 -0.044097,-0.07441 -0.028479,-0.03215 -0.067983,-0.04961 -0.038585,-0.01745 -0.085438,-0.01745 l -0.1304543,0 0,0.475882 z"
         id="path4212"
         inkscape:connector-curvature="0" />
      <path
         d="m 11.512106,55.706259 0,0.111162 -0.655946,0 0,0.431785 0.544784,0 0,0.112081 -0.544784,0 0,0.519061 0.655946,0 0,0.134129 -0.97657,0 0,-1.308218 0.97657,0 z"
         id="path4214"
         inkscape:connector-curvature="0" />
      <path
         d="m 12.228241,57.034688 q -0.117593,0 -0.205787,-0.02756 -0.08819,-0.02756 -0.150666,-0.07625 -0.06155,-0.04869 -0.0983,-0.115755 -0.03583,-0.06706 -0.04961,-0.146991 l 0.222323,0 q 0.01194,0.04869 0.03399,0.09187 0.02205,0.04226 0.05604,0.0735 0.03399,0.03124 0.08085,0.04961 0.04685,0.01745 0.108406,0.01745 0.04134,0 0.08085,-0.0083 0.04042,-0.0092 0.07166,-0.02848 0.03215,-0.01929 0.05145,-0.05053 0.01929,-0.03215 0.01929,-0.07809 0,-0.0588 -0.03032,-0.103812 -0.0294,-0.04502 -0.07901,-0.08176 -0.04869,-0.03767 -0.112081,-0.06982 -0.06247,-0.03215 -0.127698,-0.06431 -0.06523,-0.03307 -0.128617,-0.06798 -0.06247,-0.03583 -0.11208,-0.07993 -0.04869,-0.0441 -0.07901,-0.09922 -0.0294,-0.05512 -0.0294,-0.126779 0,-0.07809 0.03399,-0.144235 0.03399,-0.06706 0.0983,-0.115755 0.06523,-0.04869 0.158933,-0.07625 0.09371,-0.02756 0.213137,-0.02756 0.09922,0 0.179145,0.02756 0.07993,0.02756 0.14056,0.07533 0.06155,0.04685 0.102893,0.111162 0.04226,0.06431 0.06431,0.138722 l -0.202112,0 q -0.01746,-0.04685 -0.04042,-0.08911 -0.02297,-0.04226 -0.05696,-0.07441 -0.03399,-0.03215 -0.08176,-0.05053 -0.04777,-0.01929 -0.114837,-0.01929 -0.06247,0 -0.105649,0.01654 -0.04318,0.01654 -0.06982,0.04226 -0.02664,0.02481 -0.03858,0.05604 -0.01102,0.03124 -0.01102,0.06155 0,0.05237 0.03032,0.09554 0.03124,0.04226 0.08176,0.07901 0.05145,0.03583 0.115755,0.06982 0.06431,0.03307 0.131373,0.06706 0.06798,0.03399 0.132292,0.07074 0.06523,0.03675 0.115755,0.08176 0.05145,0.0441 0.08176,0.0983 0.03124,0.0542 0.03124,0.122186 0,0.07993 -0.03307,0.148828 -0.03307,0.06798 -0.0983,0.11943 -0.06431,0.05053 -0.160771,0.07993 -0.09554,0.02848 -0.220486,0.02848 z"
         id="path4216"
         inkscape:connector-curvature="0" />
    </g>
    <rect
       transform="scale(1,-1)"
       y="-73.849182"
       x="5.7678585"
       height="9.0314178"
       width="7.2146912"
       id="rect4205"
       style="fill:#e8e8e8;fill-opacity:1;stroke:#000000;stroke-width:0.11236469;stroke-linecap:butt;stroke-linejoin:round;stroke-miterlimit:4;stroke-dasharray:none;stroke-dashoffset:0;stroke-opacity:1" />
    <g
       style="font-style:normal;font-variant:normal;font-weight:bold;font-stretch:normal;font-size:1.65364587px;line-height:125%;font-family:'Bangla MN';-inkscape-font-specification:'Bangla MN, Bold';text-align:start;letter-spacing:0px;word-spacing:0px;writing-mode:lr-tb;text-anchor:start;fill:#000000;fill-opacity:1;stroke:none;stroke-width:1px;stroke-linecap:butt;stroke-linejoin:miter;stroke-opacity:1"
       id="text4207"
       transform="translate(-1.8188025,0)">
      <path
         d="m 9.1164966,66.503533 q -0.1175926,0 -0.2057871,-0.02756 -0.088194,-0.02756 -0.1506655,-0.07625 -0.061552,-0.04869 -0.0983,-0.115755 -0.035829,-0.06707 -0.049609,-0.146991 l 0.2223235,0 q 0.011943,0.04869 0.033992,0.09187 0.022049,0.04226 0.05604,0.0735 0.033992,0.03123 0.080845,0.04961 0.046853,0.01745 0.1084057,0.01745 0.041341,0 0.080845,-0.0083 0.040423,-0.0092 0.071658,-0.02848 0.032154,-0.01929 0.051447,-0.05053 0.019293,-0.03216 0.019293,-0.07809 0,-0.0588 -0.030317,-0.103812 -0.029398,-0.04502 -0.079007,-0.08176 -0.048691,-0.03767 -0.1120804,-0.06982 -0.062471,-0.03215 -0.1276982,-0.06431 -0.065227,-0.03307 -0.1286169,-0.06798 -0.062471,-0.03583 -0.1120805,-0.07993 -0.048691,-0.0441 -0.079008,-0.09922 -0.029398,-0.05512 -0.029398,-0.12678 0,-0.07809 0.033992,-0.144235 0.033992,-0.06706 0.0983,-0.115755 0.065227,-0.04869 0.1589338,-0.07625 0.093707,-0.02756 0.2131365,-0.02756 0.099219,0 0.179145,0.02756 0.079926,0.02756 0.1405599,0.07533 0.061552,0.04685 0.1028935,0.111161 0.04226,0.06431 0.064308,0.138723 l -0.2021123,0 q -0.017455,-0.04685 -0.040422,-0.08911 -0.022967,-0.04226 -0.056959,-0.07441 -0.033992,-0.03216 -0.081764,-0.05053 -0.047772,-0.01929 -0.1148365,-0.01929 -0.062471,0 -0.1056496,0.01654 -0.043178,0.01654 -0.069821,0.04226 -0.026642,0.02481 -0.038585,0.05604 -0.011024,0.03123 -0.011024,0.06155 0,0.05237 0.030317,0.09554 0.031235,0.04226 0.081764,0.07901 0.051447,0.03583 0.1157552,0.06982 0.064308,0.03307 0.131373,0.06707 0.067983,0.03399 0.1322916,0.07074 0.065227,0.03675 0.1157553,0.08176 0.051447,0.0441 0.081764,0.0983 0.031235,0.0542 0.031235,0.122186 0,0.07993 -0.033073,0.148828 -0.033073,0.06798 -0.0983,0.11943 -0.064308,0.05053 -0.1607711,0.07993 -0.095544,0.02848 -0.2204861,0.02848 z"
         id="path4219"
         inkscape:connector-curvature="0" />
      <path
         d="m 9.8945714,65.175105 0.3224606,0 0,0.4915 0.579695,-0.4915 0.248966,0 -0.654109,0.553052 0.829579,0.755165 -0.388607,0 -0.615524,-0.560402 0,0.560402 -0.3224606,0 0,-1.308217 z"
         id="path4221"
         inkscape:connector-curvature="0" />
      <path
         d="m 11.329454,65.175105 0.320623,0 0,1.308217 -0.320623,0 0,-1.308217 z"
         id="path4223"
         inkscape:connector-curvature="0" />
      <path
         d="m 11.987467,65.175105 0.455671,0 q 0.110243,0 0.205787,0.02389 0.09646,0.02297 0.167202,0.0689 0.07074,0.04594 0.111162,0.114837 0.04134,0.0689 0.04134,0.160771 0,0.09279 -0.04042,0.16169 -0.04042,0.0689 -0.106568,0.114836 -0.06523,0.04594 -0.149747,0.0689 -0.08452,0.02297 -0.172714,0.02297 l -0.189251,0 0,0.571426 -0.322461,0 0,-1.308217 z m 0.322461,0.618279 0.104731,0 q 0.0542,0 0.09462,-0.01929 0.04134,-0.02021 0.06798,-0.0542 0.02756,-0.03399 0.04042,-0.07809 0.01378,-0.04502 0.01378,-0.09371 0,-0.0588 -0.01745,-0.104731 -0.01745,-0.04594 -0.04869,-0.07717 -0.03032,-0.03123 -0.07166,-0.04777 -0.04134,-0.01654 -0.08819,-0.01654 l -0.09554,0 0,0.4915 z"
         id="path4225"
         inkscape:connector-curvature="0" />
    </g>
    <g
       style="font-style:normal;font-variant:normal;font-weight:bold;font-stretch:normal;font-size:1.65364587px;line-height:125%;font-family:'Bangla MN';-inkscape-font-specification:'Bangla MN, Bold';text-align:start;letter-spacing:0px;word-spacing:0px;writing-mode:lr-tb;text-anchor:start;fill:#e8e8e8;fill-opacity:1;stroke:none;stroke-width:1px;stroke-linecap:butt;stroke-linejoin:miter;stroke-opacity:1"
       id="text4231"
       transform="translate(1.1252913,0)">
      <path
         d="m 39.26324,55.682605 0.612767,1.336697 -0.327973,0 -0.163527,-0.357371 -0.508037,0 -0.171795,0.357371 -0.218649,0 0.638491,-1.336697 0.138723,0 z m -0.327055,0.85714 0.394119,0 -0.193844,-0.422598 -0.200275,0.422598 z"
         id="path4335"
         inkscape:connector-curvature="0"
         style="fill:#e8e8e8;fill-opacity:1" />
      <path
         d="m 40.037912,55.711085 0.204869,0 0.745978,0.832335 0,-0.832335 0.201193,0 0,1.328429 -0.138722,0 -0.810287,-0.918693 0,0.898481 -0.203031,0 0,-1.308217 z"
         id="path4337"
         inkscape:connector-curvature="0"
         style="fill:#e8e8e8;fill-opacity:1" />
      <path
         d="m 42.648505,55.711085 0,0.111161 -0.452915,0 0,1.197056 -0.320623,0 0,-1.197056 -0.452916,0 0,-0.111161 1.226454,0 z"
         id="path4339"
         inkscape:connector-curvature="0"
         style="fill:#e8e8e8;fill-opacity:1" />
      <path
         d="m 43.470879,57.019302 -0.22508,0 0.555809,-0.64584 -0.500687,-0.662377 0.354615,0 0.331648,0.441891 0.382176,-0.441891 0.225998,0 -0.500687,0.583369 0.544784,0.724848 -0.353696,0 -0.381258,-0.50528 -0.433622,0.50528 z"
         id="path4341"
         inkscape:connector-curvature="0"
         style="fill:#e8e8e8;fill-opacity:1" />
    </g>
    <g
       style="font-style:normal;font-variant:normal;font-weight:bold;font-stretch:normal;font-size:1.65364587px;line-height:125%;font-family:'Bangla MN';-inkscape-font-specification:'Bangla MN, Bold';text-align:start;letter-spacing:0px;word-spacing:0px;writing-mode:lr-tb;text-anchor:start;fill:#000000;fill-opacity:1;stroke:none;stroke-width:1px;stroke-linecap:butt;stroke-linejoin:miter;stroke-opacity:1"
       id="text4235"
       transform="translate(1.1252913,0.15914022)">
      <path
         d="m 32.949919,55.626688 0.320624,0 0,1.308218 -0.320624,0 0,-1.308218 z"
         id="path4273"
         inkscape:connector-curvature="0" />
      <path
         d="m 33.607933,55.626688 0.204868,0 0.745978,0.832335 0,-0.832335 0.201193,0 0,1.328429 -0.138722,0 -0.810287,-0.918692 0,0.898481 -0.20303,0 0,-1.308218 z"
         id="path4275"
         inkscape:connector-curvature="0" />
      <path
         d="m 35.254817,55.626688 0.432704,0.903993 0.40055,-0.903993 0.206706,0 -0.588882,1.328429 -0.150665,0 -0.63206,-1.328429 0.331647,0 z"
         id="path4277"
         inkscape:connector-curvature="0" />
    </g>
    <g
       style="font-style:normal;font-variant:normal;font-weight:bold;font-stretch:normal;font-size:1.65364587px;line-height:125%;font-family:'Bangla MN';-inkscape-font-specification:'Bangla MN, Bold';text-align:start;letter-spacing:0px;word-spacing:0px;writing-mode:lr-tb;text-anchor:start;fill:#000000;fill-opacity:1;stroke:none;stroke-width:1px;stroke-linecap:butt;stroke-linejoin:miter;stroke-opacity:1"
       id="text4239"
       transform="translate(1.1252913,0.15914022)">
      <path
         d="m 27.7359,57.034688 q -0.117592,0 -0.205787,-0.02756 -0.08819,-0.02756 -0.150665,-0.07625 -0.06155,-0.04869 -0.0983,-0.115755 -0.03583,-0.06706 -0.04961,-0.146991 l 0.222324,0 q 0.01194,0.04869 0.03399,0.09187 0.02205,0.04226 0.05604,0.0735 0.03399,0.03124 0.08085,0.04961 0.04685,0.01745 0.108405,0.01745 0.04134,0 0.08085,-0.0083 0.04042,-0.0092 0.07166,-0.02848 0.03215,-0.01929 0.05145,-0.05053 0.01929,-0.03215 0.01929,-0.07809 0,-0.0588 -0.03032,-0.103812 -0.0294,-0.04502 -0.07901,-0.08176 -0.04869,-0.03767 -0.11208,-0.06982 -0.06247,-0.03215 -0.127698,-0.06431 -0.06523,-0.03307 -0.128617,-0.06798 -0.06247,-0.03583 -0.112081,-0.07993 -0.04869,-0.0441 -0.07901,-0.09922 -0.0294,-0.05512 -0.0294,-0.126779 0,-0.07809 0.03399,-0.144235 0.03399,-0.06706 0.0983,-0.115755 0.06523,-0.04869 0.158934,-0.07625 0.09371,-0.02756 0.213136,-0.02756 0.09922,0 0.179145,0.02756 0.07993,0.02756 0.14056,0.07533 0.06155,0.04685 0.102894,0.111162 0.04226,0.06431 0.06431,0.138722 l -0.202112,0 q -0.01745,-0.04685 -0.04042,-0.08911 -0.02297,-0.04226 -0.05696,-0.07441 -0.03399,-0.03215 -0.08176,-0.05053 -0.04777,-0.01929 -0.114836,-0.01929 -0.06247,0 -0.10565,0.01654 -0.04318,0.01654 -0.06982,0.04226 -0.02664,0.02481 -0.03858,0.05604 -0.01102,0.03124 -0.01102,0.06155 0,0.05237 0.03032,0.09554 0.03124,0.04226 0.08176,0.07901 0.05145,0.03583 0.115756,0.06982 0.06431,0.03307 0.131373,0.06706 0.06798,0.03399 0.132291,0.07074 0.06523,0.03675 0.115755,0.08176 0.05145,0.0441 0.08176,0.0983 0.03124,0.0542 0.03124,0.122186 0,0.07993 -0.03307,0.148828 -0.03307,0.06798 -0.0983,0.11943 -0.06431,0.05053 -0.160771,0.07993 -0.09554,0.02848 -0.220487,0.02848 z"
         id="path4252"
         inkscape:connector-curvature="0" />
      <path
         d="m 28.815306,56.359449 q 0,0.12678 0.03859,0.224161 0.03858,0.09738 0.101975,0.163527 0.06431,0.06615 0.146991,0.100138 0.0836,0.03399 0.172714,0.03399 0.0689,0 0.127698,-0.02389 0.05971,-0.02389 0.111162,-0.06339 0.05237,-0.04042 0.09738,-0.09279 0.04502,-0.05328 0.08636,-0.112081 l 0.134129,0.0983 q -0.04318,0.06982 -0.10473,0.134129 -0.06063,0.06431 -0.136886,0.113918 -0.07625,0.04961 -0.166283,0.07901 -0.09003,0.0294 -0.190169,0.0294 -0.169039,0 -0.311437,-0.04869 -0.141478,-0.04961 -0.245291,-0.139641 -0.102893,-0.09003 -0.160771,-0.215893 -0.05788,-0.12586 -0.05788,-0.280201 0,-0.09922 0.0248,-0.188332 0.02481,-0.09003 0.07074,-0.166283 0.04685,-0.07625 0.113918,-0.136885 0.06706,-0.06155 0.150665,-0.104731 0.08452,-0.04318 0.184657,-0.06615 0.100138,-0.02297 0.212218,-0.02297 0.112999,0 0.206706,0.02664 0.09463,0.02572 0.170877,0.0735 0.07717,0.04685 0.136885,0.112081 0.06063,0.06523 0.106568,0.142397 l -0.135966,0.09463 q -0.04134,-0.0588 -0.09003,-0.110243 -0.04777,-0.05237 -0.102894,-0.09095 -0.05512,-0.0395 -0.115755,-0.06247 -0.06063,-0.02297 -0.12678,-0.02297 -0.09003,0 -0.171795,0.03399 -0.08176,0.03399 -0.144235,0.100137 -0.06155,0.06615 -0.0983,0.163528 -0.03583,0.09738 -0.03583,0.225079 z"
         id="path4254"
         inkscape:connector-curvature="0" />
      <path
         d="m 30.099796,55.706259 0.320623,0 0,1.174089 0.66789,0 0,0.134129 -0.988513,0 0,-1.308218 z"
         id="path4256"
         inkscape:connector-curvature="0" />
    </g>
    <g
       style="font-style:normal;font-variant:normal;font-weight:bold;font-stretch:normal;font-size:1.65364587px;line-height:125%;font-family:'Bangla MN';-inkscape-font-specification:'Bangla MN, Bold';text-align:start;letter-spacing:0px;word-spacing:0px;writing-mode:lr-tb;text-anchor:start;fill:#000000;fill-opacity:1;stroke:none;stroke-width:1px;stroke-linecap:butt;stroke-linejoin:miter;stroke-opacity:1"
       id="text4243"
       transform="translate(1.1252913,0.15914022)">
      <path
         d="m 20.364062,55.706259 0.322461,0 0,0.4915 0.579695,-0.4915 0.248965,0 -0.654108,0.553053 0.829579,0.755165 -0.388607,0 -0.615524,-0.560402 0,0.560402 -0.322461,0 0,-1.308218 z"
         id="path4259"
         inkscape:connector-curvature="0" />
      <path
         d="m 22.761734,55.706259 0,0.111162 -0.655946,0 0,0.431785 0.544784,0 0,0.112081 -0.544784,0 0,0.519061 0.655946,0 0,0.134129 -0.97657,0 0,-1.308218 0.97657,0 z"
         id="path4261"
         inkscape:connector-curvature="0" />
      <path
         d="m 23.204098,55.706259 0.430867,0.588882 0.403306,-0.588882 0.216811,0 -0.509874,0.742303 0,0.565915 -0.321542,0 0,-0.546622 -0.555809,-0.761596 0.336241,0 z"
         id="path4263"
         inkscape:connector-curvature="0" />
    </g>
    <g
       style="font-style:normal;font-variant:normal;font-weight:bold;font-stretch:normal;font-size:1.65364587px;line-height:125%;font-family:'Bangla MN';-inkscape-font-specification:'Bangla MN, Bold';text-align:start;letter-spacing:0px;word-spacing:0px;writing-mode:lr-tb;text-anchor:start;fill:#000000;fill-opacity:1;stroke:none;stroke-width:1px;stroke-linecap:butt;stroke-linejoin:miter;stroke-opacity:1"
       id="text4247"
       transform="translate(1.1252913,0.15914022)">
      <path
         d="m 13.961234,57.043875 q -0.105649,0 -0.202112,-0.02389 -0.09646,-0.02297 -0.179145,-0.06615 -0.08268,-0.04318 -0.150666,-0.104731 -0.06798,-0.06155 -0.115755,-0.138722 -0.04777,-0.07717 -0.07441,-0.167202 -0.02572,-0.09095 -0.02572,-0.192007 0,-0.09922 0.02572,-0.187413 0.02664,-0.08911 0.07441,-0.163527 0.04777,-0.07441 0.115755,-0.134129 0.06798,-0.06063 0.150666,-0.101975 0.08268,-0.04134 0.179145,-0.06339 0.09646,-0.02297 0.202112,-0.02297 0.10565,0 0.202113,0.02297 0.09646,0.02205 0.179144,0.06431 0.08268,0.04134 0.150666,0.101057 0.06798,0.05971 0.115755,0.134129 0.04777,0.07441 0.0735,0.162608 0.02664,0.08819 0.02664,0.186495 0,0.103812 -0.02664,0.195681 -0.02572,0.09187 -0.0735,0.169039 -0.04777,0.07717 -0.115755,0.138723 -0.06798,0.06063 -0.150666,0.103812 -0.08268,0.04226 -0.179144,0.06431 -0.09646,0.02297 -0.202113,0.02297 z m 0,-0.111162 q 0.09554,0 0.168121,-0.04318 0.07349,-0.0441 0.123105,-0.121268 0.04961,-0.07809 0.07441,-0.184657 0.02572,-0.106568 0.02572,-0.232429 0,-0.124023 -0.02572,-0.226917 -0.02481,-0.103812 -0.07441,-0.178226 -0.04961,-0.07441 -0.123105,-0.115755 -0.07258,-0.04134 -0.168121,-0.04134 -0.09646,0 -0.169958,0.04134 -0.07349,0.04134 -0.123105,0.115755 -0.04869,0.07441 -0.07441,0.178226 -0.0248,0.102894 -0.0248,0.226917 0,0.125861 0.0248,0.232429 0.02572,0.106568 0.07441,0.184657 0.04961,0.07717 0.123105,0.121268 0.0735,0.04318 0.169958,0.04318 z"
         id="path4266"
         inkscape:connector-curvature="0" />
      <path
         d="m 15.259906,56.359449 q 0,0.12678 0.03858,0.224161 0.03858,0.09738 0.101975,0.163527 0.06431,0.06615 0.146991,0.100138 0.0836,0.03399 0.172714,0.03399 0.0689,0 0.127698,-0.02389 0.05972,-0.02389 0.111162,-0.06339 0.05237,-0.04042 0.09738,-0.09279 0.04502,-0.05328 0.08636,-0.112081 l 0.134129,0.0983 q -0.04318,0.06982 -0.104731,0.134129 -0.06063,0.06431 -0.136885,0.113918 -0.07625,0.04961 -0.166283,0.07901 -0.09003,0.0294 -0.190169,0.0294 -0.16904,0 -0.311437,-0.04869 -0.141479,-0.04961 -0.245291,-0.139641 -0.102893,-0.09003 -0.160771,-0.215893 -0.05788,-0.12586 -0.05788,-0.280201 0,-0.09922 0.0248,-0.188332 0.02481,-0.09003 0.07074,-0.166283 0.04685,-0.07625 0.113918,-0.136885 0.06707,-0.06155 0.150666,-0.104731 0.08452,-0.04318 0.184657,-0.06615 0.100137,-0.02297 0.212218,-0.02297 0.112999,0 0.206706,0.02664 0.09462,0.02572 0.170876,0.0735 0.07717,0.04685 0.136885,0.112081 0.06063,0.06523 0.106569,0.142397 l -0.135967,0.09463 q -0.04134,-0.0588 -0.09003,-0.110243 -0.04777,-0.05237 -0.102893,-0.09095 -0.05512,-0.0395 -0.115755,-0.06247 -0.06063,-0.02297 -0.12678,-0.02297 -0.09003,0 -0.171795,0.03399 -0.08176,0.03399 -0.144235,0.100137 -0.06155,0.06615 -0.0983,0.163528 -0.03583,0.09738 -0.03583,0.225079 z"
         id="path4268"
         inkscape:connector-curvature="0" />
      <path
         d="m 17.67898,55.706259 0,0.111162 -0.452915,0 0,1.197056 -0.320623,0 0,-1.197056 -0.452916,0 0,-0.111162 1.226454,0 z"
         id="path4270"
         inkscape:connector-curvature="0" />
    </g>
    <g
       transform="translate(1.0457212,9.5484131)"
       id="g4231"
       style="font-style:normal;font-variant:normal;font-weight:bold;font-stretch:normal;font-size:1.65364587px;line-height:125%;font-family:'Bangla MN';-inkscape-font-specification:'Bangla MN, Bold';text-align:start;letter-spacing:0px;word-spacing:0px;writing-mode:lr-tb;text-anchor:start;fill:#000000;fill-opacity:1;stroke:none;stroke-width:1px;stroke-linecap:butt;stroke-linejoin:miter;stroke-opacity:1">
      <path
         inkscape:connector-curvature="0"
         id="path4233"
         d="m 32.949919,55.626688 0.320624,0 0,1.308218 -0.320624,0 0,-1.308218 z" />
      <path
         inkscape:connector-curvature="0"
         id="path4235"
         d="m 33.607933,55.626688 0.204868,0 0.745978,0.832335 0,-0.832335 0.201193,0 0,1.328429 -0.138722,0 -0.810287,-0.918692 0,0.898481 -0.20303,0 0,-1.308218 z" />
      <path
         inkscape:connector-curvature="0"
         id="path4237"
         d="m 35.254817,55.626688 0.432704,0.903993 0.40055,-0.903993 0.206706,0 -0.588882,1.328429 -0.150665,0 -0.63206,-1.328429 0.331647,0 z" />
    </g>
    <g
       transform="translate(1.0457212,9.5484131)"
       id="g4239"
       style="font-style:normal;font-variant:normal;font-weight:bold;font-stretch:normal;font-size:1.65364587px;line-height:125%;font-family:'Bangla MN';-inkscape-font-specification:'Bangla MN, Bold';text-align:start;letter-spacing:0px;word-spacing:0px;writing-mode:lr-tb;text-anchor:start;fill:#000000;fill-opacity:1;stroke:none;stroke-width:1px;stroke-linecap:butt;stroke-linejoin:miter;stroke-opacity:1">
      <path
         inkscape:connector-curvature="0"
         id="path4241"
         d="m 27.7359,57.034688 q -0.117592,0 -0.205787,-0.02756 -0.08819,-0.02756 -0.150665,-0.07625 -0.06155,-0.04869 -0.0983,-0.115755 -0.03583,-0.06706 -0.04961,-0.146991 l 0.222324,0 q 0.01194,0.04869 0.03399,0.09187 0.02205,0.04226 0.05604,0.0735 0.03399,0.03124 0.08085,0.04961 0.04685,0.01745 0.108405,0.01745 0.04134,0 0.08085,-0.0083 0.04042,-0.0092 0.07166,-0.02848 0.03215,-0.01929 0.05145,-0.05053 0.01929,-0.03215 0.01929,-0.07809 0,-0.0588 -0.03032,-0.103812 -0.0294,-0.04502 -0.07901,-0.08176 -0.04869,-0.03767 -0.11208,-0.06982 -0.06247,-0.03215 -0.127698,-0.06431 -0.06523,-0.03307 -0.128617,-0.06798 -0.06247,-0.03583 -0.112081,-0.07993 -0.04869,-0.0441 -0.07901,-0.09922 -0.0294,-0.05512 -0.0294,-0.126779 0,-0.07809 0.03399,-0.144235 0.03399,-0.06706 0.0983,-0.115755 0.06523,-0.04869 0.158934,-0.07625 0.09371,-0.02756 0.213136,-0.02756 0.09922,0 0.179145,0.02756 0.07993,0.02756 0.14056,0.07533 0.06155,0.04685 0.102894,0.111162 0.04226,0.06431 0.06431,0.138722 l -0.202112,0 q -0.01745,-0.04685 -0.04042,-0.08911 -0.02297,-0.04226 -0.05696,-0.07441 -0.03399,-0.03215 -0.08176,-0.05053 -0.04777,-0.01929 -0.114836,-0.01929 -0.06247,0 -0.10565,0.01654 -0.04318,0.01654 -0.06982,0.04226 -0.02664,0.02481 -0.03858,0.05604 -0.01102,0.03124 -0.01102,0.06155 0,0.05237 0.03032,0.09554 0.03124,0.04226 0.08176,0.07901 0.05145,0.03583 0.115756,0.06982 0.06431,0.03307 0.131373,0.06706 0.06798,0.03399 0.132291,0.07074 0.06523,0.03675 0.115755,0.08176 0.05145,0.0441 0.08176,0.0983 0.03124,0.0542 0.03124,0.122186 0,0.07993 -0.03307,0.148828 -0.03307,0.06798 -0.0983,0.11943 -0.06431,0.05053 -0.160771,0.07993 -0.09554,0.02848 -0.220487,0.02848 z" />
      <path
         inkscape:connector-curvature="0"
         id="path4243"
         d="m 28.815306,56.359449 q 0,0.12678 0.03859,0.224161 0.03858,0.09738 0.101975,0.163527 0.06431,0.06615 0.146991,0.100138 0.0836,0.03399 0.172714,0.03399 0.0689,0 0.127698,-0.02389 0.05971,-0.02389 0.111162,-0.06339 0.05237,-0.04042 0.09738,-0.09279 0.04502,-0.05328 0.08636,-0.112081 l 0.134129,0.0983 q -0.04318,0.06982 -0.10473,0.134129 -0.06063,0.06431 -0.136886,0.113918 -0.07625,0.04961 -0.166283,0.07901 -0.09003,0.0294 -0.190169,0.0294 -0.169039,0 -0.311437,-0.04869 -0.141478,-0.04961 -0.245291,-0.139641 -0.102893,-0.09003 -0.160771,-0.215893 -0.05788,-0.12586 -0.05788,-0.280201 0,-0.09922 0.0248,-0.188332 0.02481,-0.09003 0.07074,-0.166283 0.04685,-0.07625 0.113918,-0.136885 0.06706,-0.06155 0.150665,-0.104731 0.08452,-0.04318 0.184657,-0.06615 0.100138,-0.02297 0.212218,-0.02297 0.112999,0 0.206706,0.02664 0.09463,0.02572 0.170877,0.0735 0.07717,0.04685 0.136885,0.112081 0.06063,0.06523 0.106568,0.142397 l -0.135966,0.09463 q -0.04134,-0.0588 -0.09003,-0.110243 -0.04777,-0.05237 -0.102894,-0.09095 -0.05512,-0.0395 -0.115755,-0.06247 -0.06063,-0.02297 -0.12678,-0.02297 -0.09003,0 -0.171795,0.03399 -0.08176,0.03399 -0.144235,0.100137 -0.06155,0.06615 -0.0983,0.163528 -0.03583,0.09738 -0.03583,0.225079 z" />
      <path
         inkscape:connector-curvature="0"
         id="path4245"
         d="m 30.099796,55.706259 0.320623,0 0,1.174089 0.66789,0 0,0.134129 -0.988513,0 0,-1.308218 z" />
    </g>
    <g
       transform="translate(1.0457212,9.5484131)"
       id="g4247"
       style="font-style:normal;font-variant:normal;font-weight:bold;font-stretch:normal;font-size:1.65364587px;line-height:125%;font-family:'Bangla MN';-inkscape-font-specification:'Bangla MN, Bold';text-align:start;letter-spacing:0px;word-spacing:0px;writing-mode:lr-tb;text-anchor:start;fill:#000000;fill-opacity:1;stroke:none;stroke-width:1px;stroke-linecap:butt;stroke-linejoin:miter;stroke-opacity:1">
      <path
         inkscape:connector-curvature="0"
         id="path4249"
         d="m 20.364062,55.706259 0.322461,0 0,0.4915 0.579695,-0.4915 0.248965,0 -0.654108,0.553053 0.829579,0.755165 -0.388607,0 -0.615524,-0.560402 0,0.560402 -0.322461,0 0,-1.308218 z" />
      <path
         inkscape:connector-curvature="0"
         id="path4251"
         d="m 22.761734,55.706259 0,0.111162 -0.655946,0 0,0.431785 0.544784,0 0,0.112081 -0.544784,0 0,0.519061 0.655946,0 0,0.134129 -0.97657,0 0,-1.308218 0.97657,0 z" />
      <path
         inkscape:connector-curvature="0"
         id="path4253"
         d="m 23.204098,55.706259 0.430867,0.588882 0.403306,-0.588882 0.216811,0 -0.509874,0.742303 0,0.565915 -0.321542,0 0,-0.546622 -0.555809,-0.761596 0.336241,0 z" />
    </g>
    <g
       transform="translate(1.0457212,9.5484131)"
       id="g4255"
       style="font-style:normal;font-variant:normal;font-weight:bold;font-stretch:normal;font-size:1.65364587px;line-height:125%;font-family:'Bangla MN';-inkscape-font-specification:'Bangla MN, Bold';text-align:start;letter-spacing:0px;word-spacing:0px;writing-mode:lr-tb;text-anchor:start;fill:#000000;fill-opacity:1;stroke:none;stroke-width:1px;stroke-linecap:butt;stroke-linejoin:miter;stroke-opacity:1">
      <path
         inkscape:connector-curvature="0"
         id="path4257"
         d="m 13.961234,57.043875 q -0.105649,0 -0.202112,-0.02389 -0.09646,-0.02297 -0.179145,-0.06615 -0.08268,-0.04318 -0.150666,-0.104731 -0.06798,-0.06155 -0.115755,-0.138722 -0.04777,-0.07717 -0.07441,-0.167202 -0.02572,-0.09095 -0.02572,-0.192007 0,-0.09922 0.02572,-0.187413 0.02664,-0.08911 0.07441,-0.163527 0.04777,-0.07441 0.115755,-0.134129 0.06798,-0.06063 0.150666,-0.101975 0.08268,-0.04134 0.179145,-0.06339 0.09646,-0.02297 0.202112,-0.02297 0.10565,0 0.202113,0.02297 0.09646,0.02205 0.179144,0.06431 0.08268,0.04134 0.150666,0.101057 0.06798,0.05971 0.115755,0.134129 0.04777,0.07441 0.0735,0.162608 0.02664,0.08819 0.02664,0.186495 0,0.103812 -0.02664,0.195681 -0.02572,0.09187 -0.0735,0.169039 -0.04777,0.07717 -0.115755,0.138723 -0.06798,0.06063 -0.150666,0.103812 -0.08268,0.04226 -0.179144,0.06431 -0.09646,0.02297 -0.202113,0.02297 z m 0,-0.111162 q 0.09554,0 0.168121,-0.04318 0.07349,-0.0441 0.123105,-0.121268 0.04961,-0.07809 0.07441,-0.184657 0.02572,-0.106568 0.02572,-0.232429 0,-0.124023 -0.02572,-0.226917 -0.02481,-0.103812 -0.07441,-0.178226 -0.04961,-0.07441 -0.123105,-0.115755 -0.07258,-0.04134 -0.168121,-0.04134 -0.09646,0 -0.169958,0.04134 -0.07349,0.04134 -0.123105,0.115755 -0.04869,0.07441 -0.07441,0.178226 -0.0248,0.102894 -0.0248,0.226917 0,0.125861 0.0248,0.232429 0.02572,0.106568 0.07441,0.184657 0.04961,0.07717 0.123105,0.121268 0.0735,0.04318 0.169958,0.04318 z" />
      <path
         inkscape:connector-curvature="0"
         id="path4260"
         d="m 15.259906,56.359449 q 0,0.12678 0.03858,0.224161 0.03858,0.09738 0.101975,0.163527 0.06431,0.06615 0.146991,0.100138 0.0836,0.03399 0.172714,0.03399 0.0689,0 0.127698,-0.02389 0.05972,-0.02389 0.111162,-0.06339 0.05237,-0.04042 0.09738,-0.09279 0.04502,-0.05328 0.08636,-0.112081 l 0.134129,0.0983 q -0.04318,0.06982 -0.104731,0.134129 -0.06063,0.06431 -0.136885,0.113918 -0.07625,0.04961 -0.166283,0.07901 -0.09003,0.0294 -0.190169,0.0294 -0.16904,0 -0.311437,-0.04869 -0.141479,-0.04961 -0.245291,-0.139641 -0.102893,-0.09003 -0.160771,-0.215893 -0.05788,-0.12586 -0.05788,-0.280201 0,-0.09922 0.0248,-0.188332 0.02481,-0.09003 0.07074,-0.166283 0.04685,-0.07625 0.113918,-0.136885 0.06707,-0.06155 0.150666,-0.104731 0.08452,-0.04318 0.184657,-0.06615 0.100137,-0.02297 0.212218,-0.02297 0.112999,0 0.206706,0.02664 0.09462,0.02572 0.170876,0.0735 0.07717,0.04685 0.136885,0.112081 0.06063,0.06523 0.106569,0.142397 l -0.135967,0.09463 q -0.04134,-0.0588 -0.09003,-0.110243 -0.04777,-0.05237 -0.102893,-0.09095 -0.05512,-0.0395 -0.115755,-0.06247 -0.06063,-0.02297 -0.12678,-0.02297 -0.09003,0 -0.171795,0.03399 -0.08176,0.03399 -0.144235,0.100137 -0.06155,0.06615 -0.0983,0.163528 -0.03583,0.09738 -0.03583,0.225079 z" />
      <path
         inkscape:connector-curvature="0"
         id="path4262"
         d="m 17.67898,55.706259 0,0.111162 -0.452915,0 0,1.197056 -0.320623,0 0,-1.197056 -0.452916,0 0,-0.111162 1.226454,0 z" />
    </g>
    <g
       style="font-style:normal;font-variant:normal;font-weight:bold;font-stretch:normal;font-size:1.65364587px;line-height:125%;font-family:'Bangla MN';-inkscape-font-specification:'Bangla MN, Bold';text-align:start;letter-spacing:0px;word-spacing:0px;writing-mode:lr-tb;text-anchor:start;fill:#e8e8e8;fill-opacity:1;stroke:none;stroke-width:1px;stroke-linecap:butt;stroke-linejoin:miter;stroke-opacity:1"
       id="text4264"
       transform="translate(1.1252913,0)">
      <path
         d="m 39.309855,65.06705 0.612768,1.336698 -0.327973,0 -0.163527,-0.357372 -0.508037,0 -0.171796,0.357372 -0.218648,0 0.638491,-1.336698 0.138722,0 z m -0.327054,0.85714 0.394119,0 -0.193844,-0.422598 -0.200275,0.422598 z"
         id="path4326"
         inkscape:connector-curvature="0"
         style="fill:#e8e8e8;fill-opacity:1" />
      <path
         d="m 40.084528,65.09553 0.204868,0 0.745978,0.832335 0,-0.832335 0.201194,0 0,1.328429 -0.138722,0 -0.810287,-0.918692 0,0.898481 -0.203031,0 0,-1.308218 z"
         id="path4328"
         inkscape:connector-curvature="0"
         style="fill:#e8e8e8;fill-opacity:1" />
      <path
         d="m 42.695121,65.09553 0,0.111162 -0.452915,0 0,1.197056 -0.320624,0 0,-1.197056 -0.452915,0 0,-0.111162 1.226454,0 z"
         id="path4330"
         inkscape:connector-curvature="0"
         style="fill:#e8e8e8;fill-opacity:1" />
      <path
         d="m 43.473627,65.09553 0.430866,0.588882 0.403306,-0.588882 0.216812,0 -0.509875,0.742303 0,0.565915 -0.321542,0 0,-0.546622 -0.555809,-0.761596 0.336242,0 z"
         id="path4332"
         inkscape:connector-curvature="0"
         style="fill:#e8e8e8;fill-opacity:1" />
    </g>
    <g
       style="font-style:normal;font-variant:normal;font-weight:bold;font-stretch:normal;font-size:1.65364587px;line-height:125%;font-family:'Bangla MN';-inkscape-font-specification:'Bangla MN, Bold';text-align:start;letter-spacing:0px;word-spacing:0px;writing-mode:lr-tb;text-anchor:start;fill:#e8e8e8;fill-opacity:1;stroke:none;stroke-width:1px;stroke-linecap:butt;stroke-linejoin:miter;stroke-opacity:1"
       id="text4268"
       transform="translate(1.1252913,0)">
      <path
         d="m 39.755817,85.417909 q -0.117593,0 -0.205787,-0.02756 -0.08819,-0.02756 -0.150666,-0.07625 -0.06155,-0.04869 -0.0983,-0.115755 -0.03583,-0.06706 -0.04961,-0.14699 l 0.222323,0 q 0.01194,0.04869 0.03399,0.09187 0.02205,0.04226 0.05604,0.07349 0.03399,0.03124 0.08085,0.04961 0.04685,0.01746 0.108406,0.01746 0.04134,0 0.08084,-0.0083 0.04042,-0.0092 0.07166,-0.02848 0.03215,-0.01929 0.05145,-0.05053 0.01929,-0.03215 0.01929,-0.07809 0,-0.0588 -0.03032,-0.103812 -0.0294,-0.04502 -0.07901,-0.08176 -0.04869,-0.03767 -0.112081,-0.06982 -0.06247,-0.03215 -0.127698,-0.06431 -0.06523,-0.03307 -0.128617,-0.06798 -0.06247,-0.03583 -0.11208,-0.07993 -0.04869,-0.0441 -0.07901,-0.09922 -0.0294,-0.05512 -0.0294,-0.12678 0,-0.07809 0.03399,-0.144234 0.03399,-0.06706 0.0983,-0.115755 0.06523,-0.04869 0.158933,-0.07625 0.09371,-0.02756 0.213137,-0.02756 0.09922,0 0.179145,0.02756 0.07993,0.02756 0.14056,0.07533 0.06155,0.04685 0.102893,0.111162 0.04226,0.06431 0.06431,0.138722 l -0.202112,0 q -0.01746,-0.04685 -0.04042,-0.08911 -0.02297,-0.04226 -0.05696,-0.07441 -0.03399,-0.03215 -0.08176,-0.05053 -0.04777,-0.01929 -0.114837,-0.01929 -0.06247,0 -0.105649,0.01654 -0.04318,0.01654 -0.06982,0.04226 -0.02664,0.0248 -0.03859,0.05604 -0.01102,0.03124 -0.01102,0.06155 0,0.05237 0.03032,0.09554 0.03124,0.04226 0.08176,0.07901 0.05145,0.03583 0.115755,0.06982 0.06431,0.03307 0.131373,0.06706 0.06798,0.03399 0.132292,0.07074 0.06523,0.03675 0.115755,0.08176 0.05145,0.0441 0.08176,0.0983 0.03124,0.0542 0.03124,0.122186 0,0.07993 -0.03307,0.148828 -0.03307,0.06798 -0.0983,0.11943 -0.06431,0.05053 -0.160771,0.07993 -0.09554,0.02848 -0.220486,0.02848 z"
         id="path4312"
         inkscape:connector-curvature="0"
         style="fill:#e8e8e8;fill-opacity:1" />
      <path
         d="m 40.854515,84.774824 0,0.622873 -0.320623,0 0,-1.308217 0.320623,0 0,0.573264 0.526411,0 0,-0.573264 0.317867,0 0,1.308217 -0.317867,0 0,-0.622873 -0.526411,0 z"
         id="path4314"
         inkscape:connector-curvature="0"
         style="fill:#e8e8e8;fill-opacity:1" />
      <path
         d="m 42.569714,84.08948 0.430866,0.588881 0.403306,-0.588881 0.216811,0 -0.509874,0.742303 0,0.565914 -0.321542,0 0,-0.546621 -0.555809,-0.761596 0.336242,0 z"
         id="path4316"
         inkscape:connector-curvature="0"
         style="fill:#e8e8e8;fill-opacity:1" />
    </g>
    <g
       style="font-style:normal;font-variant:normal;font-weight:bold;font-stretch:normal;font-size:1.65364587px;line-height:125%;font-family:'Bangla MN';-inkscape-font-specification:'Bangla MN, Bold';text-align:start;letter-spacing:0px;word-spacing:0px;writing-mode:lr-tb;text-anchor:start;fill:#e8e8e8;fill-opacity:1;stroke:none;stroke-width:1px;stroke-linecap:butt;stroke-linejoin:miter;stroke-opacity:1"
       id="text4272"
       transform="translate(1.1252913,0)">
      <path
         d="m 39.624805,75.977197 q -0.117593,0 -0.205787,-0.02756 -0.08819,-0.02756 -0.150666,-0.07625 -0.06155,-0.04869 -0.0983,-0.115755 -0.03583,-0.06706 -0.04961,-0.14699 l 0.222323,0 q 0.01194,0.04869 0.03399,0.09187 0.02205,0.04226 0.05604,0.0735 0.03399,0.03124 0.08085,0.04961 0.04685,0.01746 0.108406,0.01746 0.04134,0 0.08085,-0.0083 0.04042,-0.0092 0.07166,-0.02848 0.03215,-0.01929 0.05145,-0.05053 0.01929,-0.03215 0.01929,-0.07809 0,-0.0588 -0.03032,-0.103812 -0.0294,-0.04502 -0.07901,-0.08176 -0.04869,-0.03767 -0.112081,-0.06982 -0.06247,-0.03216 -0.127698,-0.06431 -0.06523,-0.03307 -0.128617,-0.06798 -0.06247,-0.03583 -0.11208,-0.07993 -0.04869,-0.0441 -0.07901,-0.09922 -0.0294,-0.05512 -0.0294,-0.12678 0,-0.07809 0.03399,-0.144234 0.03399,-0.06706 0.0983,-0.115755 0.06523,-0.04869 0.158933,-0.07625 0.09371,-0.02756 0.213137,-0.02756 0.09922,0 0.179145,0.02756 0.07993,0.02756 0.14056,0.07533 0.06155,0.04685 0.102893,0.111162 0.04226,0.06431 0.06431,0.138722 l -0.202112,0 q -0.01746,-0.04685 -0.04042,-0.08911 -0.02297,-0.04226 -0.05696,-0.07441 -0.03399,-0.03215 -0.08176,-0.05053 -0.04777,-0.01929 -0.114837,-0.01929 -0.06247,0 -0.105649,0.01654 -0.04318,0.01654 -0.06982,0.04226 -0.02664,0.0248 -0.03859,0.05604 -0.01102,0.03123 -0.01102,0.06155 0,0.05237 0.03032,0.09554 0.03124,0.04226 0.08176,0.07901 0.05145,0.03583 0.115755,0.06982 0.06431,0.03307 0.131373,0.06706 0.06798,0.03399 0.132292,0.07074 0.06523,0.03675 0.115755,0.08176 0.05145,0.0441 0.08176,0.0983 0.03124,0.0542 0.03124,0.122186 0,0.07993 -0.03307,0.148828 -0.03307,0.06798 -0.0983,0.11943 -0.06431,0.05053 -0.160771,0.07993 -0.09554,0.02848 -0.220486,0.02848 z"
         id="path4319"
         inkscape:connector-curvature="0"
         style="fill:#e8e8e8;fill-opacity:1" />
      <path
         d="m 40.723503,75.334112 0,0.622873 -0.320623,0 0,-1.308217 0.320623,0 0,0.573264 0.526411,0 0,-0.573264 0.317867,0 0,1.308217 -0.317867,0 0,-0.622873 -0.526411,0 z"
         id="path4321"
         inkscape:connector-curvature="0"
         style="fill:#e8e8e8;fill-opacity:1" />
      <path
         d="m 42.482569,75.956985 -0.225079,0 0.555808,-0.64584 -0.500687,-0.662377 0.354615,0 0.331648,0.441891 0.382176,-0.441891 0.225998,0 -0.500687,0.583369 0.544785,0.724848 -0.353697,0 -0.381257,-0.50528 -0.433623,0.50528 z"
         id="path4323"
         inkscape:connector-curvature="0"
         style="fill:#e8e8e8;fill-opacity:1" />
    </g>
    <g
       style="font-style:normal;font-variant:normal;font-weight:bold;font-stretch:normal;font-size:1.65364587px;line-height:125%;font-family:'Bangla MN';-inkscape-font-specification:'Bangla MN, Bold';text-align:start;letter-spacing:0px;word-spacing:0px;writing-mode:lr-tb;text-anchor:start;fill:#000000;fill-opacity:1;stroke:none;stroke-width:1px;stroke-linecap:butt;stroke-linejoin:miter;stroke-opacity:1"
       id="g4343"
       transform="translate(5.9970025,19.00086)">
      <path
         d="m 27.7359,57.034688 q -0.117592,0 -0.205787,-0.02756 -0.08819,-0.02756 -0.150665,-0.07625 -0.06155,-0.04869 -0.0983,-0.115755 -0.03583,-0.06706 -0.04961,-0.146991 l 0.222324,0 q 0.01194,0.04869 0.03399,0.09187 0.02205,0.04226 0.05604,0.0735 0.03399,0.03124 0.08085,0.04961 0.04685,0.01745 0.108405,0.01745 0.04134,0 0.08085,-0.0083 0.04042,-0.0092 0.07166,-0.02848 0.03215,-0.01929 0.05145,-0.05053 0.01929,-0.03215 0.01929,-0.07809 0,-0.0588 -0.03032,-0.103812 -0.0294,-0.04502 -0.07901,-0.08176 -0.04869,-0.03767 -0.11208,-0.06982 -0.06247,-0.03215 -0.127698,-0.06431 -0.06523,-0.03307 -0.128617,-0.06798 -0.06247,-0.03583 -0.112081,-0.07993 -0.04869,-0.0441 -0.07901,-0.09922 -0.0294,-0.05512 -0.0294,-0.126779 0,-0.07809 0.03399,-0.144235 0.03399,-0.06706 0.0983,-0.115755 0.06523,-0.04869 0.158934,-0.07625 0.09371,-0.02756 0.213136,-0.02756 0.09922,0 0.179145,0.02756 0.07993,0.02756 0.14056,0.07533 0.06155,0.04685 0.102894,0.111162 0.04226,0.06431 0.06431,0.138722 l -0.202112,0 q -0.01745,-0.04685 -0.04042,-0.08911 -0.02297,-0.04226 -0.05696,-0.07441 -0.03399,-0.03215 -0.08176,-0.05053 -0.04777,-0.01929 -0.114836,-0.01929 -0.06247,0 -0.10565,0.01654 -0.04318,0.01654 -0.06982,0.04226 -0.02664,0.02481 -0.03858,0.05604 -0.01102,0.03124 -0.01102,0.06155 0,0.05237 0.03032,0.09554 0.03124,0.04226 0.08176,0.07901 0.05145,0.03583 0.115756,0.06982 0.06431,0.03307 0.131373,0.06706 0.06798,0.03399 0.132291,0.07074 0.06523,0.03675 0.115755,0.08176 0.05145,0.0441 0.08176,0.0983 0.03124,0.0542 0.03124,0.122186 0,0.07993 -0.03307,0.148828 -0.03307,0.06798 -0.0983,0.11943 -0.06431,0.05053 -0.160771,0.07993 -0.09554,0.02848 -0.220487,0.02848 z"
         id="path4345"
         inkscape:connector-curvature="0" />
      <path
         d="m 28.815306,56.359449 q 0,0.12678 0.03859,0.224161 0.03858,0.09738 0.101975,0.163527 0.06431,0.06615 0.146991,0.100138 0.0836,0.03399 0.172714,0.03399 0.0689,0 0.127698,-0.02389 0.05971,-0.02389 0.111162,-0.06339 0.05237,-0.04042 0.09738,-0.09279 0.04502,-0.05328 0.08636,-0.112081 l 0.134129,0.0983 q -0.04318,0.06982 -0.10473,0.134129 -0.06063,0.06431 -0.136886,0.113918 -0.07625,0.04961 -0.166283,0.07901 -0.09003,0.0294 -0.190169,0.0294 -0.169039,0 -0.311437,-0.04869 -0.141478,-0.04961 -0.245291,-0.139641 -0.102893,-0.09003 -0.160771,-0.215893 -0.05788,-0.12586 -0.05788,-0.280201 0,-0.09922 0.0248,-0.188332 0.02481,-0.09003 0.07074,-0.166283 0.04685,-0.07625 0.113918,-0.136885 0.06706,-0.06155 0.150665,-0.104731 0.08452,-0.04318 0.184657,-0.06615 0.100138,-0.02297 0.212218,-0.02297 0.112999,0 0.206706,0.02664 0.09463,0.02572 0.170877,0.0735 0.07717,0.04685 0.136885,0.112081 0.06063,0.06523 0.106568,0.142397 l -0.135966,0.09463 q -0.04134,-0.0588 -0.09003,-0.110243 -0.04777,-0.05237 -0.102894,-0.09095 -0.05512,-0.0395 -0.115755,-0.06247 -0.06063,-0.02297 -0.12678,-0.02297 -0.09003,0 -0.171795,0.03399 -0.08176,0.03399 -0.144235,0.100137 -0.06155,0.06615 -0.0983,0.163528 -0.03583,0.09738 -0.03583,0.225079 z"
         id="path4347"
         inkscape:connector-curvature="0" />
      <path
         d="m 30.099796,55.706259 0.320623,0 0,1.174089 0.66789,0 0,0.134129 -0.988513,0 0,-1.308218 z"
         id="path4349"
         inkscape:connector-curvature="0" />
    </g>
    <g
       style="font-style:normal;font-variant:normal;font-weight:bold;font-stretch:normal;font-size:1.65364587px;line-height:125%;font-family:'Bangla MN';-inkscape-font-specification:'Bangla MN, Bold';text-align:start;letter-spacing:0px;word-spacing:0px;writing-mode:lr-tb;text-anchor:start;fill:#000000;fill-opacity:1;stroke:none;stroke-width:1px;stroke-linecap:butt;stroke-linejoin:miter;stroke-opacity:1"
       id="g4351"
       transform="translate(5.9970025,19.00086)">
      <path
         d="m 20.364062,55.706259 0.322461,0 0,0.4915 0.579695,-0.4915 0.248965,0 -0.654108,0.553053 0.829579,0.755165 -0.388607,0 -0.615524,-0.560402 0,0.560402 -0.322461,0 0,-1.308218 z"
         id="path4353"
         inkscape:connector-curvature="0" />
      <path
         d="m 22.761734,55.706259 0,0.111162 -0.655946,0 0,0.431785 0.544784,0 0,0.112081 -0.544784,0 0,0.519061 0.655946,0 0,0.134129 -0.97657,0 0,-1.308218 0.97657,0 z"
         id="path4355"
         inkscape:connector-curvature="0" />
      <path
         d="m 23.204098,55.706259 0.430867,0.588882 0.403306,-0.588882 0.216811,0 -0.509874,0.742303 0,0.565915 -0.321542,0 0,-0.546622 -0.555809,-0.761596 0.336241,0 z"
         id="path4357"
         inkscape:connector-curvature="0" />
    </g>
    <g
       style="font-style:normal;font-variant:normal;font-weight:bold;font-stretch:normal;font-size:1.65364587px;line-height:125%;font-family:'Bangla MN';-inkscape-font-specification:'Bangla MN, Bold';text-align:start;letter-spacing:0px;word-spacing:0px;writing-mode:lr-tb;text-anchor:start;fill:#000000;fill-opacity:1;stroke:none;stroke-width:1px;stroke-linecap:butt;stroke-linejoin:miter;stroke-opacity:1"
       id="g4359"
       transform="translate(5.9970025,19.00086)">
      <path
         d="m 13.961234,57.043875 q -0.105649,0 -0.202112,-0.02389 -0.09646,-0.02297 -0.179145,-0.06615 -0.08268,-0.04318 -0.150666,-0.104731 -0.06798,-0.06155 -0.115755,-0.138722 -0.04777,-0.07717 -0.07441,-0.167202 -0.02572,-0.09095 -0.02572,-0.192007 0,-0.09922 0.02572,-0.187413 0.02664,-0.08911 0.07441,-0.163527 0.04777,-0.07441 0.115755,-0.134129 0.06798,-0.06063 0.150666,-0.101975 0.08268,-0.04134 0.179145,-0.06339 0.09646,-0.02297 0.202112,-0.02297 0.10565,0 0.202113,0.02297 0.09646,0.02205 0.179144,0.06431 0.08268,0.04134 0.150666,0.101057 0.06798,0.05971 0.115755,0.134129 0.04777,0.07441 0.0735,0.162608 0.02664,0.08819 0.02664,0.186495 0,0.103812 -0.02664,0.195681 -0.02572,0.09187 -0.0735,0.169039 -0.04777,0.07717 -0.115755,0.138723 -0.06798,0.06063 -0.150666,0.103812 -0.08268,0.04226 -0.179144,0.06431 -0.09646,0.02297 -0.202113,0.02297 z m 0,-0.111162 q 0.09554,0 0.168121,-0.04318 0.07349,-0.0441 0.123105,-0.121268 0.04961,-0.07809 0.07441,-0.184657 0.02572,-0.106568 0.02572,-0.232429 0,-0.124023 -0.02572,-0.226917 -0.02481,-0.103812 -0.07441,-0.178226 -0.04961,-0.07441 -0.123105,-0.115755 -0.07258,-0.04134 -0.168121,-0.04134 -0.09646,0 -0.169958,0.04134 -0.07349,0.04134 -0.123105,0.115755 -0.04869,0.07441 -0.07441,0.178226 -0.0248,0.102894 -0.0248,0.226917 0,0.125861 0.0248,0.232429 0.02572,0.106568 0.07441,0.184657 0.04961,0.07717 0.123105,0.121268 0.0735,0.04318 0.169958,0.04318 z"
         id="path4361"
         inkscape:connector-curvature="0" />
      <path
         d="m 15.259906,56.359449 q 0,0.12678 0.03858,0.224161 0.03858,0.09738 0.101975,0.163527 0.06431,0.06615 0.146991,0.100138 0.0836,0.03399 0.172714,0.03399 0.0689,0 0.127698,-0.02389 0.05972,-0.02389 0.111162,-0.06339 0.05237,-0.04042 0.09738,-0.09279 0.04502,-0.05328 0.08636,-0.112081 l 0.134129,0.0983 q -0.04318,0.06982 -0.104731,0.134129 -0.06063,0.06431 -0.136885,0.113918 -0.07625,0.04961 -0.166283,0.07901 -0.09003,0.0294 -0.190169,0.0294 -0.16904,0 -0.311437,-0.04869 -0.141479,-0.04961 -0.245291,-0.139641 -0.102893,-0.09003 -0.160771,-0.215893 -0.05788,-0.12586 -0.05788,-0.280201 0,-0.09922 0.0248,-0.188332 0.02481,-0.09003 0.07074,-0.166283 0.04685,-0.07625 0.113918,-0.136885 0.06707,-0.06155 0.150666,-0.104731 0.08452,-0.04318 0.184657,-0.06615 0.100137,-0.02297 0.212218,-0.02297 0.112999,0 0.206706,0.02664 0.09462,0.02572 0.170876,0.0735 0.07717,0.04685 0.136885,0.112081 0.06063,0.06523 0.106569,0.142397 l -0.135967,0.09463 q -0.04134,-0.0588 -0.09003,-0.110243 -0.04777,-0.05237 -0.102893,-0.09095 -0.05512,-0.0395 -0.115755,-0.06247 -0.06063,-0.02297 -0.12678,-0.02297 -0.09003,0 -0.171795,0.03399 -0.08176,0.03399 -0.144235,0.100137 -0.06155,0.06615 -0.0983,0.163528 -0.03583,0.09738 -0.03583,0.225079 z"
         id="path4363"
         inkscape:connector-curvature="0" />
      <path
         d="m 17.67898,55.706259 0,0.111162 -0.452915,0 0,1.197056 -0.320623,0 0,-1.197056 -0.452916,0 0,-0.111162 1.226454,0 z"
         id="path4365"
         inkscape:connector-curvature="0" />
    </g>
    <g
       transform="translate(5.9970025,28.565836)"
       id="g4367"
       style="font-style:normal;font-variant:normal;font-weight:bold;font-stretch:normal;font-size:1.65364587px;line-height:125%;font-family:'Bangla MN';-inkscape-font-specification:'Bangla MN, Bold';text-align:start;letter-spacing:0px;word-spacing:0px;writing-mode:lr-tb;text-anchor:start;fill:#000000;fill-opacity:1;stroke:none;stroke-width:1px;stroke-linecap:butt;stroke-linejoin:miter;stroke-opacity:1">
      <path
         inkscape:connector-curvature="0"
         id="path4369"
         d="m 27.7359,57.034688 q -0.117592,0 -0.205787,-0.02756 -0.08819,-0.02756 -0.150665,-0.07625 -0.06155,-0.04869 -0.0983,-0.115755 -0.03583,-0.06706 -0.04961,-0.146991 l 0.222324,0 q 0.01194,0.04869 0.03399,0.09187 0.02205,0.04226 0.05604,0.0735 0.03399,0.03124 0.08085,0.04961 0.04685,0.01745 0.108405,0.01745 0.04134,0 0.08085,-0.0083 0.04042,-0.0092 0.07166,-0.02848 0.03215,-0.01929 0.05145,-0.05053 0.01929,-0.03215 0.01929,-0.07809 0,-0.0588 -0.03032,-0.103812 -0.0294,-0.04502 -0.07901,-0.08176 -0.04869,-0.03767 -0.11208,-0.06982 -0.06247,-0.03215 -0.127698,-0.06431 -0.06523,-0.03307 -0.128617,-0.06798 -0.06247,-0.03583 -0.112081,-0.07993 -0.04869,-0.0441 -0.07901,-0.09922 -0.0294,-0.05512 -0.0294,-0.126779 0,-0.07809 0.03399,-0.144235 0.03399,-0.06706 0.0983,-0.115755 0.06523,-0.04869 0.158934,-0.07625 0.09371,-0.02756 0.213136,-0.02756 0.09922,0 0.179145,0.02756 0.07993,0.02756 0.14056,0.07533 0.06155,0.04685 0.102894,0.111162 0.04226,0.06431 0.06431,0.138722 l -0.202112,0 q -0.01745,-0.04685 -0.04042,-0.08911 -0.02297,-0.04226 -0.05696,-0.07441 -0.03399,-0.03215 -0.08176,-0.05053 -0.04777,-0.01929 -0.114836,-0.01929 -0.06247,0 -0.10565,0.01654 -0.04318,0.01654 -0.06982,0.04226 -0.02664,0.02481 -0.03858,0.05604 -0.01102,0.03124 -0.01102,0.06155 0,0.05237 0.03032,0.09554 0.03124,0.04226 0.08176,0.07901 0.05145,0.03583 0.115756,0.06982 0.06431,0.03307 0.131373,0.06706 0.06798,0.03399 0.132291,0.07074 0.06523,0.03675 0.115755,0.08176 0.05145,0.0441 0.08176,0.0983 0.03124,0.0542 0.03124,0.122186 0,0.07993 -0.03307,0.148828 -0.03307,0.06798 -0.0983,0.11943 -0.06431,0.05053 -0.160771,0.07993 -0.09554,0.02848 -0.220487,0.02848 z" />
      <path
         inkscape:connector-curvature="0"
         id="path4371"
         d="m 28.815306,56.359449 q 0,0.12678 0.03859,0.224161 0.03858,0.09738 0.101975,0.163527 0.06431,0.06615 0.146991,0.100138 0.0836,0.03399 0.172714,0.03399 0.0689,0 0.127698,-0.02389 0.05971,-0.02389 0.111162,-0.06339 0.05237,-0.04042 0.09738,-0.09279 0.04502,-0.05328 0.08636,-0.112081 l 0.134129,0.0983 q -0.04318,0.06982 -0.10473,0.134129 -0.06063,0.06431 -0.136886,0.113918 -0.07625,0.04961 -0.166283,0.07901 -0.09003,0.0294 -0.190169,0.0294 -0.169039,0 -0.311437,-0.04869 -0.141478,-0.04961 -0.245291,-0.139641 -0.102893,-0.09003 -0.160771,-0.215893 -0.05788,-0.12586 -0.05788,-0.280201 0,-0.09922 0.0248,-0.188332 0.02481,-0.09003 0.07074,-0.166283 0.04685,-0.07625 0.113918,-0.136885 0.06706,-0.06155 0.150665,-0.104731 0.08452,-0.04318 0.184657,-0.06615 0.100138,-0.02297 0.212218,-0.02297 0.112999,0 0.206706,0.02664 0.09463,0.02572 0.170877,0.0735 0.07717,0.04685 0.136885,0.112081 0.06063,0.06523 0.106568,0.142397 l -0.135966,0.09463 q -0.04134,-0.0588 -0.09003,-0.110243 -0.04777,-0.05237 -0.102894,-0.09095 -0.05512,-0.0395 -0.115755,-0.06247 -0.06063,-0.02297 -0.12678,-0.02297 -0.09003,0 -0.171795,0.03399 -0.08176,0.03399 -0.144235,0.100137 -0.06155,0.06615 -0.0983,0.163528 -0.03583,0.09738 -0.03583,0.225079 z" />
      <path
         inkscape:connector-curvature="0"
         id="path4373"
         d="m 30.099796,55.706259 0.320623,0 0,1.174089 0.66789,0 0,0.134129 -0.988513,0 0,-1.308218 z" />
    </g>
    <g
       transform="translate(5.9970025,28.565836)"
       id="g4375"
       style="font-style:normal;font-variant:normal;font-weight:bold;font-stretch:normal;font-size:1.65364587px;line-height:125%;font-family:'Bangla MN';-inkscape-font-specification:'Bangla MN, Bold';text-align:start;letter-spacing:0px;word-spacing:0px;writing-mode:lr-tb;text-anchor:start;fill:#000000;fill-opacity:1;stroke:none;stroke-width:1px;stroke-linecap:butt;stroke-linejoin:miter;stroke-opacity:1">
      <path
         inkscape:connector-curvature="0"
         id="path4377"
         d="m 20.364062,55.706259 0.322461,0 0,0.4915 0.579695,-0.4915 0.248965,0 -0.654108,0.553053 0.829579,0.755165 -0.388607,0 -0.615524,-0.560402 0,0.560402 -0.322461,0 0,-1.308218 z" />
      <path
         inkscape:connector-curvature="0"
         id="path4379"
         d="m 22.761734,55.706259 0,0.111162 -0.655946,0 0,0.431785 0.544784,0 0,0.112081 -0.544784,0 0,0.519061 0.655946,0 0,0.134129 -0.97657,0 0,-1.308218 0.97657,0 z" />
      <path
         inkscape:connector-curvature="0"
         id="path4381"
         d="m 23.204098,55.706259 0.430867,0.588882 0.403306,-0.588882 0.216811,0 -0.509874,0.742303 0,0.565915 -0.321542,0 0,-0.546622 -0.555809,-0.761596 0.336241,0 z" />
    </g>
    <g
       transform="translate(5.9970025,28.565836)"
       id="g4383"
       style="font-style:normal;font-variant:normal;font-weight:bold;font-stretch:normal;font-size:1.65364587px;line-height:125%;font-family:'Bangla MN';-inkscape-font-specification:'Bangla MN, Bold';text-align:start;letter-spacing:0px;word-spacing:0px;writing-mode:lr-tb;text-anchor:start;fill:#000000;fill-opacity:1;stroke:none;stroke-width:1px;stroke-linecap:butt;stroke-linejoin:miter;stroke-opacity:1">
      <path
         inkscape:connector-curvature="0"
         id="path4385"
         d="m 13.961234,57.043875 q -0.105649,0 -0.202112,-0.02389 -0.09646,-0.02297 -0.179145,-0.06615 -0.08268,-0.04318 -0.150666,-0.104731 -0.06798,-0.06155 -0.115755,-0.138722 -0.04777,-0.07717 -0.07441,-0.167202 -0.02572,-0.09095 -0.02572,-0.192007 0,-0.09922 0.02572,-0.187413 0.02664,-0.08911 0.07441,-0.163527 0.04777,-0.07441 0.115755,-0.134129 0.06798,-0.06063 0.150666,-0.101975 0.08268,-0.04134 0.179145,-0.06339 0.09646,-0.02297 0.202112,-0.02297 0.10565,0 0.202113,0.02297 0.09646,0.02205 0.179144,0.06431 0.08268,0.04134 0.150666,0.101057 0.06798,0.05971 0.115755,0.134129 0.04777,0.07441 0.0735,0.162608 0.02664,0.08819 0.02664,0.186495 0,0.103812 -0.02664,0.195681 -0.02572,0.09187 -0.0735,0.169039 -0.04777,0.07717 -0.115755,0.138723 -0.06798,0.06063 -0.150666,0.103812 -0.08268,0.04226 -0.179144,0.06431 -0.09646,0.02297 -0.202113,0.02297 z m 0,-0.111162 q 0.09554,0 0.168121,-0.04318 0.07349,-0.0441 0.123105,-0.121268 0.04961,-0.07809 0.07441,-0.184657 0.02572,-0.106568 0.02572,-0.232429 0,-0.124023 -0.02572,-0.226917 -0.02481,-0.103812 -0.07441,-0.178226 -0.04961,-0.07441 -0.123105,-0.115755 -0.07258,-0.04134 -0.168121,-0.04134 -0.09646,0 -0.169958,0.04134 -0.07349,0.04134 -0.123105,0.115755 -0.04869,0.07441 -0.07441,0.178226 -0.0248,0.102894 -0.0248,0.226917 0,0.125861 0.0248,0.232429 0.02572,0.106568 0.07441,0.184657 0.04961,0.07717 0.123105,0.121268 0.0735,0.04318 0.169958,0.04318 z" />
      <path
         inkscape:connector-curvature="0"
         id="path4387"
         d="m 15.259906,56.359449 q 0,0.12678 0.03858,0.224161 0.03858,0.09738 0.101975,0.163527 0.06431,0.06615 0.146991,0.100138 0.0836,0.03399 0.172714,0.03399 0.0689,0 0.127698,-0.02389 0.05972,-0.02389 0.111162,-0.06339 0.05237,-0.04042 0.09738,-0.09279 0.04502,-0.05328 0.08636,-0.112081 l 0.134129,0.0983 q -0.04318,0.06982 -0.104731,0.134129 -0.06063,0.06431 -0.136885,0.113918 -0.07625,0.04961 -0.166283,0.07901 -0.09003,0.0294 -0.190169,0.0294 -0.16904,0 -0.311437,-0.04869 -0.141479,-0.04961 -0.245291,-0.139641 -0.102893,-0.09003 -0.160771,-0.215893 -0.05788,-0.12586 -0.05788,-0.280201 0,-0.09922 0.0248,-0.188332 0.02481,-0.09003 0.07074,-0.166283 0.04685,-0.07625 0.113918,-0.136885 0.06707,-0.06155 0.150666,-0.104731 0.08452,-0.04318 0.184657,-0.06615 0.100137,-0.02297 0.212218,-0.02297 0.112999,0 0.206706,0.02664 0.09462,0.02572 0.170876,0.0735 0.07717,0.04685 0.136885,0.112081 0.06063,0.06523 0.106569,0.142397 l -0.135967,0.09463 q -0.04134,-0.0588 -0.09003,-0.110243 -0.04777,-0.05237 -0.102893,-0.09095 -0.05512,-0.0395 -0.115755,-0.06247 -0.06063,-0.02297 -0.12678,-0.02297 -0.09003,0 -0.171795,0.03399 -0.08176,0.03399 -0.144235,0.100137 -0.06155,0.06615 -0.0983,0.163528 -0.03583,0.09738 -0.03583,0.225079 z" />
      <path
         inkscape:connector-curvature="0"
         id="path4389"
         d="m 17.67898,55.706259 0,0.111162 -0.452915,0 0,1.197056 -0.320623,0 0,-1.197056 -0.452916,0 0,-0.111162 1.226454,0 z" />
    </g>
    <path
       style="fill:#e8e8e8;fill-opacity:1;stroke:#000000;stroke-width:0.15818816;stroke-linecap:butt;stroke-linejoin:round;stroke-miterlimit:4;stroke-dasharray:none;stroke-dashoffset:0;stroke-opacity:1"
       d="m 13.36715,88.398347 3.924889,4.332783 0,-18.437968 -3.92489,4.670401 z"
       id="rect4393"
       inkscape:connector-curvature="0"
       sodipodi:nodetypes="ccccc" />
    <path
       sodipodi:nodetypes="ccccc"
       inkscape:connector-curvature="0"
       id="path4396"
       d="m 13.364904,88.144373 3.929382,4.082626 0,-17.373437 -3.929383,4.400753 z"
       style="fill:#000000;fill-opacity:0;stroke:#000000;stroke-width:0.15364161;stroke-linecap:butt;stroke-linejoin:round;stroke-miterlimit:4;stroke-dasharray:none;stroke-dashoffset:0;stroke-opacity:1" />
    <path
       style="fill:#000000;fill-opacity:0;stroke:#000000;stroke-width:0.14692545;stroke-linecap:butt;stroke-linejoin:round;stroke-miterlimit:4;stroke-dasharray:none;stroke-dashoffset:0;stroke-opacity:1"
       d="m 13.361584,87.827956 3.93602,3.727202 0,-15.860943 -3.936021,4.017633 z"
       id="path4398"
       inkscape:connector-curvature="0"
       sodipodi:nodetypes="ccccc" />
    <path
       sodipodi:nodetypes="ccccc"
       inkscape:connector-curvature="0"
       id="path4401"
       d="m 13.411709,87.431239 3.83577,3.329801 0,-14.169824 -3.835771,3.589268 z"
       style="fill:#000000;fill-opacity:0;stroke:#000000;stroke-width:0.13709208;stroke-linecap:butt;stroke-linejoin:round;stroke-miterlimit:4;stroke-dasharray:none;stroke-dashoffset:0;stroke-opacity:1" />
    <path
       style="fill:#000000;fill-opacity:0;stroke:#000000;stroke-width:0.13171108;stroke-linecap:butt;stroke-linejoin:round;stroke-miterlimit:4;stroke-dasharray:none;stroke-dashoffset:0;stroke-opacity:1"
       d="m 13.40905,87.13744 3.841088,3.069277 0,-13.061178 -3.841089,3.308444 z"
       id="path4404"
       inkscape:connector-curvature="0"
       sodipodi:nodetypes="ccccc" />
    <path
       sodipodi:nodetypes="ccccc"
       inkscape:connector-curvature="0"
       id="path4406"
       d="m 13.405967,86.832132 3.847254,2.780908 0,-11.834035 -3.847255,2.997604 z"
       style="fill:#000000;fill-opacity:0;stroke:#000000;stroke-width:0.12547173;stroke-linecap:butt;stroke-linejoin:round;stroke-miterlimit:4;stroke-dasharray:none;stroke-dashoffset:0;stroke-opacity:1" />
    <path
       style="fill:#000000;fill-opacity:0;stroke:#000000;stroke-width:0.11976095;stroke-linecap:butt;stroke-linejoin:round;stroke-miterlimit:4;stroke-dasharray:none;stroke-dashoffset:0;stroke-opacity:1"
       d="m 13.403143,86.568861 3.852902,2.529812 0,-10.765514 -3.852903,2.726946 z"
       id="path4409"
       inkscape:connector-curvature="0"
       sodipodi:nodetypes="ccccc" />
    <path
       sodipodi:nodetypes="ccccc"
       inkscape:connector-curvature="0"
       id="path4411"
       d="m 13.400398,86.326635 3.858392,2.297381 0,-9.776411 -3.858393,2.476403 z"
       style="fill:#000000;fill-opacity:0;stroke:#000000;stroke-width:0.11420805;stroke-linecap:butt;stroke-linejoin:round;stroke-miterlimit:4;stroke-dasharray:none;stroke-dashoffset:0;stroke-opacity:1" />
    <path
       style="fill:#000000;fill-opacity:0;stroke:#000000;stroke-width:0.10835962;stroke-linecap:butt;stroke-linejoin:round;stroke-miterlimit:4;stroke-dasharray:none;stroke-dashoffset:0;stroke-opacity:1"
       d="m 13.397508,86.084488 3.864172,2.065021 0,-8.787606 -3.864173,2.225934 z"
       id="path4413"
       inkscape:connector-curvature="0"
       sodipodi:nodetypes="ccccc" />
    <path
       sodipodi:nodetypes="ccccc"
       inkscape:connector-curvature="0"
       id="path4415"
       d="m 13.394823,85.853968 3.869542,1.860611 0,-7.917746 -3.869543,2.005595 z"
       style="fill:#000000;fill-opacity:0;stroke:#000000;stroke-width:0.10292822;stroke-linecap:butt;stroke-linejoin:round;stroke-miterlimit:4;stroke-dasharray:none;stroke-dashoffset:0;stroke-opacity:1" />
    <path
       style="fill:#000000;fill-opacity:0;stroke:#000000;stroke-width:0.09637246;stroke-linecap:butt;stroke-linejoin:round;stroke-miterlimit:4;stroke-dasharray:none;stroke-dashoffset:0;stroke-opacity:1"
       d="m 13.391583,85.612011 3.876023,1.628417 0,-6.929656 -3.876024,1.755308 z"
       id="path4417"
       inkscape:connector-curvature="0"
       sodipodi:nodetypes="ccccc" />
    <path
       sodipodi:nodetypes="ccccc"
       inkscape:connector-curvature="0"
       id="path4419"
       d="m 13.388242,85.36076 3.882704,1.405621 0,-5.981561 -3.882705,1.515152 z"
       style="fill:#000000;fill-opacity:0;stroke:#000000;stroke-width:0.08961447;stroke-linecap:butt;stroke-linejoin:round;stroke-miterlimit:4;stroke-dasharray:none;stroke-dashoffset:0;stroke-opacity:1" />
    <path
       style="fill:#000000;fill-opacity:0;stroke:#000000;stroke-width:0.08164652;stroke-linecap:butt;stroke-linejoin:round;stroke-miterlimit:4;stroke-dasharray:none;stroke-dashoffset:0;stroke-opacity:1"
       d="m 13.384304,85.128531 3.890581,1.164414 0,-4.955111 -3.890582,1.255149 z"
       id="path4421"
       inkscape:connector-curvature="0"
       sodipodi:nodetypes="ccccc" />
    <path
       sodipodi:nodetypes="ccccc"
       inkscape:connector-curvature="0"
       id="path4423"
       d="m 13.380104,84.887095 3.898979,0.932682 0,-3.968986 -3.89898,1.00536 z"
       style="fill:#000000;fill-opacity:0;stroke:#000000;stroke-width:0.07315077;stroke-linecap:butt;stroke-linejoin:round;stroke-miterlimit:4;stroke-dasharray:none;stroke-dashoffset:0;stroke-opacity:1" />
    <path
       style="fill:#000000;fill-opacity:0;stroke:#000000;stroke-width:0.0655499;stroke-linecap:butt;stroke-linejoin:round;stroke-miterlimit:4;stroke-dasharray:none;stroke-dashoffset:0;stroke-opacity:1"
       d="m 13.376348,84.678246 3.906492,0.747488 0,-3.180898 -3.906493,0.805732 z"
       id="path4425"
       inkscape:connector-curvature="0"
       sodipodi:nodetypes="ccccc" />
    <rect
       style="fill:#e8e8e8;fill-opacity:1;stroke:#000000;stroke-width:0.15974049;stroke-linecap:butt;stroke-linejoin:round;stroke-miterlimit:4;stroke-dasharray:none;stroke-dashoffset:0;stroke-opacity:1"
       id="rect4443"
       width="7.1673155"
       height="18.373316"
       x="5.7915463"
       y="-92.763184"
       transform="scale(1,-1)" />
    <g
       style="font-style:normal;font-variant:normal;font-weight:bold;font-stretch:normal;font-size:1.65364587px;line-height:125%;font-family:'Bangla MN';-inkscape-font-specification:'Bangla MN, Bold';text-align:start;letter-spacing:0px;word-spacing:0px;writing-mode:lr-tb;text-anchor:start;fill:#000000;fill-opacity:1;stroke:none;stroke-width:1px;stroke-linecap:butt;stroke-linejoin:miter;stroke-opacity:1"
       id="text4227">
      <path
         d="m 6.5188615,74.7633 0.3206236,0 0,1.174089 0.6678892,0 0,0.134129 -0.9885128,0 0,-1.308218 z"
         id="path4446"
         inkscape:connector-curvature="0" />
      <path
         d="m 8.3927926,76.100916 q -0.1056496,0 -0.2021123,-0.02389 -0.096463,-0.02297 -0.1791449,-0.06615 -0.082682,-0.04318 -0.1506656,-0.104731 -0.067983,-0.06155 -0.1157552,-0.138722 -0.047772,-0.07717 -0.074414,-0.167202 -0.025723,-0.09095 -0.025723,-0.192007 0,-0.09922 0.025723,-0.187413 0.026642,-0.08911 0.074414,-0.163527 0.047772,-0.07441 0.1157552,-0.134129 0.067983,-0.06063 0.1506656,-0.101975 0.082682,-0.04134 0.1791449,-0.06339 0.096463,-0.02297 0.2021123,-0.02297 0.1056496,0 0.2021123,0.02297 0.096463,0.02205 0.1791449,0.06431 0.082682,0.04134 0.1506656,0.101056 0.067983,0.05971 0.1157552,0.134129 0.047772,0.07441 0.073495,0.162608 0.026642,0.08819 0.026642,0.186495 0,0.103812 -0.026642,0.195681 -0.025723,0.09187 -0.073495,0.16904 -0.047772,0.07717 -0.1157552,0.138722 -0.067983,0.06063 -0.1506656,0.103812 -0.082682,0.04226 -0.1791449,0.06431 -0.096463,0.02297 -0.2021123,0.02297 z m 0,-0.111162 q 0.095544,0 0.1681207,-0.04318 0.073495,-0.0441 0.1231047,-0.121268 0.049609,-0.07809 0.074414,-0.184657 0.025723,-0.106568 0.025723,-0.232429 0,-0.124023 -0.025723,-0.226917 -0.024805,-0.103812 -0.074414,-0.178226 -0.049609,-0.07441 -0.1231047,-0.115755 -0.072577,-0.04134 -0.1681207,-0.04134 -0.096463,0 -0.169958,0.04134 -0.073495,0.04134 -0.1231048,0.115755 -0.048691,0.07441 -0.074414,0.178226 -0.024805,0.102894 -0.024805,0.226917 0,0.125861 0.024805,0.232429 0.025723,0.106569 0.074414,0.184657 0.049609,0.07717 0.1231048,0.121268 0.073495,0.04318 0.169958,0.04318 z"
         id="path4448"
         inkscape:connector-curvature="0" />
      <path
         d="m 10.069047,76.100916 q -0.1056497,0 -0.2021124,-0.02389 -0.096463,-0.02297 -0.179145,-0.06615 -0.082682,-0.04318 -0.1506655,-0.104731 -0.067983,-0.06155 -0.1157552,-0.138722 -0.047772,-0.07717 -0.074414,-0.167202 -0.025723,-0.09095 -0.025723,-0.192007 0,-0.09922 0.025723,-0.187413 0.026642,-0.08911 0.074414,-0.163527 0.047772,-0.07441 0.1157552,-0.134129 0.067983,-0.06063 0.1506655,-0.101975 0.082682,-0.04134 0.179145,-0.06339 0.096463,-0.02297 0.2021124,-0.02297 0.105649,0 0.202112,0.02297 0.09646,0.02205 0.179145,0.06431 0.08268,0.04134 0.150666,0.101056 0.06798,0.05971 0.115755,0.134129 0.04777,0.07441 0.07349,0.162608 0.02664,0.08819 0.02664,0.186495 0,0.103812 -0.02664,0.195681 -0.02572,0.09187 -0.07349,0.16904 -0.04777,0.07717 -0.115755,0.138722 -0.06798,0.06063 -0.150666,0.103812 -0.08268,0.04226 -0.179145,0.06431 -0.09646,0.02297 -0.202112,0.02297 z m 0,-0.111162 q 0.09554,0 0.168121,-0.04318 0.07349,-0.0441 0.123104,-0.121268 0.04961,-0.07809 0.07441,-0.184657 0.02572,-0.106568 0.02572,-0.232429 0,-0.124023 -0.02572,-0.226917 -0.0248,-0.103812 -0.07441,-0.178226 -0.04961,-0.07441 -0.123104,-0.115755 -0.07258,-0.04134 -0.168121,-0.04134 -0.096463,0 -0.1699582,0.04134 -0.073495,0.04134 -0.1231047,0.115755 -0.048691,0.07441 -0.074414,0.178226 -0.024805,0.102894 -0.024805,0.226917 0,0.125861 0.024805,0.232429 0.025723,0.106569 0.074414,0.184657 0.049609,0.07717 0.1231047,0.121268 0.073495,0.04318 0.1699582,0.04318 z"
         id="path4450"
         inkscape:connector-curvature="0" />
      <path
         d="m 11.066388,74.7633 0.455671,0 q 0.110243,0 0.205787,0.02389 0.09646,0.02297 0.167202,0.0689 0.07074,0.04594 0.111162,0.114837 0.04134,0.0689 0.04134,0.160771 0,0.09279 -0.04042,0.16169 -0.04042,0.0689 -0.106569,0.114836 -0.06523,0.04594 -0.149746,0.0689 -0.08452,0.02297 -0.172715,0.02297 l -0.18925,0 0,0.571427 -0.322461,0 0,-1.308218 z m 0.322461,0.61828 0.104731,0 q 0.0542,0 0.09463,-0.01929 0.04134,-0.02021 0.06798,-0.0542 0.02756,-0.03399 0.04042,-0.07809 0.01378,-0.04502 0.01378,-0.09371 0,-0.0588 -0.01745,-0.104731 -0.01745,-0.04593 -0.04869,-0.07717 -0.03032,-0.03123 -0.07166,-0.04777 -0.04134,-0.01654 -0.08819,-0.01654 l -0.09554,0 0,0.4915 z"
         id="path4452"
         inkscape:connector-curvature="0" />
    </g>
  </g>
</svg>
